<svg xmlns="http://www.w3.org/2000/svg" xmlns:xlink="http://www.w3.org/1999/xlink" width="1920" zoomAndPan="magnify" viewBox="0 0 1440 809.999993" height="1080" preserveAspectRatio="xMidYMid meet" version="1.2"><g id="9562cc7a39"><path style=" stroke:none;fill-rule:evenodd;fill:#fefefe;fill-opacity:1;" d="M 620.050781 286.746094 C 609.859375 251.589844 656.683594 258.675781 672.171875 235.664062 C 687.675781 212.664062 705.753906 218.472656 732.464844 205.386719 C 784.238281 180.019531 770.925781 103.835938 902.757812 210.316406 C 919.015625 223.4375 924.890625 227.644531 929.765625 246.1875 C 934.640625 264.746094 959.648438 264.746094 973.609375 282.691406 C 989.078125 302.585938 878.503906 325.335938 776.835938 327.320312 C 700.546875 328.808594 630.238281 321.898438 620.050781 286.746094 Z M 620.050781 286.746094 "/><path style=" stroke:none;fill-rule:evenodd;fill:#edf4f7;fill-opacity:1;" d="M 810.015625 155.832031 C 829.554688 158.847656 857.667969 173.878906 902.757812 210.316406 C 919.015625 223.4375 924.890625 227.644531 929.765625 246.1875 C 934.640625 264.746094 959.648438 264.746094 973.609375 282.691406 C 982.605469 294.269531 948.96875 306.792969 899.25 315.652344 C 896.441406 308.320312 910.71875 298.832031 914.140625 293.761719 C 918.503906 287.324219 901.949219 271.113281 898.636719 257.027344 C 895.320312 242.941406 896.023438 242.695312 879.429688 238.03125 C 862.859375 233.382812 861.332031 227.507812 854.070312 204.296875 C 849.878906 190.84375 827.957031 170.582031 810.015625 155.832031 Z M 810.015625 155.832031 "/><path style=" stroke:none;fill-rule:nonzero;fill:#dde7eb;fill-opacity:1;" d="M 730.324219 201.351562 C 796.476562 156.777344 788.691406 118.378906 885.957031 192.019531 C 951.492188 241.628906 910.648438 232.558594 960.085938 266.78125 C 1050.089844 329.109375 714.332031 347.683594 640.917969 312.320312 C 598.285156 291.777344 609.351562 265.519531 646.546875 248.328125 C 679.257812 233.207031 662.507812 228.769531 714.859375 207.597656 Z M 962.910156 277.289062 C 933.640625 256.589844 945.792969 279.027344 923.503906 239.136719 C 903.5625 203.507812 816.347656 136.746094 769.714844 176.667969 C 732.132812 208.839844 761.734375 198.507812 702.511719 219.382812 C 683.519531 226.085938 666.382812 246.136719 636.640625 260.746094 C 594.988281 281.183594 649.039062 311.179688 680.394531 317.6875 C 733.746094 328.738281 926.976562 323.40625 966.226562 291.585938 C 973.976562 285.304688 968.226562 282.480469 962.910156 277.289062 Z M 962.910156 277.289062 "/><path style=" stroke:none;fill-rule:nonzero;fill:#bdcdd4;fill-opacity:1;" d="M 655.914062 292.199219 C 655.914062 292.332031 655.886719 292.460938 655.835938 292.582031 C 655.785156 292.707031 655.714844 292.8125 655.621094 292.90625 C 655.527344 293 655.417969 293.074219 655.296875 293.125 C 655.175781 293.175781 655.046875 293.199219 654.914062 293.199219 C 654.78125 293.199219 654.652344 293.175781 654.53125 293.125 C 654.410156 293.074219 654.300781 293 654.207031 292.90625 C 654.113281 292.8125 654.042969 292.707031 653.992188 292.582031 C 653.941406 292.460938 653.914062 292.332031 653.914062 292.199219 C 653.914062 292.066406 653.941406 291.941406 653.992188 291.816406 C 654.042969 291.695312 654.113281 291.585938 654.207031 291.492188 C 654.300781 291.398438 654.410156 291.328125 654.53125 291.277344 C 654.652344 291.226562 654.78125 291.199219 654.914062 291.199219 C 655.046875 291.199219 655.175781 291.226562 655.296875 291.277344 C 655.417969 291.328125 655.527344 291.398438 655.621094 291.492188 C 655.714844 291.585938 655.785156 291.695312 655.835938 291.816406 C 655.886719 291.941406 655.914062 292.066406 655.914062 292.199219 Z M 655.914062 292.199219 "/><path style=" stroke:none;fill-rule:nonzero;fill:#bdcdd4;fill-opacity:1;" d="M 646.375 270.746094 C 646.375 270.894531 646.34375 271.039062 646.289062 271.175781 C 646.230469 271.3125 646.148438 271.433594 646.042969 271.539062 C 645.9375 271.644531 645.816406 271.726562 645.679688 271.785156 C 645.542969 271.839844 645.398438 271.867188 645.25 271.867188 C 645.101562 271.867188 644.957031 271.839844 644.820312 271.785156 C 644.683594 271.726562 644.5625 271.644531 644.457031 271.539062 C 644.351562 271.433594 644.269531 271.3125 644.214844 271.175781 C 644.15625 271.039062 644.128906 270.894531 644.128906 270.746094 C 644.128906 270.597656 644.15625 270.453125 644.214844 270.316406 C 644.269531 270.179688 644.351562 270.058594 644.457031 269.953125 C 644.5625 269.847656 644.683594 269.765625 644.820312 269.710938 C 644.957031 269.652344 645.101562 269.625 645.25 269.625 C 645.398438 269.625 645.542969 269.652344 645.679688 269.710938 C 645.816406 269.765625 645.9375 269.847656 646.042969 269.953125 C 646.148438 270.058594 646.230469 270.179688 646.289062 270.316406 C 646.34375 270.453125 646.375 270.597656 646.375 270.746094 Z M 646.375 270.746094 "/><path style=" stroke:none;fill-rule:nonzero;fill:#bdcdd4;fill-opacity:1;" d="M 673.941406 260.433594 C 673.941406 260.726562 673.914062 261.015625 673.855469 261.304688 C 673.800781 261.59375 673.714844 261.871094 673.601562 262.144531 C 673.488281 262.414062 673.351562 262.671875 673.1875 262.917969 C 673.027344 263.160156 672.839844 263.386719 672.632812 263.59375 C 672.425781 263.800781 672.199219 263.988281 671.953125 264.152344 C 671.710938 264.3125 671.453125 264.453125 671.179688 264.566406 C 670.910156 264.675781 670.628906 264.761719 670.34375 264.820312 C 670.054688 264.875 669.765625 264.90625 669.46875 264.90625 C 669.175781 264.90625 668.886719 264.875 668.597656 264.820312 C 668.308594 264.761719 668.03125 264.675781 667.757812 264.566406 C 667.488281 264.453125 667.230469 264.3125 666.984375 264.152344 C 666.742188 263.988281 666.515625 263.800781 666.308594 263.59375 C 666.101562 263.386719 665.914062 263.160156 665.75 262.917969 C 665.589844 262.671875 665.449219 262.414062 665.339844 262.144531 C 665.226562 261.871094 665.140625 261.59375 665.085938 261.304688 C 665.027344 261.015625 665 260.726562 665 260.433594 C 665 260.136719 665.027344 259.847656 665.085938 259.558594 C 665.140625 259.269531 665.226562 258.992188 665.339844 258.71875 C 665.449219 258.449219 665.589844 258.191406 665.75 257.945312 C 665.914062 257.703125 666.101562 257.476562 666.308594 257.269531 C 666.515625 257.0625 666.742188 256.875 666.984375 256.710938 C 667.230469 256.550781 667.488281 256.410156 667.757812 256.300781 C 668.03125 256.1875 668.308594 256.101562 668.597656 256.042969 C 668.886719 255.988281 669.175781 255.957031 669.46875 255.957031 C 669.765625 255.957031 670.054688 255.988281 670.34375 256.042969 C 670.628906 256.101562 670.910156 256.1875 671.179688 256.300781 C 671.453125 256.410156 671.710938 256.550781 671.953125 256.710938 C 672.199219 256.875 672.425781 257.0625 672.632812 257.269531 C 672.839844 257.476562 673.027344 257.703125 673.1875 257.945312 C 673.351562 258.191406 673.488281 258.449219 673.601562 258.71875 C 673.714844 258.992188 673.800781 259.269531 673.855469 259.558594 C 673.914062 259.847656 673.941406 260.136719 673.941406 260.433594 Z M 673.941406 260.433594 "/><path style=" stroke:none;fill-rule:nonzero;fill:#bdcdd4;fill-opacity:1;" d="M 694.214844 285.65625 C 694.214844 286.15625 694.121094 286.636719 693.929688 287.101562 C 693.738281 287.5625 693.464844 287.96875 693.113281 288.324219 C 692.757812 288.675781 692.351562 288.949219 691.886719 289.140625 C 691.425781 289.332031 690.945312 289.429688 690.445312 289.429688 C 689.945312 289.429688 689.464844 289.332031 689.003906 289.140625 C 688.539062 288.949219 688.132812 288.675781 687.777344 288.324219 C 687.425781 287.96875 687.152344 287.5625 686.960938 287.101562 C 686.769531 286.636719 686.675781 286.15625 686.675781 285.65625 C 686.675781 285.15625 686.769531 284.675781 686.960938 284.214844 C 687.152344 283.75 687.425781 283.34375 687.777344 282.988281 C 688.132812 282.636719 688.539062 282.363281 689.003906 282.171875 C 689.464844 281.980469 689.945312 281.886719 690.445312 281.886719 C 690.945312 281.886719 691.425781 281.980469 691.886719 282.171875 C 692.351562 282.363281 692.757812 282.636719 693.113281 282.988281 C 693.464844 283.34375 693.738281 283.75 693.929688 284.214844 C 694.121094 284.675781 694.214844 285.15625 694.214844 285.65625 Z M 694.214844 285.65625 "/><path style=" stroke:none;fill-rule:nonzero;fill:#bdcdd4;fill-opacity:1;" d="M 715.4375 278.113281 C 715.4375 278.488281 715.363281 278.847656 715.222656 279.195312 C 715.078125 279.539062 714.875 279.847656 714.609375 280.109375 C 714.34375 280.375 714.039062 280.578125 713.695312 280.722656 C 713.347656 280.867188 712.988281 280.9375 712.613281 280.9375 C 712.238281 280.9375 711.878906 280.867188 711.53125 280.722656 C 711.1875 280.578125 710.882812 280.375 710.617188 280.109375 C 710.351562 279.847656 710.148438 279.539062 710.003906 279.195312 C 709.859375 278.847656 709.789062 278.488281 709.789062 278.113281 C 709.789062 277.738281 709.859375 277.378906 710.003906 277.03125 C 710.148438 276.6875 710.351562 276.382812 710.617188 276.117188 C 710.882812 275.851562 711.1875 275.648438 711.53125 275.503906 C 711.878906 275.363281 712.238281 275.289062 712.613281 275.289062 C 712.988281 275.289062 713.347656 275.363281 713.695312 275.503906 C 714.039062 275.648438 714.34375 275.851562 714.609375 276.117188 C 714.875 276.382812 715.078125 276.6875 715.222656 277.03125 C 715.363281 277.378906 715.4375 277.738281 715.4375 278.113281 Z M 715.4375 278.113281 "/><path style=" stroke:none;fill-rule:nonzero;fill:#bdcdd4;fill-opacity:1;" d="M 717.3125 264.429688 C 717.3125 264.742188 717.253906 265.042969 717.132812 265.332031 C 717.015625 265.617188 716.84375 265.875 716.625 266.09375 C 716.40625 266.3125 716.148438 266.484375 715.863281 266.601562 C 715.574219 266.722656 715.273438 266.78125 714.964844 266.78125 C 714.652344 266.78125 714.351562 266.722656 714.0625 266.601562 C 713.777344 266.484375 713.523438 266.3125 713.300781 266.09375 C 713.082031 265.875 712.910156 265.617188 712.792969 265.332031 C 712.671875 265.042969 712.613281 264.742188 712.613281 264.429688 C 712.613281 264.121094 712.671875 263.820312 712.792969 263.53125 C 712.910156 263.242188 713.082031 262.988281 713.300781 262.769531 C 713.523438 262.546875 713.777344 262.378906 714.0625 262.257812 C 714.351562 262.140625 714.652344 262.082031 714.964844 262.082031 C 715.273438 262.082031 715.574219 262.140625 715.863281 262.257812 C 716.148438 262.378906 716.40625 262.546875 716.625 262.769531 C 716.84375 262.988281 717.015625 263.242188 717.132812 263.53125 C 717.253906 263.820312 717.3125 264.121094 717.3125 264.429688 Z M 717.3125 264.429688 "/><path style=" stroke:none;fill-rule:nonzero;fill:#bdcdd4;fill-opacity:1;" d="M 732.394531 296.023438 C 732.394531 296.335938 732.335938 296.636719 732.214844 296.921875 C 732.097656 297.210938 731.925781 297.464844 731.707031 297.6875 C 731.488281 297.90625 731.234375 298.078125 730.945312 298.195312 C 730.65625 298.316406 730.355469 298.375 730.046875 298.375 C 729.734375 298.375 729.433594 298.316406 729.144531 298.195312 C 728.859375 298.078125 728.605469 297.90625 728.382812 297.6875 C 728.164062 297.464844 727.992188 297.210938 727.875 296.921875 C 727.753906 296.636719 727.695312 296.335938 727.695312 296.023438 C 727.695312 295.710938 727.753906 295.414062 727.875 295.125 C 727.992188 294.835938 728.164062 294.582031 728.382812 294.363281 C 728.605469 294.140625 728.859375 293.972656 729.144531 293.851562 C 729.433594 293.734375 729.734375 293.671875 730.046875 293.671875 C 730.355469 293.671875 730.65625 293.734375 730.945312 293.851562 C 731.234375 293.972656 731.488281 294.140625 731.707031 294.363281 C 731.925781 294.582031 732.097656 294.835938 732.214844 295.125 C 732.335938 295.414062 732.394531 295.710938 732.394531 296.023438 Z M 732.394531 296.023438 "/><path style=" stroke:none;fill-rule:nonzero;fill:#bdcdd4;fill-opacity:1;" d="M 754.089844 281.640625 C 754.089844 281.796875 754.058594 281.945312 754 282.089844 C 753.941406 282.234375 753.855469 282.359375 753.746094 282.472656 C 753.636719 282.582031 753.507812 282.664062 753.363281 282.726562 C 753.21875 282.785156 753.070312 282.816406 752.914062 282.816406 C 752.757812 282.816406 752.609375 282.785156 752.464844 282.726562 C 752.320312 282.664062 752.195312 282.582031 752.082031 282.472656 C 751.972656 282.359375 751.886719 282.234375 751.828125 282.089844 C 751.769531 281.945312 751.738281 281.796875 751.738281 281.640625 C 751.738281 281.484375 751.769531 281.335938 751.828125 281.191406 C 751.886719 281.046875 751.972656 280.917969 752.082031 280.808594 C 752.195312 280.699219 752.320312 280.613281 752.464844 280.554688 C 752.609375 280.496094 752.757812 280.464844 752.914062 280.464844 C 753.070312 280.464844 753.21875 280.496094 753.363281 280.554688 C 753.507812 280.613281 753.636719 280.699219 753.746094 280.808594 C 753.855469 280.917969 753.941406 281.046875 754 281.191406 C 754.058594 281.335938 754.089844 281.484375 754.089844 281.640625 Z M 754.089844 281.640625 "/><path style=" stroke:none;fill-rule:nonzero;fill:#bdcdd4;fill-opacity:1;" d="M 779.082031 222.71875 C 779.082031 223.125 779.003906 223.515625 778.847656 223.890625 C 778.691406 224.269531 778.46875 224.601562 778.183594 224.886719 C 777.894531 225.175781 777.5625 225.398438 777.1875 225.554688 C 776.808594 225.707031 776.417969 225.785156 776.011719 225.785156 C 775.605469 225.785156 775.214844 225.707031 774.835938 225.554688 C 774.460938 225.398438 774.128906 225.175781 773.839844 224.886719 C 773.554688 224.601562 773.332031 224.269531 773.175781 223.890625 C 773.019531 223.515625 772.941406 223.125 772.941406 222.71875 C 772.941406 222.308594 773.019531 221.917969 773.175781 221.542969 C 773.332031 221.167969 773.554688 220.835938 773.839844 220.546875 C 774.128906 220.257812 774.460938 220.035156 774.835938 219.882812 C 775.214844 219.726562 775.605469 219.648438 776.011719 219.648438 C 776.417969 219.648438 776.808594 219.726562 777.1875 219.882812 C 777.5625 220.035156 777.894531 220.257812 778.183594 220.546875 C 778.46875 220.835938 778.691406 221.167969 778.847656 221.542969 C 779.003906 221.917969 779.082031 222.308594 779.082031 222.71875 Z M 779.082031 222.71875 "/><path style=" stroke:none;fill-rule:nonzero;fill:#bdcdd4;fill-opacity:1;" d="M 742.761719 226.242188 C 742.761719 226.617188 742.6875 226.976562 742.546875 227.324219 C 742.402344 227.667969 742.199219 227.976562 741.933594 228.238281 C 741.667969 228.503906 741.363281 228.707031 741.015625 228.851562 C 740.671875 228.996094 740.3125 229.066406 739.9375 229.066406 C 739.5625 229.066406 739.203125 228.996094 738.855469 228.851562 C 738.511719 228.707031 738.203125 228.503906 737.941406 228.238281 C 737.675781 227.976562 737.472656 227.667969 737.328125 227.324219 C 737.183594 226.976562 737.113281 226.617188 737.113281 226.242188 C 737.113281 225.867188 737.183594 225.507812 737.328125 225.164062 C 737.472656 224.816406 737.675781 224.511719 737.941406 224.246094 C 738.203125 223.980469 738.511719 223.777344 738.855469 223.632812 C 739.203125 223.492188 739.5625 223.417969 739.9375 223.417969 C 740.3125 223.417969 740.671875 223.492188 741.015625 223.632812 C 741.363281 223.777344 741.667969 223.980469 741.933594 224.246094 C 742.199219 224.511719 742.402344 224.816406 742.546875 225.164062 C 742.6875 225.507812 742.761719 225.867188 742.761719 226.242188 Z M 742.761719 226.242188 "/><path style=" stroke:none;fill-rule:nonzero;fill:#bdcdd4;fill-opacity:1;" d="M 708.824219 231.664062 C 708.824219 231.855469 708.757812 232.023438 708.621094 232.160156 C 708.480469 232.296875 708.316406 232.363281 708.125 232.363281 C 707.929688 232.363281 707.765625 232.296875 707.628906 232.160156 C 707.492188 232.023438 707.421875 231.855469 707.421875 231.664062 C 707.421875 231.46875 707.492188 231.304688 707.628906 231.167969 C 707.765625 231.03125 707.929688 230.960938 708.125 230.960938 C 708.316406 230.960938 708.480469 231.03125 708.621094 231.167969 C 708.757812 231.304688 708.824219 231.46875 708.824219 231.664062 Z M 708.824219 231.664062 "/><path style=" stroke:none;fill-rule:nonzero;fill:#bdcdd4;fill-opacity:1;" d="M 766.332031 259.730469 C 766.332031 260.105469 766.257812 260.464844 766.117188 260.8125 C 765.972656 261.15625 765.769531 261.460938 765.503906 261.726562 C 765.238281 261.992188 764.933594 262.195312 764.585938 262.339844 C 764.242188 262.484375 763.882812 262.554688 763.507812 262.554688 C 763.132812 262.554688 762.773438 262.484375 762.425781 262.339844 C 762.082031 262.195312 761.777344 261.992188 761.511719 261.726562 C 761.246094 261.460938 761.042969 261.15625 760.898438 260.8125 C 760.753906 260.464844 760.683594 260.105469 760.683594 259.730469 C 760.683594 259.355469 760.753906 258.996094 760.898438 258.648438 C 761.042969 258.304688 761.246094 257.996094 761.511719 257.734375 C 761.777344 257.46875 762.082031 257.265625 762.425781 257.121094 C 762.773438 256.976562 763.132812 256.90625 763.507812 256.90625 C 763.882812 256.90625 764.242188 256.976562 764.585938 257.121094 C 764.933594 257.265625 765.238281 257.46875 765.503906 257.734375 C 765.769531 257.996094 765.972656 258.304688 766.117188 258.648438 C 766.257812 258.996094 766.332031 259.355469 766.332031 259.730469 Z M 766.332031 259.730469 "/><path style=" stroke:none;fill-rule:nonzero;fill:#bdcdd4;fill-opacity:1;" d="M 804.527344 307.339844 C 804.527344 307.527344 804.492188 307.707031 804.417969 307.882812 C 804.347656 308.054688 804.246094 308.210938 804.113281 308.34375 C 803.980469 308.476562 803.824219 308.578125 803.652344 308.652344 C 803.476562 308.722656 803.296875 308.757812 803.109375 308.757812 C 802.917969 308.757812 802.738281 308.722656 802.5625 308.652344 C 802.390625 308.578125 802.234375 308.476562 802.101562 308.34375 C 801.96875 308.210938 801.867188 308.054688 801.796875 307.882812 C 801.722656 307.707031 801.6875 307.527344 801.6875 307.339844 C 801.6875 307.148438 801.722656 306.96875 801.796875 306.792969 C 801.867188 306.621094 801.96875 306.46875 802.101562 306.332031 C 802.234375 306.199219 802.390625 306.097656 802.5625 306.027344 C 802.738281 305.953125 802.917969 305.917969 803.109375 305.917969 C 803.296875 305.917969 803.476562 305.953125 803.652344 306.027344 C 803.824219 306.097656 803.980469 306.199219 804.113281 306.332031 C 804.246094 306.46875 804.347656 306.621094 804.417969 306.792969 C 804.492188 306.96875 804.527344 307.148438 804.527344 307.339844 Z M 804.527344 307.339844 "/><path style=" stroke:none;fill-rule:nonzero;fill:#bdcdd4;fill-opacity:1;" d="M 829.5 298.847656 C 829.5 299.109375 829.410156 299.332031 829.222656 299.519531 C 829.039062 299.703125 828.816406 299.796875 828.554688 299.796875 C 828.292969 299.796875 828.070312 299.703125 827.886719 299.519531 C 827.699219 299.332031 827.609375 299.109375 827.609375 298.847656 C 827.609375 298.585938 827.699219 298.363281 827.886719 298.179688 C 828.070312 297.992188 828.292969 297.902344 828.554688 297.902344 C 828.816406 297.902344 829.039062 297.992188 829.222656 298.179688 C 829.410156 298.363281 829.5 298.585938 829.5 298.847656 Z M 829.5 298.847656 "/><path style=" stroke:none;fill-rule:nonzero;fill:#bdcdd4;fill-opacity:1;" d="M 845.53125 280.710938 C 845.53125 280.929688 845.488281 281.140625 845.40625 281.339844 C 845.320312 281.542969 845.203125 281.722656 845.046875 281.875 C 844.894531 282.03125 844.714844 282.148438 844.511719 282.234375 C 844.3125 282.316406 844.101562 282.359375 843.882812 282.359375 C 843.664062 282.359375 843.453125 282.316406 843.25 282.234375 C 843.050781 282.148438 842.871094 282.03125 842.71875 281.875 C 842.5625 281.722656 842.441406 281.542969 842.359375 281.339844 C 842.277344 281.140625 842.234375 280.929688 842.234375 280.710938 C 842.234375 280.492188 842.277344 280.28125 842.359375 280.078125 C 842.441406 279.878906 842.5625 279.699219 842.71875 279.542969 C 842.871094 279.390625 843.050781 279.269531 843.25 279.1875 C 843.453125 279.101562 843.664062 279.0625 843.882812 279.0625 C 844.101562 279.0625 844.3125 279.101562 844.511719 279.1875 C 844.714844 279.269531 844.894531 279.390625 845.046875 279.542969 C 845.203125 279.699219 845.320312 279.878906 845.40625 280.078125 C 845.488281 280.28125 845.53125 280.492188 845.53125 280.710938 Z M 845.53125 280.710938 "/><path style=" stroke:none;fill-rule:nonzero;fill:#bdcdd4;fill-opacity:1;" d="M 815.839844 266.324219 C 815.839844 266.515625 815.804688 266.695312 815.730469 266.871094 C 815.660156 267.042969 815.558594 267.199219 815.421875 267.332031 C 815.289062 267.464844 815.136719 267.566406 814.964844 267.636719 C 814.789062 267.710938 814.609375 267.746094 814.417969 267.746094 C 814.230469 267.746094 814.050781 267.710938 813.875 267.636719 C 813.703125 267.566406 813.546875 267.464844 813.414062 267.332031 C 813.28125 267.199219 813.179688 267.042969 813.105469 266.871094 C 813.035156 266.695312 813 266.515625 813 266.324219 C 813 266.136719 813.035156 265.957031 813.105469 265.78125 C 813.179688 265.609375 813.28125 265.453125 813.414062 265.320312 C 813.546875 265.1875 813.703125 265.085938 813.875 265.011719 C 814.050781 264.941406 814.230469 264.90625 814.417969 264.90625 C 814.609375 264.90625 814.789062 264.941406 814.964844 265.011719 C 815.136719 265.085938 815.289062 265.1875 815.421875 265.320312 C 815.558594 265.453125 815.660156 265.609375 815.730469 265.78125 C 815.804688 265.957031 815.839844 266.136719 815.839844 266.324219 Z M 815.839844 266.324219 "/><path style=" stroke:none;fill-rule:nonzero;fill:#bdcdd4;fill-opacity:1;" d="M 835.167969 228.367188 C 835.167969 228.585938 835.125 228.792969 835.039062 228.996094 C 834.957031 229.199219 834.839844 229.375 834.683594 229.53125 C 834.527344 229.6875 834.351562 229.804688 834.148438 229.890625 C 833.945312 229.972656 833.738281 230.015625 833.519531 230.015625 C 833.300781 230.015625 833.089844 229.972656 832.886719 229.890625 C 832.683594 229.804688 832.507812 229.6875 832.351562 229.53125 C 832.199219 229.375 832.078125 229.199219 831.996094 228.996094 C 831.910156 228.792969 831.871094 228.585938 831.871094 228.367188 C 831.871094 228.148438 831.910156 227.9375 831.996094 227.734375 C 832.078125 227.53125 832.199219 227.355469 832.351562 227.199219 C 832.507812 227.042969 832.683594 226.925781 832.886719 226.84375 C 833.089844 226.757812 833.300781 226.714844 833.519531 226.714844 C 833.738281 226.714844 833.945312 226.757812 834.148438 226.84375 C 834.351562 226.925781 834.527344 227.042969 834.683594 227.199219 C 834.839844 227.355469 834.957031 227.53125 835.039062 227.734375 C 835.125 227.9375 835.167969 228.148438 835.167969 228.367188 Z M 835.167969 228.367188 "/><path style=" stroke:none;fill-rule:nonzero;fill:#bdcdd4;fill-opacity:1;" d="M 812.070312 187.351562 C 812.070312 187.570312 812.027344 187.78125 811.945312 187.984375 C 811.859375 188.1875 811.742188 188.363281 811.585938 188.519531 C 811.433594 188.671875 811.253906 188.792969 811.050781 188.875 C 810.847656 188.960938 810.640625 189 810.421875 189 C 810.203125 189 809.992188 188.960938 809.789062 188.875 C 809.585938 188.792969 809.410156 188.671875 809.253906 188.519531 C 809.101562 188.363281 808.980469 188.1875 808.898438 187.984375 C 808.8125 187.78125 808.773438 187.570312 808.773438 187.351562 C 808.773438 187.132812 808.8125 186.925781 808.898438 186.722656 C 808.980469 186.519531 809.101562 186.339844 809.253906 186.1875 C 809.410156 186.03125 809.585938 185.914062 809.789062 185.828125 C 809.992188 185.746094 810.203125 185.703125 810.421875 185.703125 C 810.640625 185.703125 810.847656 185.746094 811.050781 185.828125 C 811.253906 185.914062 811.433594 186.03125 811.585938 186.1875 C 811.742188 186.339844 811.859375 186.519531 811.945312 186.722656 C 812.027344 186.925781 812.070312 187.132812 812.070312 187.351562 Z M 812.070312 187.351562 "/><path style=" stroke:none;fill-rule:nonzero;fill:#bdcdd4;fill-opacity:1;" d="M 782.832031 191.597656 C 782.832031 191.816406 782.792969 192.027344 782.707031 192.230469 C 782.625 192.429688 782.503906 192.609375 782.351562 192.765625 C 782.195312 192.917969 782.019531 193.039062 781.816406 193.121094 C 781.613281 193.203125 781.402344 193.246094 781.183594 193.246094 C 780.964844 193.246094 780.757812 193.203125 780.554688 193.121094 C 780.351562 193.039062 780.175781 192.917969 780.019531 192.765625 C 779.863281 192.609375 779.746094 192.429688 779.664062 192.230469 C 779.578125 192.027344 779.535156 191.816406 779.535156 191.597656 C 779.535156 191.378906 779.578125 191.167969 779.664062 190.96875 C 779.746094 190.765625 779.863281 190.585938 780.019531 190.433594 C 780.175781 190.277344 780.351562 190.160156 780.554688 190.074219 C 780.757812 189.992188 780.964844 189.949219 781.183594 189.949219 C 781.402344 189.949219 781.613281 189.992188 781.816406 190.074219 C 782.019531 190.160156 782.195312 190.277344 782.351562 190.433594 C 782.503906 190.585938 782.625 190.765625 782.707031 190.96875 C 782.792969 191.167969 782.832031 191.378906 782.832031 191.597656 Z M 782.832031 191.597656 "/><path style=" stroke:none;fill-rule:nonzero;fill:#bdcdd4;fill-opacity:1;" d="M 865.3125 205.507812 C 865.3125 205.820312 865.253906 206.121094 865.136719 206.40625 C 865.015625 206.695312 864.847656 206.949219 864.625 207.171875 C 864.40625 207.390625 864.152344 207.5625 863.863281 207.679688 C 863.574219 207.800781 863.273438 207.859375 862.964844 207.859375 C 862.652344 207.859375 862.351562 207.800781 862.0625 207.679688 C 861.777344 207.5625 861.523438 207.390625 861.300781 207.171875 C 861.082031 206.949219 860.910156 206.695312 860.792969 206.40625 C 860.671875 206.121094 860.613281 205.820312 860.613281 205.507812 C 860.613281 205.195312 860.671875 204.898438 860.792969 204.609375 C 860.910156 204.320312 861.082031 204.066406 861.300781 203.847656 C 861.523438 203.625 861.777344 203.457031 862.0625 203.335938 C 862.351562 203.21875 862.652344 203.15625 862.964844 203.15625 C 863.273438 203.15625 863.574219 203.21875 863.863281 203.335938 C 864.152344 203.457031 864.40625 203.625 864.625 203.847656 C 864.847656 204.066406 865.015625 204.320312 865.136719 204.609375 C 865.253906 204.898438 865.3125 205.195312 865.3125 205.507812 Z M 865.3125 205.507812 "/><path style=" stroke:none;fill-rule:nonzero;fill:#bdcdd4;fill-opacity:1;" d="M 887.027344 233.3125 C 887.027344 233.5625 886.976562 233.804688 886.882812 234.039062 C 886.785156 234.269531 886.648438 234.472656 886.46875 234.652344 C 886.292969 234.828125 886.089844 234.964844 885.855469 235.0625 C 885.625 235.160156 885.382812 235.207031 885.132812 235.207031 C 884.878906 235.207031 884.636719 235.160156 884.40625 235.0625 C 884.175781 234.964844 883.96875 234.828125 883.792969 234.652344 C 883.613281 234.472656 883.476562 234.269531 883.382812 234.039062 C 883.285156 233.804688 883.238281 233.5625 883.238281 233.3125 C 883.238281 233.0625 883.285156 232.820312 883.382812 232.585938 C 883.476562 232.355469 883.613281 232.148438 883.792969 231.972656 C 883.96875 231.796875 884.175781 231.65625 884.40625 231.5625 C 884.636719 231.464844 884.878906 231.417969 885.132812 231.417969 C 885.382812 231.417969 885.625 231.464844 885.855469 231.5625 C 886.089844 231.65625 886.292969 231.796875 886.46875 231.972656 C 886.648438 232.148438 886.785156 232.355469 886.882812 232.585938 C 886.976562 232.820312 887.027344 233.0625 887.027344 233.3125 Z M 887.027344 233.3125 "/><path style=" stroke:none;fill-rule:nonzero;fill:#bdcdd4;fill-opacity:1;" d="M 876.167969 267.027344 C 876.167969 267.183594 876.140625 267.332031 876.082031 267.476562 C 876.019531 267.621094 875.933594 267.75 875.824219 267.859375 C 875.714844 267.96875 875.589844 268.054688 875.445312 268.113281 C 875.300781 268.171875 875.148438 268.203125 874.996094 268.203125 C 874.839844 268.203125 874.6875 268.171875 874.542969 268.113281 C 874.402344 268.054688 874.273438 267.96875 874.164062 267.859375 C 874.054688 267.75 873.96875 267.621094 873.910156 267.476562 C 873.847656 267.332031 873.820312 267.183594 873.820312 267.027344 C 873.820312 266.871094 873.847656 266.722656 873.910156 266.578125 C 873.96875 266.433594 874.054688 266.308594 874.164062 266.195312 C 874.273438 266.085938 874.402344 266 874.542969 265.941406 C 874.6875 265.882812 874.839844 265.851562 874.996094 265.851562 C 875.148438 265.851562 875.300781 265.882812 875.445312 265.941406 C 875.589844 266 875.714844 266.085938 875.824219 266.195312 C 875.933594 266.308594 876.019531 266.433594 876.082031 266.578125 C 876.140625 266.722656 876.167969 266.871094 876.167969 267.027344 Z M 876.167969 267.027344 "/><path style=" stroke:none;fill-rule:nonzero;fill:#bdcdd4;fill-opacity:1;" d="M 926.132812 302.144531 C 926.132812 302.582031 926.050781 303.003906 925.882812 303.40625 C 925.714844 303.8125 925.476562 304.167969 925.167969 304.476562 C 924.859375 304.789062 924.503906 305.027344 924.097656 305.191406 C 923.695312 305.359375 923.273438 305.445312 922.835938 305.445312 C 922.398438 305.445312 921.980469 305.359375 921.574219 305.191406 C 921.171875 305.027344 920.816406 304.789062 920.507812 304.476562 C 920.195312 304.167969 919.957031 303.8125 919.792969 303.40625 C 919.625 303.003906 919.539062 302.582031 919.539062 302.144531 C 919.539062 301.707031 919.625 301.289062 919.792969 300.882812 C 919.957031 300.480469 920.195312 300.125 920.507812 299.8125 C 920.816406 299.503906 921.171875 299.265625 921.574219 299.097656 C 921.980469 298.933594 922.398438 298.847656 922.835938 298.847656 C 923.273438 298.847656 923.695312 298.933594 924.097656 299.097656 C 924.503906 299.265625 924.859375 299.503906 925.167969 299.8125 C 925.476562 300.125 925.714844 300.480469 925.882812 300.882812 C 926.050781 301.289062 926.132812 301.707031 926.132812 302.144531 Z M 926.132812 302.144531 "/><path style=" stroke:none;fill-rule:nonzero;fill:#bdcdd4;fill-opacity:1;" d="M 939.324219 284.007812 C 939.324219 284.203125 939.253906 284.367188 939.117188 284.503906 C 938.980469 284.640625 938.816406 284.710938 938.621094 284.710938 C 938.425781 284.710938 938.261719 284.640625 938.125 284.503906 C 937.988281 284.367188 937.917969 284.203125 937.917969 284.007812 C 937.917969 283.8125 937.988281 283.648438 938.125 283.511719 C 938.261719 283.375 938.425781 283.304688 938.621094 283.304688 C 938.816406 283.304688 938.980469 283.375 939.117188 283.511719 C 939.253906 283.648438 939.324219 283.8125 939.324219 284.007812 Z M 939.324219 284.007812 "/><path style=" stroke:none;fill-rule:nonzero;fill:#bdcdd4;fill-opacity:1;" d="M 918.121094 255.011719 C 918.121094 255.199219 918.082031 255.382812 918.011719 255.554688 C 917.941406 255.730469 917.835938 255.882812 917.703125 256.015625 C 917.570312 256.148438 917.417969 256.253906 917.242188 256.324219 C 917.070312 256.394531 916.886719 256.433594 916.699219 256.433594 C 916.511719 256.433594 916.328125 256.394531 916.15625 256.324219 C 915.980469 256.253906 915.828125 256.148438 915.695312 256.015625 C 915.5625 255.882812 915.457031 255.730469 915.386719 255.554688 C 915.316406 255.382812 915.277344 255.199219 915.277344 255.011719 C 915.277344 254.824219 915.316406 254.640625 915.386719 254.46875 C 915.457031 254.292969 915.5625 254.140625 915.695312 254.007812 C 915.828125 253.875 915.980469 253.769531 916.15625 253.699219 C 916.328125 253.625 916.511719 253.589844 916.699219 253.589844 C 916.886719 253.589844 917.070312 253.625 917.242188 253.699219 C 917.417969 253.769531 917.570312 253.875 917.703125 254.007812 C 917.835938 254.140625 917.941406 254.292969 918.011719 254.46875 C 918.082031 254.640625 918.121094 254.824219 918.121094 255.011719 Z M 918.121094 255.011719 "/><path style=" stroke:none;fill-rule:nonzero;fill:#bdcdd4;fill-opacity:1;" d="M 895.496094 285.65625 C 895.496094 285.90625 895.449219 286.148438 895.351562 286.382812 C 895.253906 286.613281 895.117188 286.820312 894.941406 286.996094 C 894.765625 287.175781 894.558594 287.3125 894.328125 287.40625 C 894.09375 287.503906 893.851562 287.550781 893.601562 287.550781 C 893.351562 287.550781 893.109375 287.503906 892.878906 287.40625 C 892.644531 287.3125 892.441406 287.175781 892.261719 286.996094 C 892.085938 286.820312 891.949219 286.613281 891.851562 286.382812 C 891.757812 286.148438 891.707031 285.90625 891.707031 285.65625 C 891.707031 285.40625 891.757812 285.164062 891.851562 284.933594 C 891.949219 284.699219 892.085938 284.496094 892.261719 284.316406 C 892.441406 284.140625 892.644531 284.003906 892.878906 283.90625 C 893.109375 283.808594 893.351562 283.761719 893.601562 283.761719 C 893.851562 283.761719 894.09375 283.808594 894.328125 283.90625 C 894.558594 284.003906 894.765625 284.140625 894.941406 284.316406 C 895.117188 284.496094 895.253906 284.699219 895.351562 284.933594 C 895.449219 285.164062 895.496094 285.40625 895.496094 285.65625 Z M 895.496094 285.65625 "/><path style=" stroke:none;fill-rule:evenodd;fill:#d1af90;fill-opacity:1;" d="M 617.472656 351.175781 C 615.367188 355.875 610.578125 371.855469 618.3125 409.730469 C 627.851562 456.515625 617.839844 413.0625 617.839844 478.949219 C 617.839844 544.835938 600.652344 614.546875 603.511719 632.6875 C 606.386719 650.839844 581.554688 659.417969 579.640625 675.664062 C 577.746094 691.890625 639.796875 663.242188 669.382812 660.382812 C 698.984375 657.523438 721.890625 662.296875 770.59375 665.15625 C 819.277344 668.015625 896.601562 661.332031 934.78125 655.613281 C 972.976562 649.875 989.199219 674.699219 1006.386719 676.609375 C 1023.574219 678.523438 993.023438 646.050781 987.289062 611.6875 C 981.570312 577.304688 975.835938 596.410156 980.605469 526.699219 C 985.394531 456.988281 969.15625 383.46875 975.835938 359.59375 C 976.589844 356.894531 977.730469 354.070312 979.132812 351.175781 Z M 617.472656 351.175781 "/><path style=" stroke:none;fill-rule:evenodd;fill:#bf9e80;fill-opacity:1;" d="M 617.472656 351.175781 C 616.714844 352.84375 615.628906 355.945312 614.894531 360.945312 C 618.417969 362.558594 615.4375 365.558594 624.925781 366.683594 C 637.09375 368.101562 688.882812 369.066406 708.457031 369.066406 C 728.027344 369.066406 817.296875 368.347656 833.519531 367.875 C 846.074219 367.507812 927.800781 373.699219 974.3125 371.226562 C 974.503906 366.59375 974.976562 362.683594 975.835938 359.59375 C 976.589844 356.894531 977.730469 354.070312 979.132812 351.175781 Z M 617.472656 351.175781 "/><path style=" stroke:none;fill-rule:evenodd;fill:#bf9e80;fill-opacity:1;" d="M 634.378906 351.175781 C 633.9375 354.859375 633.21875 359.070312 632.167969 363.894531 C 624.996094 396.34375 639.796875 396.820312 638.847656 445.53125 C 637.886719 494.226562 633.113281 504.734375 628.34375 539.101562 C 623.574219 573.480469 628.34375 608.8125 620.222656 626.003906 C 612.121094 643.191406 600.179688 663.71875 624.996094 657.980469 C 649.828125 652.261719 676.082031 646.527344 696.601562 649.402344 C 717.136719 652.261719 746.722656 656.085938 733.359375 649.875 C 719.996094 643.667969 621.664062 625.039062 647.441406 620.757812 C 673.222656 616.460938 675.117188 618.355469 693.742188 617.878906 C 712.351562 617.40625 704.246094 611.195312 688.5 611.671875 C 672.730469 612.160156 648.390625 620.757812 648.390625 604.039062 C 648.390625 587.324219 671.3125 604.988281 671.785156 588.289062 C 672.257812 571.570312 661.28125 542.925781 659.367188 517.628906 C 657.457031 492.316406 652.214844 481.808594 653.652344 459.847656 C 655.070312 437.882812 650.300781 398.730469 663.191406 384.417969 C 676.082031 370.085938 674.644531 367.226562 664.15625 361.980469 C 659.597656 359.699219 657.71875 355.789062 656.492188 351.175781 Z M 634.378906 351.175781 "/><path style=" stroke:none;fill-rule:evenodd;fill:#bf9e80;fill-opacity:1;" d="M 963.613281 351.175781 C 958.738281 379.347656 950.949219 441.394531 954.371094 481.335938 C 958.667969 531.453125 954.371094 455.074219 952.949219 474.652344 C 951.511719 494.210938 953.898438 540.046875 932.429688 548.167969 C 910.945312 556.292969 862.246094 563.921875 882.308594 564.886719 C 902.351562 565.832031 935.289062 554.851562 938.621094 564.886719 C 941.972656 574.902344 911.421875 591.148438 891.847656 591.621094 C 872.277344 592.09375 794.480469 604.511719 819.769531 605.460938 C 845.074219 606.425781 957.71875 584.9375 960.105469 595.445312 C 962.488281 605.933594 944.828125 613.582031 929.554688 615.019531 C 914.277344 616.441406 873.714844 620.265625 887.078125 622.652344 C 900.441406 625.039062 966.3125 615.019531 965.367188 623.125 C 964.402344 631.246094 912.859375 646.050781 899.96875 647.964844 C 887.078125 649.859375 912.386719 650.351562 942.445312 647.472656 C 972.523438 644.613281 975.871094 652.246094 983.027344 648.910156 C 990.183594 645.5625 973.484375 616.914062 972.046875 604.023438 C 970.609375 591.148438 961.070312 527.15625 962.015625 504.71875 C 962.980469 482.28125 961.070312 501.859375 962.015625 472.25 C 962.789062 448.601562 963.246094 386.835938 972.046875 351.175781 Z M 963.613281 351.175781 "/><path style=" stroke:none;fill-rule:nonzero;fill:#fefefe;fill-opacity:1;" d="M 698.914062 472.878906 C 700.84375 464.988281 706.210938 472.863281 719.417969 470.84375 C 734.972656 468.460938 684.816406 447.234375 687.21875 476.597656 C 688.042969 486.546875 725.941406 492.125 704.386719 495.5625 C 694.425781 497.140625 708.402344 489.71875 687.058594 494 C 691.058594 520.996094 750.355469 488.878906 703.773438 477.28125 C 700.863281 476.5625 698.722656 476.179688 698.917969 472.878906 Z M 749.566406 497.914062 C 761.226562 494.824219 765.367188 483.929688 766.242188 473.828125 C 767.136719 463.742188 764.804688 454.320312 763.488281 454.390625 C 744.039062 455.460938 760.542969 469.089844 753.914062 484.28125 C 749.496094 494.421875 738.796875 491.703125 738.777344 471.632812 C 738.761719 453.933594 742.460938 455.777344 727.78125 457.742188 C 727.730469 467.300781 726.257812 478.351562 728.203125 486.457031 C 730.167969 494.578125 735.675781 499.84375 749.566406 497.914062 Z M 771.890625 478.792969 C 783.359375 523.46875 838.691406 473.019531 809.226562 472.179688 C 784.65625 471.460938 786.199219 479.457031 802.25 479.652344 C 825.101562 480.300781 769.398438 499.808594 784.007812 468.898438 C 789.972656 456.269531 830.203125 476.582031 810.332031 458.460938 C 797.601562 446.867188 770.277344 453.003906 771.890625 478.792969 Z M 864.277344 498.050781 C 858.632812 482.757812 845.917969 430.183594 831.027344 467.390625 C 829.027344 472.425781 817.875 496.261719 821.90625 496.527344 C 846.757812 498.226562 814.839844 488.089844 850.703125 491.246094 C 852.386719 495.929688 858.019531 504.804688 864.734375 499.859375 C 864.558594 499.261719 864.402344 498.648438 864.277344 498.050781 Z M 837.339844 480.527344 C 843.828125 462.425781 841.007812 463.125 847.847656 482.914062 C 845.8125 482.757812 838.324219 482.617188 837.339844 480.527344 Z M 887.269531 480.300781 C 871.136719 477.792969 885.308594 461.460938 893.058594 472.792969 C 895.652344 476.597656 893.933594 481.421875 887.269531 480.300781 Z M 870.066406 481.949219 C 870.066406 503 865.996094 500.5625 881.0625 502.492188 C 881.308594 464.933594 883.605469 502.699219 899.390625 505.628906 C 916.628906 508.839844 888.148438 491.386719 898.898438 487.300781 C 927.695312 476.914062 870.171875 447.726562 870.101562 462.917969 C 870.066406 469.265625 870.066406 475.597656 870.066406 481.949219 Z M 870.066406 481.949219 "/><path style=" stroke:none;fill-rule:evenodd;fill:#d1af90;fill-opacity:1;" d="M 605.84375 280.992188 C 605.84375 280.992188 595.339844 343.054688 603.457031 348.773438 C 611.5625 354.507812 640.691406 358.332031 684.605469 356.421875 C 728.519531 354.507812 982.9375 362.15625 988.183594 354.980469 C 993.445312 347.824219 992.480469 277.640625 978.640625 273.816406 C 964.804688 269.992188 804.40625 283.375 769.085938 280.027344 C 733.761719 276.675781 608.230469 268.570312 605.84375 280.992188 Z M 605.84375 280.992188 "/></g></svg>