<svg xmlns="http://www.w3.org/2000/svg" xmlns:xlink="http://www.w3.org/1999/xlink" width="1920" zoomAndPan="magnify" viewBox="0 0 1440 809.999993" height="1080" preserveAspectRatio="xMidYMid meet" version="1.2"><defs><clipPath id="001de179a1"><path d="M 343 183 L 1098 183 L 1098 728.851562 L 343 728.851562 Z M 343 183 "/></clipPath></defs><g id="b9e4c045b2"><path style=" stroke:none;fill-rule:nonzero;fill:#95c4fa;fill-opacity:1;" d="M 750.480469 375.921875 L 753.507812 357.765625 L 764.726562 346.554688 L 877.277344 276.429688 L 927.496094 245.460938 L 973.085938 214.671875 L 996.589844 202.035156 L 1020.453125 194.203125 L 1040.042969 199.1875 L 1053.222656 211.648438 L 1058.917969 232.824219 L 1046.453125 251.691406 L 1024.550781 271.625 L 977.359375 295.296875 L 934.972656 320.925781 L 892.058594 352.25 L 844.332031 385.355469 L 804.261719 418.28125 L 787.699219 426.464844 L 762.414062 411.871094 L 752.972656 389.269531 Z M 750.480469 375.921875 "/><g clip-rule="nonzero" clip-path="url(#001de179a1)"><path style=" stroke:none;fill-rule:nonzero;fill:#545454;fill-opacity:1;" d="M 1085.097656 183.347656 C 1072.632812 182.101562 1061.058594 188.507812 1050.726562 194.203125 C 1049.304688 195.09375 1047.699219 195.804688 1046.277344 196.695312 C 1045.5625 197.050781 1044.671875 197.585938 1043.960938 197.941406 C 1042.535156 196.875 1041.113281 195.804688 1039.507812 194.917969 C 1033.808594 191.890625 1026.507812 191 1017.425781 192.425781 C 992.851562 196.164062 972.195312 210.578125 952.070312 224.460938 C 950.46875 225.707031 948.6875 226.773438 947.085938 228.019531 C 918.589844 247.777344 888.316406 265.753906 859.113281 283.195312 C 846.113281 291.023438 832.578125 299.035156 819.222656 307.222656 C 815.480469 309.535156 811.5625 311.847656 807.644531 314.164062 C 793.933594 322.527344 779.6875 331.070312 766.507812 340.679688 C 762.769531 343.351562 759.207031 346.199219 756 348.867188 C 754.222656 350.46875 752.085938 352.605469 750.304688 355.632812 C 750.304688 355.632812 750.304688 355.632812 750.304688 355.808594 C 750.125 355.988281 750.125 356.164062 749.945312 356.519531 C 747.277344 361.503906 745.496094 368.625 746.742188 378.589844 C 705.25 388.558594 664.644531 401.371094 625.113281 416.855469 C 623.863281 417.035156 622.617188 417.390625 621.371094 417.566406 C 608.90625 419.703125 565.988281 430.558594 521.113281 445.15625 C 482.289062 457.613281 431.890625 476.121094 411.414062 492.851562 C 379.714844 518.480469 346.769531 552.296875 343.5625 605.511719 C 342.671875 620.285156 344.097656 633.8125 347.660156 645.558594 C 351.578125 658.550781 359.054688 671.007812 369.742188 682.933594 C 373.835938 687.5625 378.644531 691.476562 383.988281 694.503906 C 386.480469 703.757812 391.289062 711.945312 398.054688 717.640625 C 406.78125 725.113281 418.890625 728.851562 434.027344 728.851562 C 439.195312 728.851562 444.714844 728.316406 450.769531 727.429688 C 524.140625 716.394531 580.234375 664.78125 614.605469 623.488281 C 642.917969 589.316406 666.425781 551.050781 689.222656 513.855469 C 694.207031 505.84375 699.195312 497.480469 704.359375 489.292969 C 725.726562 466.691406 746.917969 443.550781 767.222656 419.347656 C 770.605469 422.195312 774.167969 424.507812 778.085938 426.109375 C 781.46875 427.535156 784.851562 428.246094 787.878906 428.246094 C 799.453125 428.246094 808.890625 419.347656 817.441406 411.515625 C 820.644531 408.667969 823.496094 405.820312 826.523438 403.507812 C 840.769531 392.472656 859.644531 378.054688 879.054688 363.816406 C 920.726562 333.382812 956.167969 310.601562 990.714844 291.914062 C 993.207031 290.492188 995.699219 289.246094 998.195312 287.820312 C 1015.46875 278.566406 1033.453125 269.132812 1047.878906 255.074219 C 1053.222656 249.910156 1060.523438 241.726562 1061.234375 231.402344 C 1061.589844 227.488281 1060.878906 223.570312 1059.632812 220.191406 C 1071.5625 216.808594 1082.605469 211.113281 1091.863281 203.28125 C 1094.535156 201.144531 1097.5625 198.121094 1097.5625 193.671875 C 1097.386719 187.796875 1091.152344 183.882812 1085.097656 183.347656 Z M 1042.359375 208.265625 C 1042.714844 207.910156 1043.070312 207.554688 1043.425781 207.195312 C 1044.671875 208.621094 1045.742188 210.222656 1046.808594 211.824219 C 1047.523438 213.070312 1048.414062 214.316406 1049.125 215.5625 C 1045.5625 216.273438 1041.824219 216.628906 1038.261719 216.808594 C 1038.085938 216.808594 1038.085938 216.808594 1038.085938 216.808594 C 1037.90625 215.5625 1039.332031 212.179688 1042.359375 208.265625 Z M 677.46875 507.089844 C 656.277344 529.339844 634.371094 552.476562 613.359375 576.148438 C 543.90625 654.457031 462.34375 695.570312 417.644531 695.570312 C 407.140625 695.570312 397.878906 693.613281 389.863281 689.695312 C 389.152344 686.492188 388.796875 683.113281 388.796875 679.730469 C 388.796875 672.789062 390.042969 665.492188 392.714844 657.484375 C 397.699219 660.6875 403.933594 663 411.234375 663.890625 C 447.917969 669.230469 481.753906 646.804688 510.605469 625.269531 C 595.015625 562.441406 663.042969 499.082031 742.289062 421.128906 C 732.851562 433.40625 723.589844 445.511719 716.46875 456.367188 C 710.234375 465.800781 704.179688 475.410156 698.125 485.023438 C 691.359375 492.496094 684.414062 499.972656 677.46875 507.089844 Z M 627.25 423.617188 C 651.113281 419.347656 674.617188 412.226562 697.234375 405.109375 C 702.933594 403.328125 708.808594 401.550781 714.6875 399.769531 C 679.25 419.882812 646.660156 444.441406 617.632812 467.578125 C 609.796875 473.808594 572.933594 496.945312 562.960938 501.75 C 525.027344 519.371094 493.863281 535.210938 465.371094 556.035156 C 431.535156 580.773438 406.960938 609.25 392.179688 640.398438 C 391.46875 642 390.753906 643.421875 390.042969 645.023438 C 389.6875 644.3125 389.152344 643.601562 388.972656 642.886719 C 387.195312 638.972656 386.835938 634.34375 386.835938 630.429688 C 386.304688 600.886719 399.125 569.738281 422.988281 543.042969 C 445.605469 517.769531 475.167969 499.082031 501.167969 484.132812 C 541.769531 460.816406 583.796875 440.703125 627.25 423.617188 Z M 756.890625 414.363281 C 757.605469 413.296875 758.496094 412.40625 759.207031 411.339844 C 760.097656 412.40625 760.808594 413.472656 761.699219 414.542969 C 749.945312 428.425781 738.015625 442.128906 725.90625 455.476562 C 734.808594 442.664062 746.027344 428.425781 756.890625 414.363281 Z M 506.6875 619.75 C 479.082031 640.398438 446.671875 661.933594 412.660156 656.949219 C 408.917969 656.414062 401.441406 654.8125 395.742188 650.71875 C 396.632812 648.40625 397.699219 646.09375 398.945312 643.601562 C 413.195312 613.523438 437.234375 585.933594 470 561.910156 C 497.960938 541.441406 528.769531 525.601562 566.34375 508.335938 C 577.027344 503.351562 614.25 480.039062 622.617188 473.273438 C 659.125 444.085938 701.6875 412.585938 747.808594 391.050781 C 748.523438 390.871094 749.234375 390.691406 749.945312 390.515625 C 750.660156 393.183594 751.726562 396.03125 752.796875 399.058594 C 752.972656 399.59375 753.332031 400.304688 753.507812 400.835938 C 667.316406 485.734375 596.082031 553.1875 506.6875 619.75 Z M 758.671875 395.320312 C 757.960938 393.539062 757.25 391.40625 756.535156 388.914062 C 760.097656 388.203125 763.660156 387.488281 767.222656 386.777344 C 764.371094 389.625 761.523438 392.472656 758.671875 395.320312 Z M 374.90625 678.304688 C 364.933594 667.273438 357.988281 655.523438 354.425781 643.601562 C 351.042969 632.566406 349.796875 619.929688 350.507812 606.046875 C 352.289062 577.570312 361.371094 542.6875 416.042969 498.191406 C 443.46875 475.765625 532.332031 447.824219 585.398438 433.585938 C 555.480469 446.933594 526.097656 461.882812 497.425781 478.257812 C 470.890625 493.566406 440.796875 512.609375 417.644531 538.59375 C 392.535156 566.714844 379.179688 599.285156 379.714844 630.785156 C 379.714844 635.414062 380.25 640.929688 382.5625 646.09375 C 383.632812 648.582031 385.234375 650.898438 387.195312 652.855469 C 383.632812 662.464844 382.027344 671.542969 382.027344 679.90625 C 382.027344 681.6875 382.027344 683.289062 382.207031 685.070312 C 379.535156 682.933594 377.222656 680.796875 374.90625 678.304688 Z M 608.726562 619.039062 C 575.25 659.441406 520.398438 709.808594 449.34375 720.488281 C 428.332031 723.691406 412.480469 720.84375 402.332031 712.300781 C 398.234375 708.742188 394.851562 704.113281 392.535156 698.773438 C 400.015625 701.445312 408.207031 702.867188 417.289062 702.867188 C 417.289062 702.867188 417.46875 702.867188 417.46875 702.867188 C 478.550781 702.6875 564.742188 641.464844 618.34375 580.953125 C 638.289062 558.347656 659.304688 536.277344 679.605469 514.921875 C 658.234375 550.339844 635.617188 586.824219 608.726562 619.039062 Z M 780.578125 419.882812 C 777.371094 418.457031 774.34375 416.5 771.496094 414.1875 C 777.195312 407.246094 782.890625 400.304688 788.234375 393.363281 C 789.480469 391.761719 789.125 389.625 787.523438 388.378906 C 785.917969 387.132812 783.78125 387.488281 782.535156 389.089844 C 777.195312 395.855469 771.851562 402.617188 766.332031 409.203125 C 765.441406 408.136719 764.550781 406.890625 763.660156 405.644531 C 769.714844 397.988281 775.234375 390.691406 780.222656 383.929688 C 780.222656 383.929688 780.398438 383.75 780.398438 383.75 C 780.398438 383.574219 780.578125 383.574219 780.578125 383.394531 C 780.578125 383.21875 780.753906 383.21875 780.753906 383.039062 C 780.753906 382.863281 780.753906 382.863281 780.933594 382.683594 C 780.933594 382.507812 780.933594 382.328125 781.113281 382.148438 C 781.113281 382.148438 781.113281 382.148438 781.113281 381.972656 C 781.113281 381.792969 781.113281 381.4375 781.113281 381.261719 C 781.113281 381.261719 781.113281 381.082031 781.113281 381.082031 C 781.113281 380.902344 781.113281 380.726562 780.933594 380.546875 C 780.933594 380.546875 780.933594 380.371094 780.933594 380.371094 C 780.933594 380.191406 780.753906 380.015625 780.753906 380.015625 C 780.753906 380.015625 780.753906 379.835938 780.578125 379.835938 C 780.578125 379.660156 780.398438 379.660156 780.222656 379.480469 C 780.222656 379.480469 780.042969 379.300781 780.042969 379.300781 C 780.042969 379.300781 779.863281 379.125 779.863281 379.125 C 779.6875 378.945312 779.332031 378.769531 778.972656 378.589844 C 778.972656 378.589844 778.796875 378.589844 778.796875 378.414062 C 778.441406 378.234375 778.085938 378.234375 777.90625 378.234375 C 778.617188 377.34375 778.796875 376.277344 778.617188 375.03125 C 778.082031 373.25 776.304688 372.183594 774.523438 372.539062 C 767.753906 373.964844 761.167969 375.386719 754.578125 376.988281 C 753.863281 370.9375 754.398438 364.707031 757.070312 359.726562 C 759.386719 356.164062 765.796875 355.273438 770.425781 356.34375 C 775.589844 357.589844 780.222656 360.792969 784.496094 363.996094 C 789.480469 367.734375 795 372.183594 797.671875 378.234375 C 799.632812 382.683594 800.167969 387.667969 800.699219 392.652344 C 801.414062 398.523438 801.945312 404.574219 802.480469 410.449219 C 802.660156 412.761719 801.414062 416.320312 797.140625 418.992188 C 791.796875 421.484375 786.453125 422.375 780.578125 419.882812 Z M 1053.933594 231.222656 C 1053.578125 237.277344 1050.015625 243.328125 1042.714844 250.269531 C 1029 263.4375 1011.550781 272.691406 994.632812 281.769531 C 992.140625 283.195312 989.644531 284.441406 987.152344 285.863281 C 952.425781 304.730469 916.632812 327.6875 874.78125 358.300781 C 855.371094 372.539062 836.316406 386.957031 822.070312 397.988281 C 818.863281 400.480469 815.660156 403.507812 812.453125 406.355469 C 811.386719 407.421875 810.316406 408.3125 809.25 409.378906 C 808.714844 403.507812 808 397.457031 807.46875 391.582031 C 806.933594 386.242188 806.222656 380.371094 803.726562 374.851562 C 800.34375 367.554688 794.113281 362.214844 788.414062 357.945312 C 783.605469 354.386719 778.261719 350.824219 771.851562 349.222656 C 770.605469 348.867188 769.359375 348.691406 768.113281 348.691406 C 769.179688 347.976562 770.25 347.089844 771.140625 346.375 C 783.960938 336.945312 798.027344 328.402344 811.742188 320.214844 C 815.660156 317.898438 819.578125 315.585938 823.316406 313.09375 C 836.496094 305.085938 850.027344 296.898438 863.027344 289.246094 C 892.414062 271.804688 922.6875 253.648438 951.359375 233.894531 C 952.960938 232.824219 954.742188 231.582031 956.34375 230.335938 C 975.753906 216.808594 995.699219 202.925781 1018.671875 199.367188 C 1026.152344 198.296875 1032.027344 198.832031 1036.304688 201.144531 C 1037.015625 201.5 1037.550781 201.859375 1038.085938 202.214844 C 1037.550781 202.746094 1037.195312 203.28125 1036.660156 203.816406 C 1034.167969 207.019531 1030.25 213.070312 1030.960938 217.875 C 1031.316406 219.832031 1032.207031 221.433594 1033.808594 222.503906 C 1035.234375 223.394531 1036.660156 223.570312 1037.726562 223.570312 C 1038.085938 223.570312 1038.261719 223.570312 1038.441406 223.570312 C 1043.070312 223.394531 1047.699219 222.859375 1052.332031 221.96875 C 1053.578125 224.996094 1054.113281 228.199219 1053.933594 231.222656 Z M 1087.058594 198.121094 C 1078.152344 205.59375 1067.644531 210.933594 1056.425781 213.960938 C 1055.179688 211.824219 1053.933594 209.6875 1052.6875 207.910156 C 1051.617188 206.308594 1050.550781 204.707031 1049.304688 203.28125 C 1049.480469 203.105469 1049.660156 203.105469 1049.835938 202.925781 C 1051.261719 202.214844 1052.863281 201.324219 1054.46875 200.433594 C 1063.371094 195.449219 1072.632812 190.289062 1082.070312 190.289062 C 1082.960938 190.289062 1083.671875 190.289062 1084.5625 190.46875 C 1087.414062 190.824219 1090.441406 192.246094 1090.441406 194.027344 C 1090.261719 195.273438 1088.480469 197.050781 1087.058594 198.121094 Z M 1087.058594 198.121094 "/></g></g></svg>