<svg xmlns="http://www.w3.org/2000/svg" xmlns:xlink="http://www.w3.org/1999/xlink" width="1920" zoomAndPan="magnify" viewBox="0 0 1440 809.999993" height="1080" preserveAspectRatio="xMidYMid meet" version="1.2"><defs><clipPath id="34500f8ddd"><path d="M 486.621094 237.417969 L 1214.402344 237.417969 L 1214.402344 728.664062 L 486.621094 728.664062 Z M 486.621094 237.417969 "/></clipPath><clipPath id="2acecfb47c"><path d="M 763.371094 629.652344 L 972 629.652344 L 972 728.664062 L 763.371094 728.664062 Z M 763.371094 629.652344 "/></clipPath><clipPath id="caadeed1ca"><path d="M 740 290 L 1214.402344 290 L 1214.402344 673 L 740 673 Z M 740 290 "/></clipPath><clipPath id="c1fe0c4d8b"><path d="M 486.621094 237.417969 L 1214.402344 237.417969 L 1214.402344 348.441406 L 486.621094 348.441406 Z M 486.621094 237.417969 "/></clipPath></defs><g id="4932b767d4"><g clip-rule="nonzero" clip-path="url(#34500f8ddd)"><path style=" stroke:none;fill-rule:nonzero;fill:#8e5630;fill-opacity:1;" d="M 1214.226562 297.402344 L 1214.226562 290.089844 C 1214.226562 290.453125 1214.175781 290.816406 1214.085938 291.175781 C 1208.71875 261.347656 1048.007812 237.417969 850.527344 237.417969 C 653.027344 237.417969 492.300781 261.355469 486.972656 291.1875 C 486.878906 290.820312 486.832031 290.457031 486.832031 290.089844 L 486.832031 297.402344 C 486.832031 297.402344 472.871094 548.417969 673.671875 639.339844 C 683.648438 643.855469 694.152344 647.988281 705.207031 651.667969 C 695.882812 668.589844 697.652344 688.460938 697.652344 688.460938 C 697.652344 688.460938 697.730469 688.519531 697.851562 688.609375 C 700.015625 690.21875 722.054688 706.777344 763.570312 718.105469 C 809.425781 730.621094 879.046875 736.757812 971.953125 709.308594 C 986.875 704.898438 1002.398438 699.625 1018.515625 693.375 C 1018.515625 693.375 1021.164062 672.113281 1008.824219 651.65625 C 1008.6875 651.425781 1008.550781 651.195312 1008.40625 650.964844 C 1008.386719 650.925781 1008.359375 650.886719 1008.339844 650.851562 C 1007.941406 650.203125 1007.515625 649.546875 1007.0625 648.898438 C 1006.613281 648.25 1006.164062 647.589844 1005.699219 646.921875 C 1046.914062 631.808594 1084.660156 609.625 1114.910156 579.042969 C 1223.164062 469.613281 1214.226562 297.402344 1214.226562 297.402344 "/></g><path style=" stroke:none;fill-rule:nonzero;fill:#e09b68;fill-opacity:1;" d="M 805.828125 635.328125 C 807.222656 633.78125 808.691406 632.324219 810.195312 630.910156 L 727.792969 631.828125 C 727.792969 631.828125 727.601562 631.902344 727.285156 632.035156 C 693.800781 645.3125 697.652344 688.460938 697.652344 688.460938 C 697.652344 688.460938 697.730469 688.519531 697.851562 688.609375 C 700.015625 690.21875 722.054688 706.777344 763.570312 718.105469 C 769.792969 687.300781 783.539062 658.542969 805.828125 635.328125 "/><g clip-rule="nonzero" clip-path="url(#2acecfb47c)"><path style=" stroke:none;fill-rule:nonzero;fill:#cc8952;fill-opacity:1;" d="M 971.953125 709.308594 C 957.140625 679.953125 934.449219 653.140625 910.550781 629.789062 L 810.195312 630.910156 C 808.691406 632.324219 807.222656 633.78125 805.828125 635.328125 C 783.539062 658.542969 769.792969 687.300781 763.570312 718.105469 C 809.425781 730.621094 879.046875 736.757812 971.953125 709.308594 "/></g><path style=" stroke:none;fill-rule:nonzero;fill:#a5683f;fill-opacity:1;" d="M 1008.824219 651.65625 C 1008.6875 651.425781 1008.550781 651.195312 1008.40625 650.964844 C 1008.386719 650.925781 1008.359375 650.886719 1008.339844 650.851562 C 1007.941406 650.203125 1007.515625 649.546875 1007.0625 648.898438 C 1002.617188 642.476562 997.800781 634.796875 986.566406 630.246094 C 984.636719 629.375 983.441406 628.976562 983.441406 628.976562 L 910.550781 629.789062 C 934.449219 653.140625 957.140625 679.953125 971.953125 709.308594 C 986.875 704.898438 1002.398438 699.625 1018.515625 693.375 C 1018.515625 693.375 1021.164062 672.113281 1008.824219 651.65625 "/><path style=" stroke:none;fill-rule:nonzero;fill:#e09b68;fill-opacity:1;" d="M 841.875 373.558594 C 843.210938 359.144531 844.414062 344.515625 845.238281 329.792969 C 646.8125 329.484375 486.832031 311.828125 486.832031 290.089844 L 486.832031 297.402344 C 486.832031 297.402344 472.871094 548.417969 673.671875 639.339844 C 678.847656 636.378906 684 633.308594 689.097656 630.03125 C 773.210938 574.9375 831.574219 478.046875 841.875 373.558594 "/><path style=" stroke:none;fill-rule:nonzero;fill:#cc8952;fill-opacity:1;" d="M 850.527344 329.800781 C 848.757812 329.800781 846.996094 329.796875 845.238281 329.792969 C 844.414062 344.515625 843.210938 359.144531 841.875 373.558594 C 831.574219 478.046875 773.210938 574.9375 689.097656 630.03125 C 684 633.308594 678.847656 636.378906 673.671875 639.339844 C 686.339844 645.074219 699.828125 650.191406 714.257812 654.550781 C 714.03125 654.945312 713.910156 655.179688 713.910156 655.179688 C 714.902344 656.101562 724.589844 658.125 733.777344 659.878906 C 736.027344 660.429688 738.308594 660.953125 740.597656 661.46875 C 822.347656 645.664062 898.222656 606.699219 956.886719 531.246094 C 1002.933594 472.851562 1043.609375 399.625 1060.660156 322.507812 C 1001.316406 327.097656 928.8125 329.800781 850.527344 329.800781 "/><g clip-rule="nonzero" clip-path="url(#caadeed1ca)"><path style=" stroke:none;fill-rule:nonzero;fill:#a5683f;fill-opacity:1;" d="M 1214.226562 297.402344 L 1214.226562 290.089844 C 1214.226562 303.472656 1153.578125 315.3125 1060.660156 322.507812 C 1043.609375 399.625 1002.933594 472.851562 956.886719 531.246094 C 898.222656 606.699219 822.347656 645.664062 740.597656 661.46875 C 761.050781 666.097656 783.132812 669.433594 807.007812 671.230469 C 852.117188 674.941406 900.214844 672.886719 946.496094 663.519531 C 947.179688 663.664062 947.839844 663.828125 948.53125 663.972656 L 961.136719 660.296875 C 1019.460938 646.382812 1074.027344 620.375 1114.910156 579.042969 C 1223.164062 469.613281 1214.226562 297.402344 1214.226562 297.402344 "/></g><g clip-rule="nonzero" clip-path="url(#c1fe0c4d8b)"><path style=" stroke:none;fill-rule:nonzero;fill:#eaa475;fill-opacity:1;" d="M 850.527344 237.417969 C 649.664062 237.417969 486.832031 262.175781 486.832031 292.714844 C 486.832031 323.257812 649.664062 348.011719 850.527344 348.011719 C 1051.390625 348.011719 1214.226562 323.257812 1214.226562 292.714844 C 1214.226562 262.175781 1051.390625 237.417969 850.527344 237.417969 "/></g><path style=" stroke:none;fill-rule:nonzero;fill:#a5683f;fill-opacity:1;" d="M 850.898438 245.179688 C 650.035156 245.179688 498.597656 268.15625 498.597656 290.089844 C 498.597656 312.019531 649.664062 329.800781 850.527344 329.800781 C 1051.390625 329.800781 1203.199219 312.023438 1203.199219 290.089844 C 1203.199219 268.15625 1051.761719 245.179688 850.898438 245.179688 "/><path style=" stroke:none;fill-rule:nonzero;fill:#8e5630;fill-opacity:1;" d="M 1154.320312 310.535156 C 1094.058594 297.457031 986.636719 273.3125 854.328125 273.3125 C 721.953125 273.3125 607.621094 297.46875 547.382812 310.554688 C 607.535156 322.085938 718.226562 329.800781 850.527344 329.800781 C 982.910156 329.800781 1093.96875 322.078125 1154.320312 310.535156 "/></g></svg>