<svg xmlns="http://www.w3.org/2000/svg" xmlns:xlink="http://www.w3.org/1999/xlink" width="1920" zoomAndPan="magnify" viewBox="0 0 1440 809.999993" height="1080" preserveAspectRatio="xMidYMid meet" version="1.2"><defs><clipPath id="1f5648d5bb"><path d="M 574.171875 268.269531 L 949.132812 268.269531 L 949.132812 665.707031 L 574.171875 665.707031 Z M 574.171875 268.269531 "/></clipPath><clipPath id="fe532f9089"><path d="M 604 466 L 804 466 L 804 578 L 604 578 Z M 604 466 "/></clipPath><clipPath id="1799ccd3ca"><path d="M 712.886719 577.566406 C 677.789062 577.566406 638.8125 571.972656 604.105469 564.160156 C 616.832031 553.839844 619.582031 531.355469 619.582031 513.839844 C 619.582031 500.480469 617.976562 490.007812 617.976562 490.007812 C 617.976562 490.007812 617.300781 479.144531 616.988281 466.65625 C 637.34375 471.890625 666.097656 479.691406 694.949219 488.871094 L 675.351562 489.238281 C 673.464844 489.273438 671.953125 490.816406 671.953125 492.703125 L 671.953125 514.609375 C 671.707031 515.085938 671.566406 515.628906 671.566406 516.203125 C 671.566406 516.777344 671.707031 517.316406 671.953125 517.789062 L 671.953125 540.46875 C 671.953125 542.382812 673.503906 543.9375 675.417969 543.9375 C 677.332031 543.9375 678.882812 542.382812 678.882812 540.46875 L 678.882812 519.667969 L 689.660156 519.667969 C 691.574219 519.667969 693.125 518.117188 693.125 516.203125 C 693.125 514.289062 691.574219 512.734375 689.660156 512.734375 L 678.882812 512.734375 L 678.882812 496.109375 L 695.886719 495.785156 C 697.800781 495.75 699.320312 494.167969 699.285156 492.253906 C 699.269531 491.367188 698.917969 490.5625 698.355469 489.957031 C 701.238281 490.882812 704.121094 491.828125 706.984375 492.78125 L 706.984375 540.082031 C 706.984375 541.996094 708.539062 543.550781 710.453125 543.550781 L 732.777344 543.550781 C 734.691406 543.550781 736.242188 541.996094 736.242188 540.082031 C 736.242188 538.171875 734.691406 536.617188 732.777344 536.617188 L 713.917969 536.617188 L 713.917969 495.113281 C 722.324219 497.976562 730.589844 500.949219 738.488281 503.980469 C 737.71875 507.523438 737.304688 511.382812 737.304688 515.429688 C 737.304688 519.214844 737.667969 522.839844 738.34375 526.1875 C 739.367188 531.210938 741.039062 535.621094 743.5 539.136719 C 744.742188 540.886719 746.195312 542.429688 748.003906 543.617188 C 748.902344 544.203125 749.894531 544.695312 750.964844 545.039062 C 752.03125 545.382812 753.171875 545.566406 754.328125 545.566406 C 754.328125 545.566406 754.332031 545.566406 754.335938 545.566406 C 754.339844 545.566406 754.347656 545.566406 754.351562 545.566406 C 755.898438 545.566406 757.40625 545.230469 758.753906 544.648438 C 761.128906 543.617188 763.003906 541.941406 764.535156 539.996094 C 766.824219 537.054688 768.457031 533.402344 769.605469 529.242188 C 770.527344 525.863281 771.113281 522.136719 771.300781 518.195312 C 773.730469 519.417969 776.0625 520.640625 778.277344 521.867188 C 779 530.328125 780.679688 536.8125 784.511719 540.453125 C 786.691406 542.523438 789.398438 543.570312 792.566406 543.570312 C 792.84375 543.570312 793.128906 543.5625 793.417969 543.546875 C 796.707031 543.359375 799.472656 542.347656 801.699219 540.527344 C 803.128906 542.855469 803.886719 545.152344 803.890625 547.410156 C 803.890625 551.414062 801.503906 555.289062 796.222656 558.960938 C 776.925781 572.367188 746.707031 577.566406 712.886719 577.566406 M 754.335938 535.371094 C 754.238281 535.367188 754.144531 535.359375 753.941406 535.273438 C 753.769531 535.199219 753.515625 535.054688 753.207031 534.800781 C 752.671875 534.359375 751.964844 533.558594 751.285156 532.410156 C 750.25 530.699219 749.273438 528.238281 748.589844 525.320312 C 747.898438 522.402344 747.5 519.023438 747.503906 515.429688 C 747.5 512.730469 747.726562 510.152344 748.128906 507.792969 C 752.636719 509.632812 756.984375 511.492188 761.128906 513.363281 C 761.15625 514.042969 761.171875 514.734375 761.171875 515.429688 C 761.171875 518.558594 760.871094 521.523438 760.335938 524.167969 C 759.546875 528.128906 758.191406 531.367188 756.84375 533.25 C 756.179688 534.199219 755.539062 534.789062 755.101562 535.070312 C 754.882812 535.214844 754.714844 535.285156 754.601562 535.320312 C 754.480469 535.363281 754.414062 535.367188 754.335938 535.371094 "/></clipPath></defs><g id="c56f458e9c"><g clip-rule="nonzero" clip-path="url(#1f5648d5bb)"><path style=" stroke:none;fill-rule:nonzero;fill:#e0bd95;fill-opacity:1;" d="M 946.742188 647.167969 C 928.265625 669.507812 636.457031 688 574.863281 600.175781 C 574.863281 600.175781 572.183594 592.425781 577.378906 583.605469 C 580.546875 578.242188 586.613281 572.476562 597.957031 567.816406 C 600.234375 566.886719 602.269531 565.65625 604.105469 564.160156 C 626.53125 545.96875 617.976562 490.007812 617.976562 490.007812 C 617.976562 490.007812 617.300781 479.144531 616.988281 466.65625 C 616.617188 452.542969 616.707031 436.363281 618.75 431.460938 C 619.179688 430.433594 618.855469 428.4375 617.984375 425.632812 C 615.84375 418.730469 610.386719 406.925781 604.714844 392.71875 C 591.964844 360.847656 578.074219 316.882812 597.957031 288.933594 C 630.296875 243.480469 811.234375 288.164062 855.121094 297.410156 C 899.007812 306.652344 909.789062 312.046875 912.867188 330.535156 C 915.945312 349.023438 928.265625 365.972656 893.621094 402.953125 C 893.621094 402.953125 893.6875 403.207031 893.796875 403.695312 C 894.9375 408.664062 900.640625 438.125 885.917969 474.597656 C 869.75 514.660156 965.222656 624.828125 946.742188 647.167969 "/><path style=" stroke:none;fill-rule:nonzero;fill:#d4b48d;fill-opacity:1;" d="M 946.742188 647.167969 C 928.265625 669.507812 636.457031 688 574.863281 600.175781 C 574.863281 600.175781 572.183594 592.425781 577.378906 583.605469 C 621.5 607.054688 700.542969 651.640625 796.222656 633.691406 C 907.089844 612.886719 877.835938 481.148438 837.800781 466.511719 C 816.519531 458.730469 680.019531 433.8125 617.984375 425.632812 C 615.84375 418.730469 610.386719 406.925781 604.714844 392.71875 C 591.964844 360.847656 578.074219 316.882812 597.957031 288.933594 C 630.296875 243.480469 811.234375 288.164062 855.121094 297.410156 C 899.007812 306.652344 909.789062 312.046875 912.867188 330.535156 C 915.945312 349.023438 928.265625 365.972656 893.621094 402.953125 C 893.621094 402.953125 893.6875 403.207031 893.796875 403.695312 C 894.9375 408.664062 900.640625 438.125 885.917969 474.597656 C 869.75 514.660156 965.222656 624.828125 946.742188 647.167969 "/></g><path style=" stroke:none;fill-rule:nonzero;fill:#c2a581;fill-opacity:1;" d="M 893.796875 403.695312 C 894.148438 405.234375 894.941406 409.125 895.425781 414.855469 C 894.84375 415.5 894.234375 416.15625 893.621094 416.820312 C 893.621094 416.820312 717.0625 423 639.816406 412.722656 C 626.363281 410.933594 614.328125 404.4375 605.5625 394.832031 C 605.28125 394.140625 604.996094 393.433594 604.714844 392.71875 C 597.421875 374.496094 589.75 352.316406 588.25 331.4375 C 589.089844 320.957031 592.019531 311.160156 597.957031 302.800781 C 630.296875 257.347656 811.234375 302.03125 855.121094 311.273438 C 899.007812 320.519531 909.789062 325.914062 912.867188 344.402344 C 913.898438 350.609375 915.980469 356.644531 916.960938 363.316406 C 915.261719 373.792969 909.171875 386.359375 893.621094 402.953125 C 893.621094 402.953125 893.6875 403.207031 893.796875 403.695312 "/><path style=" stroke:none;fill-rule:nonzero;fill:#e6c399;fill-opacity:1;" d="M 893.621094 402.953125 C 893.621094 402.953125 717.058594 409.128906 639.8125 398.859375 C 617.105469 395.835938 598.445312 379.425781 592.714844 357.238281 C 586.429688 332.882812 584.8125 307.40625 597.957031 288.933594 C 630.296875 243.480469 811.234375 288.164062 855.121094 297.410156 C 899.007812 306.652344 909.789062 312.046875 912.867188 330.535156 C 915.945312 349.023438 928.265625 365.972656 893.621094 402.953125 "/><path style=" stroke:none;fill-rule:nonzero;fill:#fcf5e8;fill-opacity:1;" d="M 883.886719 334.566406 C 882.890625 337.109375 878.335938 337.316406 874.933594 339.101562 C 872.441406 340.414062 870.535156 344.386719 867.132812 345.347656 C 864.242188 346.171875 860.402344 343.871094 857.089844 344.472656 C 854.042969 345.027344 851.316406 348.550781 848.074219 348.9375 C 846.140625 349.179688 844.074219 348.230469 842.023438 347.539062 C 841.597656 347.390625 841.183594 347.253906 840.773438 347.144531 C 839.910156 346.90625 839.0625 346.765625 838.230469 346.835938 C 836.367188 346.988281 834.574219 348.148438 832.792969 349.132812 C 831.492188 349.859375 830.1875 350.480469 828.871094 350.542969 C 826.746094 350.652344 824.625 349.496094 822.582031 348.65625 C 822.175781 348.484375 821.765625 348.328125 821.355469 348.199219 C 820.621094 347.960938 819.898438 347.816406 819.1875 347.832031 C 815.625 347.925781 812.421875 351.042969 809.65625 351.050781 C 803.789062 351.066406 804.898438 347.984375 800.109375 347.867188 C 792.402344 347.71875 784.828125 350.59375 777.542969 350.347656 C 773.683594 350.21875 769.914062 349.308594 766.207031 348.386719 C 765.777344 348.277344 765.34375 348.171875 764.914062 348.0625 C 762.183594 347.367188 759.472656 346.722656 756.777344 346.433594 C 756.257812 346.382812 755.738281 346.335938 755.21875 346.3125 C 753.589844 346.226562 751.957031 346.277344 750.339844 346.394531 C 749.710938 346.441406 749.078125 346.507812 748.445312 346.574219 C 743.011719 347.160156 737.675781 348.347656 732.589844 347.960938 C 724.785156 347.367188 717.609375 343.617188 710.496094 342.839844 C 702.640625 341.984375 694.804688 344.070312 687.808594 342.96875 C 679.890625 341.730469 673.113281 337.308594 666.324219 335.734375 C 658.339844 333.886719 650.261719 334.738281 643.890625 332.382812 C 635.929688 329.441406 630.660156 323.394531 625.300781 319.589844 C 618.371094 314.671875 611.316406 310.804688 608.894531 304.285156 C 607.109375 299.503906 612.089844 297.085938 618.179688 294.832031 C 621.867188 293.480469 625.96875 289.535156 631.535156 288.886719 C 635.929688 288.371094 641 291.121094 646.136719 290.960938 C 650.753906 290.8125 655.574219 287.707031 660.519531 287.777344 C 665.277344 287.847656 670.027344 291.082031 674.839844 291.296875 C 679.707031 291.519531 684.714844 288.734375 689.398438 289.046875 C 694.417969 289.394531 699.011719 292.855469 703.519531 293.25 C 708.855469 293.710938 714.015625 291.121094 718.15625 291.550781 C 726.910156 292.460938 724.96875 295.289062 732.113281 296.238281 C 740.839844 297.398438 739.316406 294.121094 749.96875 295.753906 C 755.003906 296.515625 760.421875 300.488281 766.886719 301.542969 C 768.09375 301.746094 769.351562 301.800781 770.644531 301.757812 C 771.136719 301.75 771.636719 301.730469 772.136719 301.707031 C 774.949219 301.542969 777.890625 301.136719 780.8125 301.136719 C 782.136719 301.136719 783.460938 301.222656 784.773438 301.453125 C 786.195312 301.699219 787.589844 302.144531 788.980469 302.695312 C 789.382812 302.847656 789.785156 303.015625 790.1875 303.191406 C 793.894531 304.78125 797.582031 306.890625 801.546875 307.648438 C 807.308594 308.742188 813.714844 306.871094 819.433594 308.066406 C 825.308594 309.285156 830.421875 313.570312 835.957031 314.878906 C 836.898438 315.101562 837.84375 315.25 838.789062 315.347656 C 839.261719 315.40625 839.722656 315.441406 840.191406 315.472656 C 843.71875 315.695312 847.269531 315.414062 850.519531 315.71875 C 851.648438 315.820312 852.742188 316.007812 853.789062 316.296875 C 854.757812 316.574219 855.691406 316.921875 856.59375 317.316406 C 856.992188 317.484375 857.378906 317.671875 857.761719 317.863281 C 862.234375 320.074219 865.886719 323.304688 869.496094 324.773438 C 878.304688 328.339844 885.242188 331.097656 883.886719 334.566406 "/><path style=" stroke:none;fill-rule:nonzero;fill:#e6b47a;fill-opacity:1;" d="M 873.339844 284.121094 L 862.382812 304.765625 L 857.363281 314.234375 L 846.644531 334.441406 C 846.222656 334.292969 845.804688 334.15625 845.390625 334.046875 C 844.527344 333.808594 843.679688 333.671875 842.847656 333.742188 C 840.988281 333.894531 839.191406 335.050781 837.414062 336.035156 C 836.113281 336.761719 834.808594 337.382812 833.496094 337.445312 C 831.371094 337.554688 829.242188 336.398438 827.207031 335.558594 C 826.796875 335.386719 826.386719 335.234375 825.980469 335.101562 C 825.238281 334.867188 824.515625 334.71875 823.808594 334.734375 C 820.242188 334.828125 817.039062 337.945312 814.277344 337.957031 C 808.40625 337.96875 809.515625 334.886719 804.726562 334.773438 C 797.019531 334.617188 789.445312 337.5 782.160156 337.25 C 778.304688 337.121094 774.53125 336.210938 770.828125 335.289062 C 770.398438 335.179688 769.964844 335.074219 769.535156 334.964844 C 766.800781 334.269531 764.09375 333.625 761.394531 333.339844 C 760.882812 333.285156 760.355469 333.238281 759.84375 333.214844 C 758.207031 333.132812 756.578125 333.179688 754.960938 333.300781 C 754.328125 333.347656 753.695312 333.410156 753.0625 333.476562 C 753.34375 332.808594 753.65625 332.144531 754.003906 331.492188 L 771.414062 298.679688 L 776.753906 288.609375 L 799.839844 245.089844 C 806.273438 232.957031 821.46875 228.292969 833.59375 234.734375 L 838.179688 237.179688 L 858.394531 247.910156 L 862.992188 250.351562 C 875.117188 256.792969 879.777344 271.984375 873.339844 284.121094 "/><path style=" stroke:none;fill-rule:nonzero;fill:#c89969;fill-opacity:1;" d="M 866.144531 281.875 L 855.136719 302.621094 L 837.414062 336.035156 C 836.113281 336.761719 834.808594 337.382812 833.496094 337.445312 C 831.371094 337.554688 829.242188 336.398438 827.207031 335.558594 C 826.796875 335.386719 826.386719 335.234375 825.980469 335.101562 C 825.238281 334.867188 824.515625 334.71875 823.808594 334.734375 C 820.242188 334.828125 817.039062 337.945312 814.277344 337.957031 C 808.40625 337.96875 809.515625 334.886719 804.726562 334.773438 C 797.019531 334.617188 789.445312 337.5 782.160156 337.25 C 778.304688 337.121094 774.53125 336.210938 770.828125 335.289062 C 770.398438 335.179688 769.964844 335.074219 769.535156 334.964844 C 766.800781 334.269531 764.09375 333.625 761.394531 333.339844 L 781.59375 295.273438 L 785.433594 288.042969 L 805.730469 249.789062 C 809.015625 243.582031 815.445312 239.71875 822.5 239.71875 C 825.570312 239.71875 828.636719 240.484375 831.363281 241.933594 L 858.292969 256.238281 C 867.519531 261.144531 871.035156 272.648438 866.144531 281.875 "/><path style=" stroke:none;fill-rule:nonzero;fill:#c29466;fill-opacity:1;" d="M 857.984375 277.546875 L 844.8125 302.375 L 839.5625 312.269531 L 827.207031 335.558594 C 826.796875 335.386719 826.386719 335.234375 825.980469 335.101562 C 825.238281 334.867188 824.515625 334.71875 823.808594 334.734375 C 820.242188 334.828125 817.039062 337.945312 814.277344 337.957031 C 808.40625 337.96875 809.515625 334.886719 804.726562 334.773438 C 797.019531 334.617188 789.445312 337.5 782.160156 337.25 C 778.304688 337.121094 774.53125 336.210938 770.828125 335.289062 L 789.753906 299.613281 L 794.804688 290.09375 L 813.890625 254.125 C 816.390625 249.40625 822.300781 247.585938 827.027344 250.097656 L 853.960938 264.402344 C 858.679688 266.914062 860.488281 272.824219 857.984375 277.546875 "/><path style=" stroke:none;fill-rule:nonzero;fill:#e6b47a;fill-opacity:1;" d="M 856.445312 251.589844 L 836.234375 240.855469 L 858.667969 198.570312 L 878.878906 209.304688 L 856.445312 251.589844 "/><path style=" stroke:none;fill-rule:nonzero;fill:#e6b47a;fill-opacity:1;" d="M 861.796875 217.140625 L 861.753906 217.117188 C 852.164062 212.023438 848.484375 200.011719 853.574219 190.417969 L 865.644531 167.664062 C 870.734375 158.074219 882.738281 154.390625 892.328125 159.484375 L 892.375 159.507812 C 901.964844 164.597656 905.644531 176.613281 900.550781 186.207031 L 888.484375 208.960938 C 883.390625 218.550781 871.386719 222.230469 861.796875 217.140625 "/><path style=" stroke:none;fill-rule:nonzero;fill:#c89969;fill-opacity:1;" d="M 889.257812 173.757812 C 888.234375 175.6875 885.84375 176.421875 883.914062 175.398438 C 881.988281 174.371094 881.25 171.980469 882.277344 170.046875 C 883.300781 168.121094 885.691406 167.390625 887.621094 168.410156 C 889.550781 169.433594 890.28125 171.828125 889.257812 173.757812 "/><path style=" stroke:none;fill-rule:nonzero;fill:#e6c399;fill-opacity:1;" d="M 796.222656 558.960938 C 756.898438 586.285156 672.25 579.496094 604.105469 564.160156 C 626.53125 545.96875 617.976562 490.007812 617.976562 490.007812 C 617.976562 490.007812 617.300781 479.144531 616.988281 466.65625 C 683.640625 483.800781 840.191406 528.40625 796.222656 558.960938 "/><path style=" stroke:none;fill-rule:nonzero;fill:#d4b48d;fill-opacity:1;" d="M 603.734375 337.085938 C 603.734375 337.085938 613.746094 377.148438 703.828125 381.765625 "/><path style=" stroke:none;fill-rule:nonzero;fill:#fcf5e8;fill-opacity:1;" d="M 675.417969 543.9375 C 673.503906 543.9375 671.953125 542.382812 671.953125 540.46875 L 671.953125 492.703125 C 671.953125 490.816406 673.464844 489.273438 675.351562 489.238281 L 695.753906 488.855469 L 695.824219 488.851562 C 697.703125 488.851562 699.25 490.363281 699.285156 492.253906 C 699.320312 494.167969 697.800781 495.75 695.886719 495.785156 L 678.882812 496.105469 L 678.882812 540.46875 C 678.882812 542.382812 677.332031 543.9375 675.417969 543.9375 "/><path style=" stroke:none;fill-rule:nonzero;fill:#fcf5e8;fill-opacity:1;" d="M 689.660156 519.667969 L 675.03125 519.667969 C 673.117188 519.667969 671.566406 518.117188 671.566406 516.203125 C 671.566406 514.289062 673.117188 512.734375 675.03125 512.734375 L 689.660156 512.734375 C 691.574219 512.734375 693.125 514.289062 693.125 516.203125 C 693.125 518.117188 691.574219 519.667969 689.660156 519.667969 "/><path style=" stroke:none;fill-rule:nonzero;fill:#fcf5e8;fill-opacity:1;" d="M 732.777344 543.550781 L 710.453125 543.550781 C 708.539062 543.550781 706.984375 541.996094 706.984375 540.082031 L 706.984375 492.316406 C 706.984375 490.402344 708.539062 488.851562 710.453125 488.851562 C 712.363281 488.851562 713.917969 490.402344 713.917969 492.316406 L 713.917969 536.617188 L 732.777344 536.617188 C 734.691406 536.617188 736.242188 538.171875 736.242188 540.082031 C 736.242188 541.996094 734.691406 543.550781 732.777344 543.550781 "/><path style=" stroke:none;fill-rule:nonzero;fill:#fcf5e8;fill-opacity:1;" d="M 766.273438 515.429688 L 761.171875 515.429688 C 761.171875 518.558594 760.871094 521.523438 760.335938 524.167969 C 759.546875 528.128906 758.191406 531.367188 756.84375 533.25 C 756.179688 534.199219 755.539062 534.789062 755.101562 535.070312 C 754.882812 535.214844 754.714844 535.285156 754.597656 535.320312 C 754.480469 535.363281 754.414062 535.367188 754.335938 535.371094 C 754.238281 535.367188 754.144531 535.359375 753.941406 535.273438 C 753.769531 535.199219 753.515625 535.054688 753.207031 534.800781 C 752.671875 534.359375 751.964844 533.558594 751.285156 532.410156 C 750.25 530.699219 749.273438 528.238281 748.589844 525.320312 C 747.898438 522.402344 747.5 519.023438 747.503906 515.429688 C 747.5 512.304688 747.804688 509.335938 748.335938 506.691406 C 749.125 502.730469 750.480469 499.496094 751.828125 497.613281 C 752.496094 496.664062 753.136719 496.070312 753.574219 495.792969 C 753.792969 495.648438 753.960938 495.578125 754.074219 495.539062 C 754.195312 495.503906 754.261719 495.496094 754.335938 495.496094 C 754.4375 495.5 754.527344 495.507812 754.730469 495.589844 C 754.90625 495.664062 755.152344 495.804688 755.464844 496.058594 C 756.003906 496.5 756.703125 497.300781 757.386719 498.449219 C 758.417969 500.164062 759.402344 502.621094 760.082031 505.539062 C 760.769531 508.460938 761.171875 511.839844 761.171875 515.429688 L 771.367188 515.429688 C 771.367188 511.644531 771.007812 508.027344 770.332031 504.679688 C 769.304688 499.652344 767.636719 495.242188 765.175781 491.730469 C 763.933594 489.972656 762.476562 488.429688 760.671875 487.246094 C 759.765625 486.65625 758.777344 486.167969 757.710938 485.824219 C 756.640625 485.480469 755.496094 485.292969 754.335938 485.292969 C 752.789062 485.292969 751.273438 485.628906 749.921875 486.214844 C 747.542969 487.242188 745.671875 488.921875 744.136719 490.867188 C 741.84375 493.808594 740.21875 497.457031 739.066406 501.621094 C 737.925781 505.78125 737.304688 510.460938 737.304688 515.429688 C 737.304688 519.214844 737.667969 522.839844 738.34375 526.1875 C 739.367188 531.210938 741.039062 535.621094 743.5 539.136719 C 744.742188 540.886719 746.195312 542.429688 748.003906 543.617188 C 748.902344 544.203125 749.894531 544.695312 750.964844 545.039062 C 752.03125 545.382812 753.175781 545.570312 754.335938 545.566406 C 755.882812 545.570312 757.402344 545.230469 758.753906 544.648438 C 761.128906 543.617188 763.003906 541.941406 764.535156 539.996094 C 766.824219 537.054688 768.457031 533.402344 769.605469 529.242188 C 770.742188 525.082031 771.363281 520.402344 771.367188 515.429688 L 766.273438 515.429688 "/><path style=" stroke:none;fill-rule:nonzero;fill:#fcf5e8;fill-opacity:1;" d="M 792.566406 543.570312 C 789.398438 543.570312 786.691406 542.523438 784.511719 540.453125 C 777.597656 533.878906 777.683594 518.078125 777.792969 498.066406 C 777.804688 495.558594 777.816406 492.996094 777.816406 490.394531 C 777.816406 488.480469 779.367188 486.921875 781.28125 486.921875 C 783.195312 486.921875 784.746094 488.480469 784.746094 490.394531 C 784.746094 493.007812 784.734375 495.582031 784.71875 498.101562 C 784.628906 514.980469 784.546875 530.917969 789.289062 535.425781 C 790.253906 536.34375 791.40625 536.710938 793.023438 536.625 C 802.003906 536.109375 802.21875 524.574219 801.828125 502.511719 C 801.757812 498.625 801.6875 494.601562 801.6875 490.394531 C 801.6875 488.480469 803.238281 486.921875 805.152344 486.921875 C 807.066406 486.921875 808.617188 488.480469 808.617188 490.394531 C 808.617188 494.539062 808.691406 498.53125 808.753906 502.394531 C 808.949219 513.308594 809.117188 522.738281 807.550781 529.78125 C 805.613281 538.488281 800.859375 543.121094 793.417969 543.546875 C 793.128906 543.5625 792.84375 543.570312 792.566406 543.570312 "/><path style=" stroke:none;fill-rule:nonzero;fill:#fcf5e8;fill-opacity:1;" d="M 825.941406 493.902344 L 825.941406 512.585938 C 829.246094 512.175781 834.875 510.882812 837.679688 507.777344 C 838.972656 506.34375 839.542969 504.625 839.421875 502.535156 C 839.019531 495.722656 830.699219 494.207031 825.941406 493.902344 Z M 822.476562 543.9375 C 820.5625 543.9375 819.007812 542.382812 819.007812 540.46875 L 819.007812 490.394531 C 819.007812 488.554688 820.441406 487.039062 822.273438 486.933594 C 830.265625 486.460938 845.570312 489.035156 846.335938 502.128906 C 846.570312 506.121094 845.382812 509.59375 842.804688 512.445312 C 839.226562 516.394531 833.636719 518.191406 829.582031 519.003906 C 833.347656 526.140625 840.554688 536.617188 848.269531 536.617188 C 850.183594 536.617188 851.734375 538.171875 851.734375 540.082031 C 851.734375 541.996094 850.183594 543.550781 848.269531 543.550781 C 841.332031 543.550781 834.621094 539.039062 828.3125 530.152344 C 827.453125 528.933594 826.660156 527.722656 825.941406 526.554688 L 825.941406 540.46875 C 825.941406 542.382812 824.386719 543.9375 822.476562 543.9375 "/><g clip-rule="nonzero" clip-path="url(#fe532f9089)"><g clip-rule="nonzero" clip-path="url(#1799ccd3ca)"><path style=" stroke:none;fill-rule:nonzero;fill:#e9c9a3;fill-opacity:1;" d="M 604.105469 577.566406 L 803.890625 577.566406 L 803.890625 466.65625 L 604.105469 466.65625 Z M 604.105469 577.566406 "/></g></g><path style=" stroke:none;fill-rule:nonzero;fill:#fcf6ea;fill-opacity:1;" d="M 675.417969 543.9375 C 673.503906 543.9375 671.953125 542.382812 671.953125 540.46875 L 671.953125 517.789062 C 672.53125 518.90625 673.691406 519.667969 675.03125 519.667969 L 678.882812 519.667969 L 678.882812 540.46875 C 678.882812 542.382812 677.332031 543.9375 675.417969 543.9375 M 671.953125 514.609375 L 671.953125 492.703125 C 671.953125 490.816406 673.464844 489.273438 675.351562 489.238281 L 694.949219 488.871094 C 696.09375 489.234375 697.21875 489.589844 698.355469 489.957031 C 698.917969 490.5625 699.269531 491.367188 699.285156 492.253906 C 699.320312 494.167969 697.800781 495.75 695.886719 495.785156 L 678.882812 496.105469 L 678.882812 512.734375 L 675.03125 512.734375 C 673.691406 512.734375 672.53125 513.496094 671.953125 514.609375 "/><path style=" stroke:none;fill-rule:nonzero;fill:#fcf6ea;fill-opacity:1;" d="M 689.660156 519.667969 L 675.03125 519.667969 C 673.691406 519.667969 672.53125 518.90625 671.953125 517.789062 C 671.707031 517.316406 671.566406 516.777344 671.566406 516.203125 C 671.566406 515.628906 671.707031 515.085938 671.953125 514.609375 C 672.53125 513.496094 673.691406 512.734375 675.03125 512.734375 L 689.660156 512.734375 C 691.574219 512.734375 693.125 514.289062 693.125 516.203125 C 693.125 518.117188 691.574219 519.667969 689.660156 519.667969 "/><path style=" stroke:none;fill-rule:nonzero;fill:#fcf6ea;fill-opacity:1;" d="M 732.777344 543.550781 L 710.453125 543.550781 C 708.539062 543.550781 706.984375 541.996094 706.984375 540.082031 L 706.984375 492.78125 C 709.304688 493.546875 711.613281 494.324219 713.917969 495.113281 L 713.917969 536.617188 L 732.777344 536.617188 C 734.691406 536.617188 736.242188 538.171875 736.242188 540.082031 C 736.242188 541.996094 734.691406 543.550781 732.777344 543.550781 "/><path style=" stroke:none;fill-rule:nonzero;fill:#fcf6ea;fill-opacity:1;" d="M 754.351562 545.566406 C 754.347656 545.566406 754.339844 545.566406 754.335938 545.566406 C 754.332031 545.566406 754.328125 545.566406 754.328125 545.566406 C 753.171875 545.566406 752.03125 545.382812 750.964844 545.039062 C 749.894531 544.695312 748.902344 544.203125 748.003906 543.617188 C 746.195312 542.429688 744.742188 540.886719 743.5 539.136719 C 741.039062 535.621094 739.367188 531.210938 738.34375 526.1875 C 737.667969 522.839844 737.304688 519.214844 737.304688 515.429688 C 737.304688 511.382812 737.71875 507.523438 738.488281 503.980469 C 741.773438 505.242188 744.988281 506.511719 748.128906 507.792969 C 747.726562 510.152344 747.5 512.730469 747.503906 515.429688 C 747.5 519.023438 747.898438 522.402344 748.589844 525.320312 C 749.273438 528.238281 750.25 530.699219 751.285156 532.410156 C 751.964844 533.558594 752.671875 534.359375 753.207031 534.800781 C 753.515625 535.054688 753.769531 535.199219 753.941406 535.273438 C 754.144531 535.359375 754.238281 535.367188 754.335938 535.371094 C 754.414062 535.367188 754.480469 535.363281 754.597656 535.320312 C 754.714844 535.285156 754.882812 535.214844 755.101562 535.070312 C 755.539062 534.789062 756.179688 534.199219 756.84375 533.25 C 758.191406 531.367188 759.546875 528.128906 760.335938 524.167969 C 760.871094 521.523438 761.171875 518.558594 761.171875 515.429688 C 761.171875 514.734375 761.15625 514.042969 761.128906 513.363281 C 764.675781 514.964844 768.082031 516.578125 771.300781 518.195312 C 771.113281 522.136719 770.527344 525.863281 769.605469 529.242188 C 768.457031 533.402344 766.824219 537.054688 764.535156 539.996094 C 763.003906 541.941406 761.128906 543.617188 758.753906 544.648438 C 757.40625 545.230469 755.898438 545.566406 754.351562 545.566406 "/><path style=" stroke:none;fill-rule:nonzero;fill:#e9c9a3;fill-opacity:1;" d="M 792.570312 536.636719 C 791.1875 536.636719 790.164062 536.257812 789.289062 535.425781 C 787.535156 533.765625 786.441406 530.542969 785.765625 526.296875 C 790.40625 529.25 794.292969 532.199219 797.265625 535.125 C 796.132812 536.027344 794.738281 536.523438 793.023438 536.625 C 792.867188 536.632812 792.710938 536.636719 792.570312 536.636719 "/><path style=" stroke:none;fill-rule:nonzero;fill:#fcf6ea;fill-opacity:1;" d="M 792.566406 543.570312 C 789.398438 543.570312 786.691406 542.523438 784.511719 540.453125 C 780.679688 536.8125 779 530.328125 778.277344 521.867188 C 780.945312 523.34375 783.449219 524.820312 785.765625 526.296875 C 786.441406 530.542969 787.535156 533.765625 789.289062 535.425781 C 790.164062 536.257812 791.1875 536.636719 792.570312 536.636719 C 792.710938 536.636719 792.867188 536.632812 793.023438 536.625 C 794.738281 536.523438 796.132812 536.027344 797.265625 535.125 C 799.109375 536.9375 800.601562 538.742188 801.699219 540.527344 C 799.472656 542.347656 796.707031 543.359375 793.417969 543.546875 C 793.128906 543.5625 792.84375 543.570312 792.566406 543.570312 "/></g></svg>