<svg xmlns="http://www.w3.org/2000/svg" xmlns:xlink="http://www.w3.org/1999/xlink" width="1920" zoomAndPan="magnify" viewBox="0 0 1440 809.999993" height="1080" preserveAspectRatio="xMidYMid meet" version="1.2"><defs><clipPath id="6b22679301"><path d="M 514.898438 72 L 925.148438 72 L 925.148438 786 L 514.898438 786 Z M 514.898438 72 "/></clipPath></defs><g id="4e442dbb92"><g clip-rule="nonzero" clip-path="url(#6b22679301)"><path style=" stroke:none;fill-rule:nonzero;fill:#abd0d6;fill-opacity:1;" d="M 860.074219 78.570312 C 860.074219 78.570312 637.277344 61.523438 569.101562 85.894531 C 567.976562 101.097656 567.777344 116.316406 568.496094 131.546875 L 514.925781 191.183594 L 514.925781 683.40625 C 514.925781 686.027344 515.398438 688.5625 516.34375 691.007812 C 517.289062 693.453125 518.648438 695.644531 520.414062 697.582031 L 592.207031 776.453125 C 593.625 778.011719 595.207031 779.386719 596.949219 780.574219 C 598.691406 781.761719 600.546875 782.734375 602.519531 783.484375 C 604.488281 784.234375 606.519531 784.742188 608.613281 785.015625 C 610.703125 785.285156 612.796875 785.3125 614.894531 785.089844 L 912.191406 753.796875 C 913.074219 753.703125 913.9375 753.53125 914.789062 753.277344 C 915.636719 753.023438 916.457031 752.695312 917.246094 752.289062 C 918.035156 751.882812 918.78125 751.410156 919.480469 750.867188 C 920.179688 750.320312 920.824219 749.71875 921.414062 749.054688 C 922.003906 748.394531 922.527344 747.679688 922.984375 746.921875 C 923.441406 746.160156 923.824219 745.367188 924.132812 744.535156 C 924.445312 743.703125 924.675781 742.851562 924.824219 741.976562 C 924.976562 741.105469 925.046875 740.222656 925.035156 739.335938 L 917.898438 197.269531 L 860.679688 121.8125 Z M 860.074219 78.570312 "/></g><path style=" stroke:none;fill-rule:nonzero;fill:#77b1b7;fill-opacity:1;" d="M 598.316406 112.304688 L 598.316406 127.066406 C 598.316406 129.542969 598.792969 131.925781 599.746094 134.210938 L 629.683594 206.390625 C 630.6875 208.824219 631.160156 211.355469 631.09375 213.988281 L 629.230469 291.269531 C 629.214844 291.902344 629.234375 292.535156 629.285156 293.167969 C 629.332031 293.800781 629.414062 294.429688 629.527344 295.054688 C 629.644531 295.679688 629.789062 296.296875 629.964844 296.90625 C 630.140625 297.515625 630.347656 298.113281 630.585938 298.703125 C 630.824219 299.289062 631.09375 299.863281 631.390625 300.425781 C 631.683594 300.988281 632.007812 301.53125 632.363281 302.058594 C 632.714844 302.585938 633.09375 303.097656 633.496094 303.585938 C 633.898438 304.074219 634.328125 304.542969 634.78125 304.988281 C 635.230469 305.433594 635.703125 305.855469 636.199219 306.253906 C 636.695312 306.652344 637.207031 307.023438 637.738281 307.367188 C 638.273438 307.710938 638.820312 308.03125 639.386719 308.320312 C 639.953125 308.609375 640.53125 308.867188 641.121094 309.097656 C 641.710938 309.328125 642.3125 309.527344 642.925781 309.695312 C 643.539062 309.863281 644.15625 310 644.78125 310.105469 C 645.410156 310.210938 646.039062 310.285156 646.671875 310.328125 C 647.304688 310.367188 647.9375 310.378906 648.574219 310.355469 L 874.132812 302.039062 C 874.746094 302.015625 875.359375 301.960938 875.96875 301.878906 C 876.578125 301.796875 877.179688 301.683594 877.777344 301.539062 C 878.375 301.398438 878.964844 301.226562 879.542969 301.023438 C 880.125 300.824219 880.695312 300.59375 881.253906 300.339844 C 881.8125 300.082031 882.355469 299.796875 882.886719 299.484375 C 883.414062 299.175781 883.929688 298.839844 884.425781 298.476562 C 884.921875 298.117188 885.398438 297.730469 885.859375 297.320312 C 886.316406 296.914062 886.753906 296.480469 887.171875 296.03125 C 887.585938 295.578125 887.980469 295.105469 888.347656 294.617188 C 888.71875 294.125 889.0625 293.617188 889.382812 293.09375 C 889.703125 292.566406 889.996094 292.027344 890.261719 291.472656 C 890.527344 290.917969 890.765625 290.355469 890.976562 289.777344 C 891.183594 289.199219 891.367188 288.613281 891.519531 288.019531 C 891.671875 287.421875 891.792969 286.820312 891.886719 286.214844 C 891.976562 285.605469 892.039062 284.996094 892.074219 284.382812 C 892.105469 283.769531 892.109375 283.15625 892.078125 282.539062 L 888.355469 201.542969 C 888.265625 199.550781 887.867188 197.625 887.15625 195.761719 C 886.445312 193.898438 885.464844 192.191406 884.207031 190.644531 L 839.734375 135.8125 C 838.445312 134.226562 837.445312 132.476562 836.734375 130.558594 C 836.023438 128.644531 835.636719 126.667969 835.574219 124.625 L 835.089844 108.53125 C 835.070312 107.9375 835.023438 107.347656 834.949219 106.761719 C 834.871094 106.171875 834.769531 105.589844 834.640625 105.011719 C 834.507812 104.433594 834.347656 103.863281 834.164062 103.300781 C 833.980469 102.738281 833.765625 102.1875 833.527344 101.644531 C 833.289062 101.101562 833.027344 100.570312 832.738281 100.050781 C 832.449219 99.535156 832.136719 99.03125 831.800781 98.542969 C 831.464844 98.058594 831.105469 97.585938 830.722656 97.132812 C 830.34375 96.679688 829.941406 96.246094 829.519531 95.828125 C 829.09375 95.414062 828.652344 95.019531 828.191406 94.648438 C 827.734375 94.273438 827.253906 93.921875 826.761719 93.59375 C 826.269531 93.269531 825.761719 92.964844 825.238281 92.683594 C 824.714844 92.40625 824.179688 92.152344 823.632812 91.921875 C 823.085938 91.695312 822.53125 91.492188 821.964844 91.320312 C 821.398438 91.144531 820.824219 90.996094 820.242188 90.875 C 819.664062 90.753906 819.078125 90.660156 818.488281 90.597656 C 817.902344 90.53125 817.308594 90.496094 816.71875 90.488281 C 775.027344 89.894531 670.546875 88.992188 615.378906 93.765625 C 614.226562 93.867188 613.09375 94.070312 611.980469 94.378906 C 610.867188 94.6875 609.789062 95.09375 608.753906 95.605469 C 607.714844 96.113281 606.734375 96.714844 605.804688 97.40625 C 604.878906 98.097656 604.027344 98.867188 603.242188 99.71875 C 602.460938 100.570312 601.761719 101.484375 601.148438 102.464844 C 600.539062 103.445312 600.019531 104.472656 599.601562 105.550781 C 599.179688 106.625 598.859375 107.730469 598.644531 108.867188 C 598.429688 110.003906 598.320312 111.148438 598.316406 112.304688 Z M 598.316406 112.304688 "/><path style=" stroke:none;fill-rule:nonzero;fill:#ffffff;fill-opacity:1;" d="M 574.582031 133.964844 C 574.285156 133.929688 574.007812 133.839844 573.746094 133.703125 C 573.484375 133.566406 573.253906 133.386719 573.054688 133.167969 C 572.859375 132.945312 572.703125 132.695312 572.597656 132.421875 C 572.488281 132.144531 572.433594 131.859375 572.429688 131.5625 C 572.421875 131.265625 572.472656 130.976562 572.570312 130.699219 C 572.671875 130.417969 572.816406 130.167969 573.007812 129.941406 C 573.199219 129.714844 573.421875 129.527344 573.679688 129.382812 C 573.9375 129.234375 574.214844 129.140625 574.507812 129.09375 L 854.496094 120.570312 L 854.570312 120.570312 C 854.863281 120.613281 855.136719 120.703125 855.394531 120.839844 C 855.65625 120.980469 855.882812 121.160156 856.078125 121.378906 C 856.273438 121.597656 856.421875 121.847656 856.527344 122.121094 C 856.636719 122.394531 856.691406 122.679688 856.695312 122.972656 C 856.699219 123.265625 856.652344 123.550781 856.554688 123.828125 C 856.457031 124.105469 856.3125 124.359375 856.125 124.582031 C 855.9375 124.808594 855.714844 124.996094 855.460938 125.144531 C 855.207031 125.289062 854.933594 125.386719 854.644531 125.4375 L 574.652344 133.957031 Z M 574.582031 133.964844 "/><path style=" stroke:none;fill-rule:nonzero;fill:#ffffff;fill-opacity:1;" d="M 601.597656 768.085938 C 601.273438 768.085938 600.957031 768.023438 600.65625 767.898438 C 600.355469 767.773438 600.089844 767.597656 599.859375 767.367188 C 599.628906 767.132812 599.449219 766.867188 599.324219 766.566406 C 599.199219 766.265625 599.136719 765.953125 599.136719 765.625 L 599.507812 216.578125 L 572.554688 148.082031 C 572.488281 147.796875 572.472656 147.503906 572.511719 147.210938 C 572.546875 146.917969 572.636719 146.644531 572.773438 146.382812 C 572.910156 146.121094 573.085938 145.890625 573.304688 145.695312 C 573.527344 145.496094 573.773438 145.34375 574.046875 145.234375 C 574.320312 145.128906 574.605469 145.070312 574.902344 145.0625 C 575.195312 145.058594 575.484375 145.105469 575.761719 145.199219 C 576.039062 145.296875 576.292969 145.441406 576.519531 145.628906 C 576.746094 145.816406 576.933594 146.039062 577.082031 146.292969 L 604.238281 215.25 C 604.355469 215.535156 604.414062 215.835938 604.410156 216.144531 L 604.035156 765.691406 C 604.027344 766.007812 603.957031 766.316406 603.832031 766.605469 C 603.703125 766.898438 603.527344 767.15625 603.300781 767.378906 C 603.074219 767.605469 602.8125 767.777344 602.519531 767.898438 C 602.222656 768.019531 601.917969 768.082031 601.597656 768.085938 Z M 601.597656 768.085938 "/><path style=" stroke:none;fill-rule:nonzero;fill:#ffffff;fill-opacity:1;" d="M 601.976562 218.570312 C 601.742188 218.570312 601.511719 218.539062 601.285156 218.480469 L 522.152344 195.34375 C 521.882812 195.21875 521.644531 195.054688 521.433594 194.84375 C 521.222656 194.636719 521.058594 194.398438 520.933594 194.128906 C 520.808594 193.859375 520.738281 193.578125 520.714844 193.28125 C 520.695312 192.984375 520.726562 192.695312 520.808594 192.410156 C 520.894531 192.128906 521.023438 191.867188 521.199219 191.628906 C 521.378906 191.394531 521.589844 191.195312 521.839844 191.035156 C 522.089844 190.875 522.359375 190.761719 522.648438 190.699219 C 522.9375 190.636719 523.226562 190.625 523.523438 190.667969 L 602.261719 213.691406 L 912.304688 197.886719 C 912.65625 197.8125 913.007812 197.816406 913.359375 197.894531 C 913.710938 197.976562 914.027344 198.125 914.3125 198.347656 C 914.597656 198.566406 914.824219 198.835938 914.988281 199.152344 C 915.15625 199.472656 915.25 199.8125 915.265625 200.171875 C 915.285156 200.527344 915.226562 200.875 915.09375 201.210938 C 914.960938 201.542969 914.761719 201.832031 914.5 202.082031 C 914.242188 202.328125 913.941406 202.507812 913.597656 202.625 C 913.257812 202.742188 912.910156 202.78125 912.550781 202.742188 L 602.105469 218.570312 Z M 601.976562 218.570312 "/><path style=" stroke:none;fill-rule:nonzero;fill:#ffffff;fill-opacity:1;" d="M 696.285156 118.613281 L 694.742188 156.113281 C 694.703125 156.910156 694.722656 157.707031 694.796875 158.503906 C 694.875 159.296875 695.003906 160.085938 695.191406 160.859375 C 695.378906 161.636719 695.621094 162.398438 695.917969 163.140625 C 696.210938 163.882812 696.558594 164.597656 696.957031 165.292969 C 697.355469 165.984375 697.796875 166.648438 698.289062 167.277344 C 698.78125 167.90625 699.316406 168.496094 699.890625 169.050781 C 700.46875 169.605469 701.082031 170.113281 701.730469 170.582031 C 702.378906 171.046875 703.058594 171.464844 703.765625 171.835938 C 719.578125 179.90625 754.308594 191.972656 800.828125 175.320312 C 801.609375 175.035156 802.367188 174.695312 803.097656 174.296875 C 803.828125 173.898438 804.523438 173.449219 805.1875 172.949219 C 805.851562 172.445312 806.476562 171.898438 807.058594 171.304688 C 807.640625 170.710938 808.175781 170.078125 808.664062 169.40625 C 809.152344 168.730469 809.589844 168.027344 809.972656 167.289062 C 810.355469 166.550781 810.683594 165.789062 810.957031 165.003906 C 811.226562 164.214844 811.4375 163.414062 811.589844 162.597656 C 811.742188 161.777344 811.832031 160.953125 811.863281 160.125 L 813.421875 122.804688 C 813.492188 121.277344 813.359375 119.773438 813.023438 118.285156 C 812.6875 116.796875 812.15625 115.378906 811.433594 114.035156 C 810.710938 112.691406 809.824219 111.46875 808.765625 110.363281 C 807.710938 109.261719 806.527344 108.320312 805.21875 107.539062 C 789.460938 98.34375 753.265625 83.433594 706.28125 103.839844 C 704.839844 104.476562 703.515625 105.300781 702.304688 106.3125 C 701.09375 107.324219 700.046875 108.484375 699.160156 109.789062 C 698.277344 111.09375 697.589844 112.5 697.101562 113.996094 C 696.613281 115.496094 696.339844 117.035156 696.285156 118.613281 Z M 696.285156 118.613281 "/><path style=" stroke:none;fill-rule:nonzero;fill:#77b1b7;fill-opacity:1;" d="M 705.636719 113.140625 C 709.585938 114.925781 713.613281 116.507812 717.726562 117.882812 C 721.792969 119.277344 725.910156 120.484375 730.070312 121.507812 C 738.355469 123.585938 746.761719 124.835938 755.292969 125.265625 C 763.800781 125.664062 772.261719 125.203125 780.675781 123.886719 C 789.160156 122.449219 797.484375 120.394531 805.660156 117.71875 C 798.214844 122.382812 790.226562 125.78125 781.703125 127.914062 C 772.953125 130.078125 764.078125 130.941406 755.078125 130.496094 C 750.585938 130.253906 746.128906 129.707031 741.707031 128.855469 C 737.316406 128.007812 733.003906 126.851562 728.773438 125.394531 C 724.582031 123.960938 720.523438 122.222656 716.59375 120.179688 C 712.699219 118.210938 709.042969 115.867188 705.636719 113.140625 Z M 705.636719 113.140625 "/><path style=" stroke:none;fill-rule:nonzero;fill:#77b1b7;fill-opacity:1;" d="M 706.40625 126.765625 C 707.261719 129.289062 707.511719 131.875 707.152344 134.515625 C 706.921875 135.789062 706.414062 137.050781 706.28125 138.328125 C 706.160156 139.625 706.21875 140.914062 706.457031 142.191406 C 706.882812 144.753906 707.035156 147.332031 706.90625 149.929688 C 706.734375 152.554688 706.1875 155.097656 705.265625 157.5625 L 704.980469 157.5625 C 703.863281 153.75 703.609375 149.882812 704.214844 145.957031 C 704.40625 143.398438 705.519531 140.878906 705.390625 138.296875 C 705.09375 135.730469 704.40625 133.152344 705.035156 130.570312 C 705.230469 129.253906 705.597656 127.984375 706.136719 126.765625 Z M 706.40625 126.765625 "/><path style=" stroke:none;fill-rule:nonzero;fill:#77b1b7;fill-opacity:1;" d="M 716.863281 131.003906 C 717.722656 133.527344 717.96875 136.109375 717.609375 138.75 C 717.378906 140.027344 716.878906 141.289062 716.742188 142.570312 C 716.621094 143.867188 716.679688 145.15625 716.921875 146.433594 C 717.34375 148.996094 717.492188 151.574219 717.363281 154.167969 C 717.195312 156.792969 716.648438 159.339844 715.722656 161.804688 L 715.4375 161.804688 C 714.328125 157.992188 714.074219 154.125 714.675781 150.199219 C 714.871094 147.648438 715.976562 145.128906 715.847656 142.539062 C 715.550781 139.976562 714.863281 137.394531 715.496094 134.8125 C 715.6875 133.496094 716.046875 132.226562 716.578125 131.003906 Z M 716.863281 131.003906 "/><path style=" stroke:none;fill-rule:nonzero;fill:#77b1b7;fill-opacity:1;" d="M 729.675781 135.3125 C 730.535156 137.835938 730.785156 140.417969 730.429688 143.0625 C 730.191406 144.332031 729.691406 145.597656 729.5625 146.875 C 729.4375 148.171875 729.496094 149.460938 729.734375 150.738281 C 730.164062 153.300781 730.3125 155.878906 730.175781 158.472656 C 730.007812 161.101562 729.460938 163.644531 728.535156 166.109375 L 728.257812 166.109375 C 727.136719 162.300781 726.882812 158.4375 727.492188 154.511719 C 727.683594 151.953125 728.789062 149.4375 728.660156 146.851562 C 728.371094 144.285156 727.683594 141.710938 728.304688 139.125 C 728.507812 137.808594 728.878906 136.539062 729.414062 135.320312 Z M 729.675781 135.3125 "/><path style=" stroke:none;fill-rule:nonzero;fill:#77b1b7;fill-opacity:1;" d="M 742.5625 137.773438 C 743.421875 140.296875 743.671875 142.878906 743.316406 145.523438 C 743.078125 146.792969 742.578125 148.058594 742.445312 149.335938 C 742.324219 150.632812 742.382812 151.921875 742.617188 153.199219 C 743.050781 155.761719 743.199219 158.339844 743.0625 160.933594 C 742.890625 163.5625 742.34375 166.105469 741.421875 168.570312 L 741.140625 168.570312 C 740.023438 164.761719 739.769531 160.894531 740.378906 156.972656 C 740.570312 154.414062 741.675781 151.894531 741.542969 149.3125 C 741.257812 146.746094 740.570312 144.167969 741.191406 141.578125 C 741.394531 140.261719 741.765625 138.992188 742.300781 137.773438 L 742.578125 137.773438 Z M 742.5625 137.773438 "/><path style=" stroke:none;fill-rule:nonzero;fill:#77b1b7;fill-opacity:1;" d="M 754.339844 138.3125 C 755.199219 140.835938 755.449219 143.417969 755.085938 146.054688 C 754.855469 147.335938 754.355469 148.597656 754.226562 149.878906 C 754.101562 151.175781 754.160156 152.460938 754.398438 153.742188 C 754.828125 156.304688 754.976562 158.882812 754.839844 161.476562 C 754.671875 164.101562 754.125 166.648438 753.199219 169.113281 L 752.921875 169.113281 C 751.800781 165.300781 751.546875 161.433594 752.15625 157.507812 C 752.347656 154.957031 753.453125 152.4375 753.324219 149.847656 C 753.035156 147.285156 752.347656 144.703125 752.96875 142.121094 C 753.175781 140.804688 753.542969 139.535156 754.078125 138.3125 L 754.355469 138.3125 Z M 754.339844 138.3125 "/><path style=" stroke:none;fill-rule:nonzero;fill:#77b1b7;fill-opacity:1;" d="M 804.191406 130.308594 C 805.050781 132.832031 805.296875 135.417969 804.9375 138.058594 C 804.710938 139.332031 804.210938 140.59375 804.070312 141.875 C 803.949219 143.167969 804.011719 144.457031 804.25 145.738281 C 804.671875 148.300781 804.820312 150.878906 804.691406 153.472656 C 804.523438 156.097656 803.976562 158.644531 803.054688 161.105469 L 802.765625 161.105469 C 801.65625 157.292969 801.402344 153.421875 802.003906 149.492188 C 802.199219 146.933594 803.308594 144.414062 803.175781 141.832031 C 802.878906 139.265625 802.191406 136.6875 802.824219 134.105469 C 803.019531 132.789062 803.386719 131.519531 803.921875 130.300781 Z M 804.191406 130.308594 "/><path style=" stroke:none;fill-rule:nonzero;fill:#77b1b7;fill-opacity:1;" d="M 793.449219 133.554688 C 794.308594 136.082031 794.558594 138.664062 794.203125 141.308594 C 793.972656 142.578125 793.464844 143.839844 793.332031 145.121094 C 793.210938 146.417969 793.269531 147.703125 793.503906 148.984375 C 793.933594 151.546875 794.085938 154.125 793.957031 156.71875 C 793.785156 159.34375 793.238281 161.890625 792.316406 164.355469 L 792.039062 164.355469 C 790.921875 160.542969 790.667969 156.675781 791.273438 152.75 C 791.464844 150.191406 792.578125 147.671875 792.449219 145.089844 C 792.152344 142.519531 791.464844 139.945312 792.085938 137.363281 C 792.289062 136.042969 792.65625 134.777344 793.195312 133.554688 Z M 793.449219 133.554688 "/><path style=" stroke:none;fill-rule:nonzero;fill:#77b1b7;fill-opacity:1;" d="M 780.355469 136.699219 C 781.214844 139.21875 781.460938 141.800781 781.105469 144.441406 C 780.875 145.71875 780.375 146.984375 780.234375 148.261719 C 780.113281 149.558594 780.175781 150.847656 780.414062 152.125 C 780.839844 154.6875 780.988281 157.265625 780.859375 159.859375 C 780.6875 162.488281 780.140625 165.03125 779.21875 167.496094 L 778.929688 167.496094 C 777.820312 163.6875 777.566406 159.820312 778.167969 155.898438 C 778.363281 153.339844 779.472656 150.820312 779.339844 148.238281 C 779.042969 145.671875 778.355469 143.09375 778.988281 140.503906 C 779.183594 139.1875 779.550781 137.917969 780.085938 136.699219 L 780.375 136.699219 Z M 780.355469 136.699219 "/><path style=" stroke:none;fill-rule:nonzero;fill:#77b1b7;fill-opacity:1;" d="M 767.332031 137.96875 C 768.1875 140.496094 768.4375 143.078125 768.078125 145.71875 C 767.847656 146.992188 767.347656 148.253906 767.210938 149.535156 C 767.089844 150.832031 767.148438 152.117188 767.390625 153.398438 C 767.8125 155.960938 767.960938 158.539062 767.832031 161.132812 C 767.664062 163.757812 767.117188 166.304688 766.191406 168.769531 L 765.914062 168.769531 C 764.804688 164.957031 764.550781 161.085938 765.148438 157.164062 C 765.347656 154.601562 766.453125 152.085938 766.324219 149.5 C 766.027344 146.933594 765.339844 144.359375 765.96875 141.773438 C 766.167969 140.457031 766.53125 139.1875 767.070312 137.96875 Z M 767.332031 137.96875 "/><path style=" stroke:none;fill-rule:nonzero;fill:#ffffff;fill-opacity:1;" d="M 528.558594 598.054688 L 528.558594 661.597656 C 528.558594 662.554688 528.75 663.476562 529.132812 664.355469 C 529.515625 665.234375 530.058594 666 530.765625 666.648438 L 576.089844 708.605469 C 576.414062 708.972656 576.789062 709.285156 577.207031 709.539062 C 577.628906 709.792969 578.078125 709.976562 578.554688 710.097656 C 579.03125 710.214844 579.515625 710.257812 580.003906 710.230469 C 580.496094 710.199219 580.96875 710.097656 581.429688 709.925781 C 581.890625 709.75 582.3125 709.511719 582.699219 709.207031 C 583.085938 708.90625 583.417969 708.550781 583.699219 708.148438 C 583.976562 707.742188 584.1875 707.304688 584.335938 706.835938 C 584.480469 706.367188 584.554688 705.886719 584.554688 705.398438 L 584.554688 628.296875 C 584.5625 627.472656 584.371094 626.695312 583.984375 625.964844 C 583.59375 625.238281 583.054688 624.648438 582.363281 624.195312 L 536.039062 594.003906 C 535.292969 593.519531 534.480469 593.257812 533.59375 593.222656 C 532.707031 593.1875 531.871094 593.378906 531.09375 593.804688 C 530.3125 594.226562 529.695312 594.816406 529.238281 595.582031 C 528.785156 596.34375 528.558594 597.167969 528.558594 598.054688 Z M 528.558594 598.054688 "/><path style=" stroke:none;fill-rule:nonzero;fill:#ffffff;fill-opacity:1;" d="M 550.089844 552.222656 C 549.949219 554.117188 548.925781 555.378906 547.742188 555.125 C 543.410156 554.171875 533.570312 550.53125 529.386719 536.792969 C 528.597656 534.195312 528.125 531.542969 527.964844 528.835938 C 527.808594 526.128906 527.96875 523.4375 528.453125 520.769531 C 528.933594 518.097656 529.722656 515.523438 530.816406 513.039062 C 531.914062 510.558594 533.285156 508.238281 534.929688 506.082031 L 530.65625 501.089844 C 530.117188 500.449219 530.273438 499.113281 530.910156 499.003906 L 543.214844 496.972656 C 544.257812 496.796875 545.265625 498.003906 545.503906 499.710938 L 548.003906 517.28125 C 548.203125 518.640625 547.332031 519.59375 546.59375 518.828125 L 542.34375 514.417969 C 541.910156 513.964844 541.363281 514.105469 541.074219 514.738281 C 539.867188 517.460938 537.070312 524.332031 538.800781 525.710938 C 540.359375 526.941406 546.355469 528.828125 549.613281 529.8125 C 550.785156 530.15625 551.640625 532.003906 551.5 533.914062 Z M 550.089844 552.222656 "/><path style=" stroke:none;fill-rule:nonzero;fill:#77b1b7;fill-opacity:1;" d="M 550.089844 552.222656 L 551.457031 533.871094 C 551.597656 531.984375 550.746094 530.140625 549.570312 529.769531 C 546.289062 528.804688 540.320312 526.917969 538.761719 525.671875 C 538.484375 525.414062 538.320312 525.09375 538.269531 524.71875 C 536.285156 528.714844 533.554688 536.859375 536.046875 548.503906 C 537.632812 550.144531 539.421875 551.523438 541.414062 552.640625 C 543.40625 553.757812 545.515625 554.566406 547.742188 555.066406 C 548.925781 555.378906 549.949219 554.117188 550.089844 552.222656 Z M 550.089844 552.222656 "/><path style=" stroke:none;fill-rule:nonzero;fill:#ffffff;fill-opacity:1;" d="M 543.175781 491.566406 C 542.609375 490.898438 542.230469 490.132812 542.042969 489.277344 C 541.851562 488.421875 541.875 487.570312 542.109375 486.726562 C 543.75 480.433594 548.433594 466.753906 557.445312 466.058594 C 569.175781 465.144531 573.742188 487.464844 573.742188 487.464844 L 577.730469 482.960938 C 578.246094 482.386719 578.976562 483.199219 578.878906 484.226562 L 576.867188 504.007812 C 576.695312 505.648438 575.738281 506.738281 574.6875 506.394531 L 563.902344 502.910156 C 563.082031 502.636719 562.738281 500.890625 563.367188 500.078125 L 567.019531 495.363281 C 567.214844 495.046875 567.324219 494.703125 567.347656 494.332031 C 567.375 493.960938 567.3125 493.605469 567.164062 493.261719 C 565.902344 490.269531 562.664062 483.066406 561.425781 485.167969 C 560.308594 487.0625 557.667969 495.527344 556.265625 500.152344 C 555.757812 501.792969 554.476562 502.351562 553.417969 501.351562 Z M 543.175781 491.566406 "/><path style=" stroke:none;fill-rule:nonzero;fill:#77b1b7;fill-opacity:1;" d="M 543.175781 491.566406 L 553.410156 501.351562 C 554.46875 502.351562 555.75 501.820312 556.257812 500.152344 C 557.660156 495.527344 560.300781 487.03125 561.414062 485.167969 C 561.472656 485.035156 561.566406 484.9375 561.695312 484.871094 C 561.820312 484.800781 561.957031 484.78125 562.097656 484.808594 C 560.300781 480.066406 556.304688 472.4375 548.972656 471.421875 C 545.339844 476.136719 543.164062 482.832031 542.132812 486.71875 C 541.894531 487.5625 541.871094 488.414062 542.054688 489.269531 C 542.238281 490.128906 542.613281 490.894531 543.175781 491.566406 Z M 543.175781 491.566406 "/><path style=" stroke:none;fill-rule:nonzero;fill:#ffffff;fill-opacity:1;" d="M 577.8125 510.234375 C 578.835938 509.414062 580.140625 510.117188 580.789062 511.824219 C 583.175781 518.050781 587.867188 532.988281 583.824219 545.699219 C 578.566406 562.226562 564.960938 554.425781 564.960938 554.425781 L 565.304688 562.6875 C 565.351562 563.746094 564.582031 564.238281 564.105469 563.449219 L 555.011719 548.277344 C 554.621094 547.589844 554.414062 546.851562 554.390625 546.0625 C 554.363281 545.273438 554.519531 544.523438 554.863281 543.8125 L 561.898438 531.320312 C 562.449219 530.355469 563.5 531 563.605469 532.378906 L 564.222656 540.304688 C 564.285156 541.125 564.722656 541.78125 565.222656 541.820312 C 567.363281 541.992188 572.605469 542.109375 572.144531 539.089844 C 571.734375 536.382812 568.714844 527.457031 567.042969 522.683594 C 566.4375 520.953125 566.789062 518.863281 567.8125 518.066406 Z M 577.8125 510.234375 "/><path style=" stroke:none;fill-rule:nonzero;fill:#77b1b7;fill-opacity:1;" d="M 577.804688 510.234375 L 567.820312 518.027344 C 566.796875 518.847656 566.445312 520.914062 567.050781 522.644531 C 568.691406 527.457031 571.742188 536.382812 572.152344 539.046875 C 572.226562 539.445312 572.179688 539.828125 572.011719 540.195312 C 575.292969 540.738281 581.132812 540.089844 585.242188 530.714844 C 584.632812 524.214844 583.148438 517.921875 580.789062 511.832031 C 580.140625 510.128906 578.835938 509.421875 577.804688 510.234375 Z M 577.804688 510.234375 "/><path style=" stroke:none;fill-rule:nonzero;fill:#77b1b7;fill-opacity:1;" d="M 583.339844 452.164062 C 583.09375 452.164062 582.859375 452.113281 582.636719 452.015625 L 527.84375 428.882812 C 527.507812 428.742188 527.238281 428.515625 527.035156 428.210938 C 526.832031 427.90625 526.730469 427.570312 526.730469 427.203125 L 526.730469 232.410156 C 526.730469 231.828125 526.957031 231.355469 527.410156 230.988281 C 527.863281 230.617188 528.378906 230.5 528.953125 230.628906 L 583.734375 242.800781 C 584.152344 242.894531 584.496094 243.109375 584.765625 243.445312 C 585.035156 243.777344 585.167969 244.160156 585.167969 244.589844 L 585.167969 450.332031 C 585.167969 450.988281 584.894531 451.496094 584.347656 451.859375 C 584.042969 452.058594 583.707031 452.160156 583.339844 452.164062 Z M 530.378906 425.988281 L 581.511719 447.609375 L 581.511719 246.050781 L 530.378906 234.6875 Z M 530.378906 425.988281 "/><path style=" stroke:none;fill-rule:nonzero;fill:#77b1b7;fill-opacity:1;" d="M 583.339844 272.222656 C 583.160156 272.222656 582.980469 272.199219 582.808594 272.148438 L 528.625 255.464844 C 528.402344 255.386719 528.207031 255.265625 528.03125 255.113281 C 527.855469 254.957031 527.714844 254.773438 527.609375 254.5625 C 527.507812 254.355469 527.445312 254.132812 527.425781 253.898438 C 527.40625 253.664062 527.429688 253.4375 527.5 253.210938 C 527.566406 252.988281 527.675781 252.785156 527.820312 252.601562 C 527.96875 252.417969 528.140625 252.269531 528.347656 252.15625 C 528.550781 252.039062 528.769531 251.964844 529 251.933594 C 529.234375 251.902344 529.460938 251.914062 529.691406 251.972656 L 583.875 268.65625 C 584.085938 268.714844 584.277344 268.8125 584.453125 268.945312 C 584.628906 269.078125 584.777344 269.238281 584.898438 269.421875 C 585.015625 269.609375 585.097656 269.808594 585.140625 270.023438 C 585.1875 270.242188 585.195312 270.457031 585.160156 270.675781 C 585.128906 270.894531 585.058594 271.097656 584.949219 271.289062 C 584.84375 271.484375 584.707031 271.648438 584.535156 271.792969 C 584.367188 271.933594 584.179688 272.042969 583.972656 272.117188 C 583.765625 272.191406 583.550781 272.226562 583.332031 272.222656 Z M 583.339844 272.222656 "/><path style=" stroke:none;fill-rule:nonzero;fill:#77b1b7;fill-opacity:1;" d="M 581.011719 291.359375 L 528.050781 274.675781 L 527.84375 259.550781 L 584.457031 276.226562 Z M 581.011719 291.359375 "/><path style=" stroke:none;fill-rule:nonzero;fill:#77b1b7;fill-opacity:1;" d="M 546.570312 437.152344 C 546.324219 437.152344 546.089844 437.105469 545.867188 437.011719 C 545.640625 436.917969 545.441406 436.785156 545.269531 436.609375 C 545.097656 436.4375 544.96875 436.238281 544.875 436.011719 C 544.785156 435.785156 544.738281 435.550781 544.742188 435.308594 L 544.742188 236.683594 C 544.757812 236.449219 544.8125 236.230469 544.914062 236.019531 C 545.011719 235.8125 545.148438 235.628906 545.316406 235.46875 C 545.484375 235.308594 545.679688 235.1875 545.894531 235.101562 C 546.109375 235.019531 546.332031 234.976562 546.566406 234.976562 C 546.796875 234.976562 547.023438 235.019531 547.238281 235.101562 C 547.453125 235.1875 547.644531 235.308594 547.816406 235.46875 C 547.984375 235.628906 548.117188 235.8125 548.21875 236.019531 C 548.316406 236.230469 548.375 236.449219 548.390625 236.683594 L 548.390625 435.308594 C 548.394531 435.550781 548.351562 435.785156 548.257812 436.011719 C 548.167969 436.238281 548.039062 436.4375 547.867188 436.609375 C 547.695312 436.785156 547.496094 436.917969 547.273438 437.011719 C 547.046875 437.105469 546.8125 437.152344 546.570312 437.152344 Z M 546.570312 437.152344 "/><path style=" stroke:none;fill-rule:nonzero;fill:#77b1b7;fill-opacity:1;" d="M 566.050781 444.453125 C 565.808594 444.453125 565.574219 444.40625 565.351562 444.3125 C 565.125 444.21875 564.929688 444.089844 564.757812 443.917969 C 564.585938 443.746094 564.453125 443.546875 564.359375 443.324219 C 564.265625 443.097656 564.222656 442.867188 564.222656 442.625 L 564.222656 241.554688 C 564.203125 241.300781 564.238281 241.054688 564.324219 240.816406 C 564.40625 240.578125 564.535156 240.367188 564.710938 240.183594 C 564.882812 239.996094 565.085938 239.855469 565.316406 239.753906 C 565.550781 239.652344 565.792969 239.601562 566.046875 239.601562 C 566.300781 239.601562 566.542969 239.652344 566.773438 239.753906 C 567.007812 239.855469 567.207031 239.996094 567.382812 240.183594 C 567.554688 240.367188 567.683594 240.578125 567.769531 240.816406 C 567.855469 241.054688 567.886719 241.300781 567.871094 241.554688 L 567.871094 442.625 C 567.871094 442.863281 567.824219 443.097656 567.734375 443.320312 C 567.640625 443.542969 567.507812 443.742188 567.339844 443.914062 C 567.167969 444.085938 566.96875 444.21875 566.746094 444.3125 C 566.523438 444.402344 566.292969 444.449219 566.050781 444.453125 Z M 566.050781 444.453125 "/><path style=" stroke:none;fill-rule:nonzero;fill:#ffffff;fill-opacity:1;" d="M 580.445312 742.472656 C 579.621094 742.46875 578.929688 742.171875 578.363281 741.578125 L 526.925781 687.84375 C 526.378906 687.292969 526.105469 686.628906 526.105469 685.851562 L 526.105469 679.222656 C 526.105469 678.65625 526.257812 678.136719 526.5625 677.660156 C 526.867188 677.183594 527.277344 676.828125 527.792969 676.59375 C 528.308594 676.359375 528.847656 676.28125 529.40625 676.363281 C 529.964844 676.445312 530.460938 676.671875 530.886719 677.042969 L 560.695312 706.035156 C 561.679688 706.996094 562.703125 707.949219 563.761719 708.867188 C 568.886719 713.359375 581.050781 724.140625 583.117188 727.238281 C 583.253906 727.441406 583.324219 727.667969 583.324219 727.910156 L 583.324219 739.609375 C 583.324219 740.199219 583.160156 740.738281 582.832031 741.226562 C 582.5 741.71875 582.058594 742.070312 581.511719 742.289062 C 581.167969 742.417969 580.8125 742.476562 580.445312 742.472656 Z M 529.042969 678.757812 C 528.964844 678.761719 528.890625 678.78125 528.820312 678.8125 C 528.636719 678.890625 528.550781 679.027344 528.558594 679.222656 L 528.558594 685.851562 C 528.554688 685.972656 528.597656 686.074219 528.679688 686.164062 L 580.125 739.894531 C 580.257812 740.09375 580.4375 740.152344 580.664062 740.0625 C 580.886719 739.976562 580.980469 739.8125 580.945312 739.574219 L 580.945312 728.304688 C 579.207031 726.027344 572.292969 719.519531 562.210938 710.695312 C 561.128906 709.753906 560.0625 708.769531 559.054688 707.785156 L 529.253906 678.828125 C 529.191406 678.78125 529.121094 678.757812 529.042969 678.757812 Z M 529.042969 678.757812 "/><path style=" stroke:none;fill-rule:nonzero;fill:#ffffff;fill-opacity:1;" d="M 753.5625 470.3125 C 753.425781 471.328125 753.167969 472.304688 752.78125 473.25 C 752.394531 474.195312 751.894531 475.078125 751.28125 475.894531 C 750.667969 476.710938 749.960938 477.4375 749.160156 478.070312 C 748.359375 478.707031 747.492188 479.230469 746.554688 479.640625 C 744.820312 480.363281 743.039062 480.488281 741.214844 480.015625 C 740.230469 479.722656 739.339844 479.25 738.546875 478.597656 C 737.753906 477.941406 737.121094 477.15625 736.648438 476.242188 C 735.648438 474.628906 735.066406 472.871094 734.902344 470.976562 C 734.746094 469.132812 734.554688 467.214844 734.359375 465.238281 C 734.144531 463.0625 733.933594 461.136719 733.679688 459.496094 C 733.425781 457.855469 733.144531 455.945312 732.859375 453.753906 C 731.929688 447.777344 730.917969 441.875 729.824219 436.054688 C 728.730469 430.230469 727.460938 424.363281 726.019531 418.460938 C 723.984375 423.453125 722.054688 428.449219 720.226562 433.355469 C 718.398438 438.257812 716.59375 443.28125 714.738281 448.199219 C 713.363281 451.875 711.925781 455.582031 710.546875 459.332031 C 709.183594 463.042969 707.585938 466.652344 705.75 470.15625 C 705.050781 471.460938 704.035156 472.4375 702.707031 473.085938 C 701.277344 473.84375 699.753906 474.273438 698.136719 474.375 C 696.566406 474.492188 695.042969 474.28125 693.5625 473.742188 C 692.15625 473.242188 691.089844 472.34375 690.363281 471.042969 C 685.988281 463 681.671875 455.386719 677.410156 448.199219 C 673.144531 441.015625 668.882812 434.167969 664.617188 427.390625 C 664.105469 431.878906 663.648438 436.332031 663.238281 440.820312 C 662.828125 445.304688 662.277344 449.839844 661.867188 454.3125 C 661.746094 455.699219 661.664062 457.460938 661.566406 459.527344 C 661.464844 461.59375 661.285156 463.710938 661.03125 465.859375 C 660.777344 468.007812 660.472656 470.117188 660.121094 472.144531 C 659.882812 473.863281 659.296875 475.457031 658.367188 476.925781 C 657.828125 477.828125 657.144531 478.609375 656.316406 479.261719 C 655.492188 479.914062 654.574219 480.394531 653.566406 480.707031 C 651.652344 481.296875 649.71875 481.34375 647.777344 480.84375 C 645.878906 480.351562 644.304688 479.347656 643.050781 477.835938 C 642.402344 477.039062 641.925781 476.152344 641.625 475.171875 C 641.324219 474.191406 641.214844 473.191406 641.304688 472.167969 C 641.492188 468.335938 641.863281 464.652344 642.371094 461.117188 C 642.878906 457.582031 643.347656 454.074219 643.742188 450.59375 C 644.5625 443.058594 645.382812 435.726562 646.25 428.328125 C 647.121094 420.929688 648.015625 413.277344 648.769531 405.15625 C 648.980469 402.835938 649.527344 400.59375 650.410156 398.4375 C 651.230469 396.3125 653.125 394.679688 655.972656 393.476562 C 657.082031 392.960938 658.25 392.660156 659.472656 392.582031 C 660.628906 392.488281 661.746094 392.648438 662.828125 393.074219 C 665.070312 394.035156 666.824219 395.5625 668.085938 397.652344 L 671.660156 403.515625 C 673.589844 406.507812 675.476562 409.511719 677.296875 412.539062 C 679.117188 415.5625 681.011719 418.625 682.785156 421.660156 C 685.039062 425.496094 687.277344 429.457031 689.566406 433.371094 C 691.855469 437.285156 694.210938 441.300781 696.652344 445.445312 C 697.261719 443.972656 697.84375 442.503906 698.402344 441.039062 C 698.957031 439.570312 699.550781 438.09375 700.15625 436.609375 C 701.25 434.035156 702.292969 431.425781 703.28125 428.785156 C 704.242188 426.152344 705.21875 423.480469 706.25 420.886719 C 707.613281 417.476562 709.015625 414.039062 710.285156 410.675781 C 711.558594 407.3125 712.746094 403.777344 714.019531 400.382812 C 714.960938 397.839844 716.003906 395.035156 716.914062 392.054688 C 717.773438 389.152344 719.246094 386.601562 721.335938 384.402344 C 722.558594 382.929688 724.105469 381.984375 725.976562 381.574219 C 727.570312 381.285156 729.125 381.421875 730.644531 381.992188 C 732.195312 382.589844 733.515625 383.519531 734.605469 384.773438 C 735.796875 386.078125 736.636719 387.578125 737.125 389.277344 C 737.753906 391.523438 738.445312 394.199219 739.257812 397.050781 C 740.066406 399.90625 740.78125 402.523438 741.386719 404.804688 C 742.480469 408.964844 743.496094 413.039062 744.429688 417.03125 C 745.351562 421.019531 746.195312 425.101562 747.023438 429.1875 C 748.402344 435.914062 749.6875 442.613281 750.753906 449.210938 C 751.820312 455.804688 752.765625 462.496094 753.578125 469.296875 Z M 753.5625 470.3125 "/><path style=" stroke:none;fill-rule:nonzero;fill:#ffffff;fill-opacity:1;" d="M 757.890625 385.90625 C 758.292969 382.230469 759.589844 379.507812 761.769531 377.761719 C 762.242188 377.34375 762.746094 376.972656 763.285156 376.648438 C 763.828125 376.328125 764.390625 376.054688 764.980469 375.839844 C 765.570312 375.621094 766.175781 375.457031 766.796875 375.351562 C 767.417969 375.246094 768.039062 375.199219 768.667969 375.207031 C 769.296875 375.21875 769.921875 375.285156 770.539062 375.410156 C 771.152344 375.535156 771.753906 375.714844 772.335938 375.953125 C 772.917969 376.1875 773.476562 376.476562 774.003906 376.816406 C 774.535156 377.15625 775.027344 377.542969 775.484375 377.972656 C 777.570312 379.761719 778.617188 382.328125 778.765625 385.519531 C 778.914062 388.710938 778.085938 391.417969 776.109375 393.238281 C 775.179688 394.117188 774.136719 394.828125 772.976562 395.367188 C 771.8125 395.902344 770.597656 396.242188 769.324219 396.378906 C 768.054688 396.519531 766.800781 396.421875 765.566406 396.09375 C 764.332031 395.765625 763.199219 395.226562 762.164062 394.476562 C 759.933594 392.921875 758.566406 390.414062 758.0625 386.945312 C 757.980469 386.527344 757.949219 386.324219 757.890625 385.90625 Z M 778.003906 468.117188 C 777.796875 470.117188 777.085938 471.921875 775.871094 473.527344 C 774.753906 475.078125 773.355469 476.3125 771.679688 477.226562 C 770.074219 478.074219 768.375 478.371094 766.578125 478.113281 C 765.609375 477.960938 764.707031 477.636719 763.863281 477.136719 C 763.019531 476.640625 762.296875 476.007812 761.695312 475.234375 C 760.875 474.292969 760.289062 473.222656 759.941406 472.019531 C 759.582031 470.773438 759.355469 469.5 759.261719 468.207031 C 759.160156 466.871094 759.132812 465.539062 759.1875 464.203125 C 759.238281 462.867188 759.269531 461.652344 759.261719 460.578125 C 759.210938 454.835938 759.128906 449.039062 759.1875 443.351562 C 759.246094 437.667969 759.1875 431.9375 759.105469 426.234375 C 759.097656 423.863281 758.945312 421.5 758.652344 419.148438 C 758.328125 416.746094 758.480469 414.378906 759.105469 412.039062 C 759.347656 411.191406 759.683594 410.390625 760.121094 409.625 C 760.554688 408.863281 761.074219 408.164062 761.679688 407.523438 C 762.28125 406.886719 762.953125 406.332031 763.691406 405.855469 C 764.429688 405.378906 765.214844 405 766.042969 404.710938 C 767.648438 404.1875 769.269531 404.109375 770.917969 404.476562 C 772.71875 404.941406 774.164062 405.925781 775.253906 407.4375 C 776.773438 409.3125 777.714844 411.199219 777.714844 413.070312 L 777.714844 429.640625 C 777.714844 432.917969 777.789062 436.101562 777.871094 439.234375 C 777.996094 443.804688 778.027344 448.429688 778.027344 453.066406 L 778.027344 468.117188 Z M 778.003906 468.117188 "/><path style=" stroke:none;fill-rule:nonzero;fill:#ffffff;fill-opacity:1;" d="M 812.5 461.554688 C 813.6875 462.574219 814.625 463.785156 815.324219 465.1875 C 816.066406 466.59375 816.46875 468.09375 816.539062 469.683594 C 816.589844 471.230469 816.234375 472.675781 815.472656 474.019531 C 815.011719 474.769531 814.433594 475.414062 813.738281 475.949219 C 813.042969 476.488281 812.277344 476.882812 811.433594 477.136719 C 809.789062 477.664062 808.109375 477.777344 806.40625 477.472656 C 804.523438 477.191406 802.71875 476.644531 800.992188 475.832031 C 799.285156 475.050781 797.710938 474.054688 796.269531 472.847656 C 794.96875 471.785156 793.980469 470.488281 793.300781 468.953125 C 793.082031 468.421875 792.929688 467.875 792.839844 467.3125 C 792.75 466.769531 792.703125 466.222656 792.695312 465.671875 L 792.695312 386.355469 C 792.683594 385.246094 792.914062 384.191406 793.378906 383.183594 C 793.847656 382.179688 794.507812 381.324219 795.359375 380.613281 C 797.019531 379.058594 798.972656 378.121094 801.222656 377.800781 C 802.351562 377.707031 803.445312 377.851562 804.503906 378.242188 C 805.6875 378.648438 806.78125 379.21875 807.785156 379.957031 C 808.777344 380.671875 809.613281 381.535156 810.304688 382.542969 C 810.949219 383.472656 811.277344 384.503906 811.289062 385.632812 L 811.289062 395.632812 C 811.289062 399.746094 811.316406 404.195312 811.371094 408.984375 C 811.425781 413.777344 811.449219 418.699219 811.445312 423.75 C 811.445312 428.828125 811.445312 433.683594 811.371094 438.359375 C 811.296875 443.035156 811.289062 447.378906 811.289062 451.269531 C 811.289062 455.15625 811.238281 458.394531 811.140625 460.800781 Z M 812.5 461.554688 "/><path style=" stroke:none;fill-rule:nonzero;fill:#ffffff;fill-opacity:1;" d="M 845.777344 470.148438 C 843.96875 471.753906 841.859375 472.675781 839.453125 472.914062 C 838.394531 473 837.363281 472.871094 836.355469 472.53125 C 835.347656 472.1875 834.449219 471.660156 833.664062 470.945312 C 832.023438 469.484375 831.152344 467.328125 831.152344 464.523438 L 831.152344 384.789062 C 831.148438 383.296875 831.578125 381.949219 832.449219 380.738281 C 833.324219 379.484375 834.417969 378.46875 835.730469 377.6875 C 837.074219 376.878906 838.519531 376.355469 840.070312 376.113281 C 841.527344 375.847656 842.976562 375.898438 844.417969 376.257812 C 845.792969 376.640625 846.9375 377.386719 847.84375 378.488281 C 848.90625 379.847656 849.441406 381.386719 849.445312 383.109375 C 849.789062 390.613281 849.894531 397.125 849.894531 402.792969 C 849.894531 408.460938 849.847656 413.996094 849.746094 419.589844 C 852.089844 417.949219 854.296875 416.273438 856.375 414.554688 C 858.457031 412.824219 860.558594 411.054688 862.542969 409.222656 C 864.453125 407.433594 866.230469 405.519531 867.875 403.480469 C 869.605469 401.328125 871.792969 399.847656 874.4375 399.035156 C 876.214844 398.472656 878.019531 398.363281 879.851562 398.707031 C 881.449219 399.003906 882.871094 399.671875 884.113281 400.71875 C 885.273438 401.683594 886.058594 402.894531 886.476562 404.34375 C 886.898438 405.898438 886.796875 407.417969 886.175781 408.902344 C 885.296875 410.609375 884.15625 412.109375 882.746094 413.40625 C 880.960938 415.21875 878.980469 417.09375 876.796875 419.035156 C 874.617188 420.976562 872.460938 422.796875 870.328125 424.496094 C 868.195312 426.1875 866.464844 427.523438 865.144531 428.472656 C 868.695312 431.515625 872.207031 434.558594 875.660156 437.695312 C 879.113281 440.828125 882.613281 443.976562 886.175781 447.25 C 887.691406 448.675781 889.144531 449.972656 890.511719 451.144531 C 891.957031 452.382812 893.152344 453.824219 894.097656 455.476562 C 894.925781 456.90625 895.175781 458.433594 894.851562 460.054688 C 894.558594 461.652344 893.875 463.058594 892.800781 464.277344 C 891.703125 465.523438 890.382812 466.457031 888.839844 467.074219 C 887.175781 467.738281 885.472656 467.867188 883.730469 467.46875 C 881.890625 467.039062 880.214844 466.261719 878.703125 465.136719 C 877.074219 463.964844 875.527344 462.699219 874.058594 461.332031 C 872.582031 459.960938 871.1875 458.554688 869.867188 457.117188 C 868.714844 455.84375 867.492188 454.640625 866.210938 453.5 C 863.476562 450.945312 860.757812 448.445312 858.058594 445.996094 C 855.355469 443.542969 852.589844 441.144531 849.757812 438.792969 L 849.757812 462.816406 C 849.132812 465.984375 847.8125 468.476562 845.777344 470.148438 Z M 845.777344 470.148438 "/><path style=" stroke:none;fill-rule:nonzero;fill:#ffffff;fill-opacity:1;" d="M 683.972656 569.488281 C 682.449219 569.101562 680.957031 568.625 679.492188 568.058594 C 678.03125 567.492188 676.605469 566.835938 675.222656 566.09375 C 673.839844 565.347656 672.507812 564.523438 671.226562 563.617188 C 669.945312 562.707031 668.726562 561.726562 667.566406 560.667969 C 666.40625 559.609375 665.316406 558.484375 664.292969 557.292969 C 663.273438 556.101562 662.328125 554.851562 661.460938 553.542969 C 660.59375 552.234375 659.808594 550.875 659.109375 549.472656 C 658.410156 548.066406 657.796875 546.621094 657.273438 545.140625 C 657.125 544.640625 657.074219 544.128906 657.125 543.605469 C 657.171875 543.085938 657.316406 542.589844 657.558594 542.125 C 657.796875 541.660156 658.117188 541.253906 658.515625 540.910156 C 658.910156 540.570312 659.355469 540.3125 659.851562 540.144531 C 660.347656 539.972656 660.859375 539.902344 661.382812 539.929688 C 661.90625 539.957031 662.40625 540.082031 662.878906 540.304688 C 663.355469 540.527344 663.773438 540.828125 664.128906 541.210938 C 664.488281 541.59375 664.761719 542.027344 664.953125 542.519531 C 665.402344 543.839844 665.945312 545.125 666.582031 546.375 C 667.214844 547.621094 667.9375 548.816406 668.742188 549.957031 C 669.546875 551.101562 670.429688 552.183594 671.386719 553.199219 C 672.347656 554.21875 673.375 555.164062 674.46875 556.035156 C 675.5625 556.90625 676.710938 557.695312 677.917969 558.402344 C 679.125 559.109375 680.375 559.730469 681.671875 560.257812 C 682.964844 560.789062 684.289062 561.222656 685.648438 561.5625 C 687.003906 561.902344 688.378906 562.144531 689.769531 562.289062 C 691.160156 562.433594 692.554688 562.476562 693.953125 562.421875 C 695.351562 562.367188 696.738281 562.214844 698.113281 561.960938 C 699.488281 561.707031 700.839844 561.359375 702.164062 560.914062 C 703.492188 560.46875 704.777344 559.929688 706.027344 559.300781 C 707.277344 558.671875 708.476562 557.960938 709.625 557.160156 C 710.769531 556.359375 711.855469 555.484375 712.878906 554.527344 C 713.898438 553.574219 714.851562 552.550781 715.726562 551.460938 C 716.601562 550.371094 717.398438 549.226562 718.109375 548.019531 C 718.277344 547.746094 718.476562 547.492188 718.707031 547.261719 C 718.933594 547.035156 719.183594 546.835938 719.460938 546.664062 C 719.734375 546.496094 720.027344 546.359375 720.332031 546.257812 C 720.640625 546.15625 720.957031 546.09375 721.277344 546.066406 C 721.601562 546.042969 721.921875 546.054688 722.242188 546.101562 C 722.5625 546.152344 722.871094 546.238281 723.167969 546.359375 C 723.46875 546.484375 723.75 546.640625 724.011719 546.828125 C 724.273438 547.019531 724.511719 547.234375 724.722656 547.480469 C 725.117188 547.957031 725.53125 548.417969 725.957031 548.867188 C 726.382812 549.316406 726.820312 549.753906 727.273438 550.175781 C 727.722656 550.601562 728.1875 551.007812 728.664062 551.402344 C 729.140625 551.796875 729.632812 552.179688 730.132812 552.542969 C 730.632812 552.90625 731.140625 553.257812 731.664062 553.589844 C 732.183594 553.925781 732.71875 554.242188 733.257812 554.542969 C 733.796875 554.84375 734.347656 555.128906 734.90625 555.394531 C 735.464844 555.664062 736.03125 555.914062 736.605469 556.148438 C 737.179688 556.378906 737.757812 556.59375 738.34375 556.792969 C 738.933594 556.988281 739.523438 557.167969 740.121094 557.332031 C 740.71875 557.492188 741.320312 557.636719 741.929688 557.761719 C 742.535156 557.882812 743.144531 557.992188 743.757812 558.078125 C 744.371094 558.164062 744.984375 558.234375 745.601562 558.285156 C 746.21875 558.332031 746.835938 558.363281 747.457031 558.375 C 748.074219 558.386719 748.695312 558.382812 749.3125 558.355469 C 749.933594 558.332031 750.550781 558.285156 751.164062 558.222656 C 751.78125 558.160156 752.394531 558.078125 753.003906 557.976562 C 753.617188 557.875 754.222656 557.753906 754.828125 557.617188 C 755.429688 557.480469 756.027344 557.324219 756.625 557.148438 C 757.21875 556.972656 757.804688 556.78125 758.386719 556.570312 C 758.96875 556.359375 759.546875 556.132812 760.113281 555.886719 C 760.683594 555.640625 761.242188 555.378906 761.792969 555.097656 C 762.347656 554.816406 762.890625 554.519531 763.425781 554.207031 C 763.957031 553.894531 764.480469 553.566406 764.996094 553.21875 C 765.511719 552.875 766.011719 552.515625 766.503906 552.140625 C 766.996094 551.761719 767.476562 551.371094 767.945312 550.96875 C 768.414062 550.5625 768.867188 550.144531 769.3125 549.710938 C 769.753906 549.277344 770.183594 548.832031 770.597656 548.371094 C 771.015625 547.914062 771.414062 547.441406 771.800781 546.957031 C 772.1875 546.472656 772.558594 545.980469 772.914062 545.472656 C 773.273438 544.964844 773.613281 544.449219 773.9375 543.921875 C 774.261719 543.394531 774.570312 542.859375 774.863281 542.3125 C 775.046875 541.96875 775.273438 541.65625 775.546875 541.378906 C 775.820312 541.101562 776.128906 540.867188 776.46875 540.675781 C 776.8125 540.488281 777.171875 540.347656 777.554688 540.265625 C 777.933594 540.179688 778.320312 540.148438 778.707031 540.171875 C 779.097656 540.199219 779.476562 540.277344 779.84375 540.414062 C 780.210938 540.546875 780.550781 540.730469 780.863281 540.964844 C 781.175781 541.195312 781.449219 541.46875 781.683594 541.78125 C 781.921875 542.09375 782.105469 542.429688 782.242188 542.796875 C 785.222656 550.695312 794.785156 555.992188 804.511719 555.101562 C 813.214844 554.28125 822.089844 549.234375 829.519531 540.777344 C 829.742188 540.527344 829.988281 540.308594 830.265625 540.117188 C 830.539062 539.929688 830.832031 539.777344 831.144531 539.660156 C 831.457031 539.542969 831.78125 539.464844 832.113281 539.425781 C 832.445312 539.390625 832.777344 539.394531 833.105469 539.4375 C 833.4375 539.480469 833.757812 539.566406 834.070312 539.6875 C 834.378906 539.8125 834.667969 539.96875 834.941406 540.164062 C 835.210938 540.359375 835.453125 540.585938 835.671875 540.839844 C 835.886719 541.097656 836.066406 541.375 836.214844 541.671875 C 838.578125 546.511719 843.988281 549.875 850.363281 550.441406 C 856.734375 551.007812 862.667969 548.6875 865.847656 544.347656 C 866.007812 544.132812 866.183594 543.933594 866.382812 543.753906 C 866.578125 543.574219 866.792969 543.414062 867.019531 543.273438 C 867.25 543.136719 867.488281 543.019531 867.738281 542.929688 C 867.992188 542.839844 868.246094 542.773438 868.511719 542.730469 C 868.777344 542.691406 869.042969 542.675781 869.308594 542.6875 C 869.574219 542.699219 869.839844 542.738281 870.097656 542.800781 C 870.359375 542.867188 870.609375 542.953125 870.851562 543.066406 C 871.09375 543.179688 871.320312 543.316406 871.535156 543.472656 C 871.753906 543.632812 871.949219 543.808594 872.128906 544.007812 C 872.3125 544.203125 872.472656 544.414062 872.609375 544.644531 C 872.746094 544.871094 872.863281 545.113281 872.953125 545.363281 C 873.046875 545.613281 873.109375 545.871094 873.152344 546.136719 C 873.191406 546.402344 873.207031 546.667969 873.195312 546.933594 C 873.183594 547.199219 873.144531 547.464844 873.082031 547.722656 C 873.019531 547.980469 872.929688 548.234375 872.816406 548.476562 C 872.703125 548.71875 872.570312 548.945312 872.410156 549.160156 C 867.488281 555.871094 858.976562 559.375 849.65625 558.527344 C 842.457031 557.878906 836.191406 554.761719 832.03125 549.925781 C 823.96875 557.683594 814.609375 562.34375 805.257812 563.1875 C 794.496094 564.148438 784.113281 559.621094 778.191406 551.933594 C 777.375 552.964844 776.503906 553.949219 775.585938 554.890625 C 774.667969 555.828125 773.703125 556.722656 772.691406 557.5625 C 771.683594 558.402344 770.632812 559.191406 769.542969 559.925781 C 768.449219 560.660156 767.324219 561.335938 766.164062 561.953125 C 765.003906 562.574219 763.816406 563.128906 762.597656 563.628906 C 761.378906 564.125 760.140625 564.554688 758.878906 564.925781 C 757.617188 565.296875 756.339844 565.597656 755.046875 565.835938 C 753.753906 566.074219 752.449219 566.246094 751.140625 566.351562 C 749.828125 566.457031 748.515625 566.496094 747.203125 566.464844 C 745.886719 566.4375 744.578125 566.339844 743.273438 566.175781 C 741.96875 566.011719 740.675781 565.78125 739.394531 565.484375 C 738.113281 565.1875 736.851562 564.828125 735.605469 564.398438 C 734.363281 563.972656 733.144531 563.484375 731.949219 562.933594 C 730.757812 562.382812 729.59375 561.773438 728.460938 561.101562 C 727.332031 560.433594 726.238281 559.707031 725.179688 558.921875 C 724.125 558.140625 723.109375 557.308594 722.136719 556.421875 C 721.152344 557.632812 720.09375 558.78125 718.96875 559.863281 C 717.839844 560.945312 716.652344 561.953125 715.402344 562.890625 C 714.148438 563.828125 712.847656 564.683594 711.492188 565.460938 C 710.132812 566.238281 708.734375 566.929688 707.296875 567.535156 C 705.855469 568.140625 704.382812 568.65625 702.878906 569.082031 C 701.375 569.507812 699.851562 569.839844 698.304688 570.078125 C 696.761719 570.316406 695.207031 570.460938 693.644531 570.507812 C 692.082031 570.554688 690.523438 570.507812 688.96875 570.363281 C 687.28125 570.1875 685.617188 569.898438 683.972656 569.488281 Z M 683.972656 569.488281 "/><path style=" stroke:none;fill-rule:nonzero;fill:#ffffff;fill-opacity:1;" d="M 687.625 607.226562 C 686.101562 606.839844 684.609375 606.363281 683.144531 605.796875 C 681.679688 605.226562 680.257812 604.570312 678.875 603.828125 C 677.492188 603.085938 676.160156 602.257812 674.878906 601.351562 C 673.597656 600.445312 672.378906 599.460938 671.21875 598.402344 C 670.058594 597.34375 668.96875 596.21875 667.945312 595.027344 C 666.925781 593.835938 665.980469 592.585938 665.113281 591.277344 C 664.246094 589.96875 663.460938 588.613281 662.761719 587.207031 C 662.058594 585.804688 661.449219 584.359375 660.925781 582.878906 C 660.761719 582.375 660.703125 581.855469 660.746094 581.328125 C 660.789062 580.796875 660.929688 580.292969 661.167969 579.820312 C 661.40625 579.34375 661.726562 578.933594 662.128906 578.585938 C 662.53125 578.234375 662.980469 577.976562 663.484375 577.804688 C 663.988281 577.632812 664.503906 577.5625 665.035156 577.59375 C 665.566406 577.625 666.070312 577.757812 666.550781 577.988281 C 667.03125 578.21875 667.445312 578.527344 667.804688 578.921875 C 668.160156 579.316406 668.429688 579.765625 668.609375 580.265625 C 669.0625 581.585938 669.605469 582.871094 670.242188 584.117188 C 670.878906 585.363281 671.597656 586.558594 672.402344 587.699219 C 673.207031 588.84375 674.089844 589.921875 675.050781 590.941406 C 676.011719 591.957031 677.039062 592.902344 678.132812 593.773438 C 679.226562 594.640625 680.375 595.429688 681.582031 596.136719 C 682.789062 596.84375 684.039062 597.460938 685.335938 597.992188 C 686.628906 598.519531 687.953125 598.953125 689.3125 599.292969 C 690.667969 599.632812 692.039062 599.875 693.429688 600.019531 C 694.824219 600.160156 696.214844 600.207031 697.613281 600.152344 C 699.011719 600.097656 700.398438 599.941406 701.773438 599.691406 C 703.148438 599.4375 704.5 599.089844 705.824219 598.644531 C 707.148438 598.199219 708.4375 597.664062 709.6875 597.035156 C 710.933594 596.40625 712.132812 595.691406 713.28125 594.890625 C 714.429688 594.09375 715.511719 593.214844 716.535156 592.261719 C 717.558594 591.308594 718.507812 590.285156 719.382812 589.199219 C 720.261719 588.109375 721.054688 586.960938 721.769531 585.757812 C 721.933594 585.480469 722.128906 585.222656 722.355469 584.992188 C 722.582031 584.757812 722.832031 584.558594 723.109375 584.382812 C 723.382812 584.210938 723.675781 584.074219 723.984375 583.972656 C 724.292969 583.871094 724.609375 583.808594 724.933594 583.78125 C 725.253906 583.753906 725.578125 583.765625 725.898438 583.820312 C 726.21875 583.871094 726.527344 583.957031 726.828125 584.085938 C 727.128906 584.210938 727.40625 584.371094 727.667969 584.5625 C 727.929688 584.753906 728.164062 584.976562 728.371094 585.226562 C 728.769531 585.703125 729.179688 586.164062 729.605469 586.613281 C 730.03125 587.0625 730.46875 587.5 730.921875 587.921875 C 731.375 588.347656 731.839844 588.753906 732.316406 589.148438 C 732.792969 589.542969 733.28125 589.921875 733.78125 590.289062 C 734.28125 590.652344 734.792969 591.003906 735.316406 591.335938 C 735.835938 591.667969 736.367188 591.988281 736.910156 592.289062 C 737.449219 592.589844 738 592.875 738.558594 593.140625 C 739.117188 593.410156 739.683594 593.660156 740.257812 593.890625 C 740.828125 594.125 741.410156 594.339844 741.996094 594.539062 C 742.582031 594.734375 743.175781 594.914062 743.773438 595.074219 C 744.371094 595.238281 744.972656 595.378906 745.582031 595.503906 C 746.1875 595.628906 746.796875 595.734375 747.410156 595.820312 C 748.023438 595.910156 748.636719 595.976562 749.253906 596.027344 C 749.871094 596.078125 750.488281 596.109375 751.109375 596.121094 C 751.726562 596.132812 752.347656 596.125 752.964844 596.097656 C 753.585938 596.074219 754.203125 596.027344 754.816406 595.964844 C 755.433594 595.902344 756.046875 595.820312 756.65625 595.71875 C 757.269531 595.617188 757.875 595.496094 758.480469 595.359375 C 759.082031 595.222656 759.679688 595.066406 760.273438 594.890625 C 760.871094 594.714844 761.457031 594.523438 762.039062 594.3125 C 762.621094 594.101562 763.195312 593.871094 763.765625 593.628906 C 764.332031 593.382812 764.894531 593.117188 765.445312 592.839844 C 766 592.558594 766.542969 592.261719 767.074219 591.949219 C 767.609375 591.636719 768.132812 591.304688 768.648438 590.960938 C 769.160156 590.617188 769.664062 590.253906 770.15625 589.878906 C 770.648438 589.503906 771.128906 589.113281 771.597656 588.707031 C 772.066406 588.300781 772.519531 587.882812 772.960938 587.449219 C 773.40625 587.015625 773.835938 586.570312 774.25 586.113281 C 774.664062 585.652344 775.066406 585.179688 775.453125 584.695312 C 775.839844 584.214844 776.210938 583.71875 776.566406 583.210938 C 776.921875 582.703125 777.261719 582.1875 777.585938 581.660156 C 777.910156 581.132812 778.21875 580.597656 778.511719 580.050781 C 778.898438 579.363281 779.441406 578.832031 780.132812 578.457031 C 780.828125 578.082031 781.570312 577.917969 782.359375 577.972656 C 783.144531 578.023438 783.859375 578.28125 784.496094 578.746094 C 785.136719 579.210938 785.601562 579.808594 785.894531 580.542969 C 788.863281 588.441406 798.433594 593.742188 808.15625 592.847656 C 816.855469 592.027344 825.738281 586.980469 833.164062 578.523438 C 833.382812 578.273438 833.632812 578.054688 833.90625 577.863281 C 834.179688 577.671875 834.476562 577.519531 834.789062 577.402344 C 835.101562 577.285156 835.425781 577.207031 835.757812 577.167969 C 836.089844 577.132812 836.421875 577.136719 836.75 577.179688 C 837.082031 577.226562 837.402344 577.308594 837.714844 577.433594 C 838.023438 577.558594 838.316406 577.71875 838.585938 577.914062 C 838.855469 578.109375 839.101562 578.335938 839.316406 578.59375 C 839.53125 578.847656 839.710938 579.125 839.855469 579.425781 C 842.21875 584.257812 847.640625 587.628906 854.003906 588.195312 C 860.371094 588.761719 866.308594 586.433594 869.492188 582.101562 C 869.835938 581.742188 870.230469 581.453125 870.679688 581.238281 C 871.128906 581.019531 871.601562 580.890625 872.097656 580.847656 C 872.59375 580.800781 873.082031 580.847656 873.558594 580.980469 C 874.039062 581.113281 874.480469 581.328125 874.882812 581.621094 C 875.285156 581.917969 875.621094 582.273438 875.894531 582.691406 C 876.164062 583.105469 876.355469 583.558594 876.464844 584.042969 C 876.570312 584.53125 876.589844 585.019531 876.519531 585.515625 C 876.449219 586.007812 876.292969 586.472656 876.050781 586.90625 C 871.132812 593.617188 862.609375 597.121094 853.292969 596.28125 C 846.089844 595.625 839.824219 592.511719 835.664062 587.671875 C 827.601562 595.429688 818.25 600.097656 808.902344 600.933594 C 798.140625 601.894531 787.746094 597.367188 781.832031 589.679688 C 781.015625 590.710938 780.148438 591.695312 779.230469 592.636719 C 778.3125 593.578125 777.347656 594.46875 776.335938 595.3125 C 775.328125 596.152344 774.277344 596.941406 773.183594 597.675781 C 772.09375 598.410156 770.96875 599.085938 769.808594 599.707031 C 768.648438 600.324219 767.457031 600.882812 766.242188 601.378906 C 765.023438 601.875 763.785156 602.308594 762.523438 602.679688 C 761.261719 603.046875 759.984375 603.351562 758.6875 603.589844 C 757.394531 603.828125 756.09375 604.003906 754.785156 604.105469 C 753.472656 604.210938 752.160156 604.25 750.84375 604.21875 C 749.53125 604.191406 748.21875 604.09375 746.914062 603.929688 C 745.609375 603.765625 744.316406 603.535156 743.035156 603.238281 C 741.757812 602.941406 740.492188 602.582031 739.25 602.15625 C 738.003906 601.730469 736.785156 601.242188 735.59375 600.691406 C 734.398438 600.140625 733.234375 599.527344 732.105469 598.859375 C 730.972656 598.1875 729.878906 597.460938 728.820312 596.679688 C 727.765625 595.894531 726.75 595.0625 725.78125 594.175781 C 724.792969 595.386719 723.734375 596.535156 722.609375 597.617188 C 721.480469 598.699219 720.292969 599.707031 719.042969 600.644531 C 717.789062 601.582031 716.488281 602.4375 715.132812 603.214844 C 713.773438 603.992188 712.375 604.683594 710.9375 605.289062 C 709.496094 605.894531 708.023438 606.410156 706.519531 606.835938 C 705.015625 607.261719 703.492188 607.59375 701.945312 607.832031 C 700.402344 608.070312 698.847656 608.210938 697.289062 608.261719 C 695.726562 608.308594 694.167969 608.261719 692.609375 608.117188 C 690.925781 607.9375 689.265625 607.640625 687.625 607.226562 Z M 687.625 607.226562 "/><path style=" stroke:none;fill-rule:nonzero;fill:#ffffff;fill-opacity:1;" d="M 686.410156 651.023438 C 684.886719 650.640625 683.394531 650.164062 681.929688 649.59375 C 680.46875 649.027344 679.042969 648.371094 677.660156 647.628906 C 676.277344 646.882812 674.945312 646.058594 673.664062 645.152344 C 672.386719 644.246094 671.164062 643.261719 670.003906 642.203125 C 668.84375 641.144531 667.753906 640.019531 666.730469 638.828125 C 665.710938 637.636719 664.765625 636.386719 663.898438 635.078125 C 663.03125 633.769531 662.246094 632.414062 661.546875 631.007812 C 660.84375 629.601562 660.234375 628.160156 659.710938 626.679688 C 659.613281 626.425781 659.539062 626.164062 659.492188 625.894531 C 659.449219 625.625 659.429688 625.351562 659.4375 625.078125 C 659.449219 624.804688 659.484375 624.535156 659.546875 624.269531 C 659.609375 624.003906 659.699219 623.746094 659.816406 623.5 C 659.929688 623.25 660.070312 623.015625 660.234375 622.796875 C 660.394531 622.578125 660.578125 622.375 660.78125 622.191406 C 660.984375 622.011719 661.207031 621.851562 661.441406 621.710938 C 661.675781 621.574219 661.925781 621.460938 662.183594 621.371094 C 662.441406 621.28125 662.707031 621.222656 662.976562 621.1875 C 663.25 621.152344 663.519531 621.144531 663.792969 621.164062 C 664.066406 621.183594 664.335938 621.230469 664.597656 621.304688 C 664.863281 621.378906 665.113281 621.480469 665.359375 621.605469 C 665.601562 621.730469 665.828125 621.878906 666.042969 622.050781 C 666.253906 622.222656 666.449219 622.410156 666.625 622.621094 C 666.796875 622.832031 666.949219 623.058594 667.078125 623.300781 C 667.207031 623.542969 667.308594 623.792969 667.386719 624.054688 C 667.839844 625.378906 668.382812 626.664062 669.019531 627.910156 C 669.652344 629.15625 670.371094 630.351562 671.179688 631.496094 C 671.984375 632.640625 672.867188 633.71875 673.824219 634.738281 C 674.785156 635.753906 675.8125 636.699219 676.90625 637.570312 C 678 638.441406 679.148438 639.230469 680.355469 639.9375 C 681.5625 640.644531 682.8125 641.265625 684.109375 641.792969 C 685.402344 642.320312 686.730469 642.757812 688.085938 643.097656 C 689.441406 643.4375 690.816406 643.675781 692.207031 643.820312 C 693.597656 643.964844 694.992188 644.007812 696.390625 643.953125 C 697.789062 643.898438 699.175781 643.746094 700.550781 643.492188 C 701.925781 643.238281 703.277344 642.890625 704.601562 642.445312 C 705.929688 642 707.214844 641.460938 708.464844 640.832031 C 709.714844 640.203125 710.914062 639.488281 712.0625 638.691406 C 713.207031 637.890625 714.292969 637.011719 715.316406 636.058594 C 716.335938 635.105469 717.285156 634.082031 718.164062 632.992188 C 719.039062 631.902344 719.832031 630.753906 720.546875 629.550781 C 720.714844 629.273438 720.914062 629.023438 721.140625 628.792969 C 721.371094 628.566406 721.621094 628.367188 721.898438 628.195312 C 722.171875 628.027344 722.464844 627.890625 722.773438 627.792969 C 723.078125 627.691406 723.394531 627.628906 723.714844 627.601562 C 724.039062 627.574219 724.359375 627.585938 724.679688 627.636719 C 725 627.6875 725.308594 627.773438 725.605469 627.898438 C 725.90625 628.019531 726.1875 628.175781 726.449219 628.367188 C 726.710938 628.554688 726.945312 628.773438 727.15625 629.019531 C 727.554688 629.492188 727.964844 629.953125 728.390625 630.40625 C 728.816406 630.855469 729.257812 631.289062 729.707031 631.714844 C 730.160156 632.136719 730.625 632.542969 731.101562 632.9375 C 731.578125 633.332031 732.066406 633.714844 732.566406 634.078125 C 733.070312 634.441406 733.578125 634.792969 734.101562 635.125 C 734.621094 635.457031 735.152344 635.777344 735.695312 636.078125 C 736.234375 636.378906 736.785156 636.660156 737.34375 636.929688 C 737.902344 637.195312 738.46875 637.445312 739.042969 637.679688 C 739.617188 637.914062 740.195312 638.128906 740.78125 638.324219 C 741.367188 638.523438 741.960938 638.703125 742.558594 638.863281 C 743.15625 639.023438 743.757812 639.167969 744.363281 639.292969 C 744.972656 639.417969 745.582031 639.523438 746.195312 639.609375 C 746.808594 639.699219 747.421875 639.765625 748.039062 639.816406 C 748.65625 639.867188 749.273438 639.894531 749.894531 639.910156 C 750.511719 639.921875 751.128906 639.914062 751.75 639.886719 C 752.367188 639.863281 752.984375 639.816406 753.601562 639.753906 C 754.214844 639.691406 754.828125 639.609375 755.441406 639.507812 C 756.050781 639.40625 756.660156 639.285156 757.261719 639.148438 C 757.863281 639.011719 758.464844 638.855469 759.058594 638.679688 C 759.652344 638.503906 760.238281 638.3125 760.820312 638.101562 C 761.402344 637.890625 761.980469 637.664062 762.546875 637.417969 C 763.117188 637.171875 763.675781 636.910156 764.226562 636.628906 C 764.78125 636.351562 765.324219 636.054688 765.859375 635.742188 C 766.390625 635.429688 766.917969 635.097656 767.429688 634.753906 C 767.945312 634.410156 768.449219 634.050781 768.9375 633.671875 C 769.429688 633.296875 769.910156 632.90625 770.378906 632.503906 C 770.847656 632.097656 771.304688 631.679688 771.746094 631.246094 C 772.1875 630.8125 772.617188 630.367188 773.03125 629.90625 C 773.449219 629.449219 773.847656 628.976562 774.234375 628.492188 C 774.621094 628.011719 774.996094 627.515625 775.351562 627.007812 C 775.707031 626.503906 776.046875 625.988281 776.371094 625.460938 C 776.699219 624.933594 777.003906 624.394531 777.296875 623.851562 C 777.480469 623.503906 777.707031 623.191406 777.980469 622.914062 C 778.253906 622.632812 778.5625 622.398438 778.902344 622.207031 C 779.246094 622.015625 779.605469 621.878906 779.988281 621.789062 C 780.371094 621.703125 780.753906 621.675781 781.144531 621.699219 C 781.535156 621.726562 781.914062 621.804688 782.28125 621.941406 C 782.648438 622.078125 782.988281 622.261719 783.300781 622.496094 C 783.617188 622.726562 783.890625 623 784.125 623.316406 C 784.359375 623.628906 784.542969 623.96875 784.679688 624.335938 C 787.65625 632.234375 797.222656 637.53125 806.949219 636.636719 C 815.652344 635.816406 824.527344 630.765625 831.949219 622.316406 C 832.171875 622.070312 832.421875 621.851562 832.699219 621.667969 C 832.972656 621.480469 833.265625 621.332031 833.578125 621.214844 C 833.890625 621.101562 834.214844 621.027344 834.542969 620.988281 C 834.875 620.953125 835.207031 620.957031 835.535156 621 C 835.863281 621.042969 836.183594 621.128906 836.496094 621.25 C 836.804688 621.371094 837.09375 621.527344 837.367188 621.722656 C 837.636719 621.914062 837.882812 622.136719 838.097656 622.386719 C 838.316406 622.640625 838.5 622.914062 838.648438 623.210938 C 841.011719 628.050781 846.425781 631.414062 852.800781 631.980469 C 859.171875 632.546875 865.101562 630.222656 868.285156 625.886719 C 868.441406 625.667969 868.621094 625.472656 868.816406 625.289062 C 869.015625 625.109375 869.226562 624.949219 869.457031 624.8125 C 869.683594 624.675781 869.925781 624.558594 870.175781 624.46875 C 870.425781 624.375 870.683594 624.308594 870.949219 624.269531 C 871.210938 624.230469 871.476562 624.214844 871.746094 624.226562 C 872.011719 624.238281 872.273438 624.277344 872.535156 624.339844 C 872.792969 624.402344 873.042969 624.492188 873.285156 624.605469 C 873.527344 624.71875 873.757812 624.851562 873.972656 625.011719 C 874.1875 625.167969 874.386719 625.347656 874.566406 625.542969 C 874.746094 625.742188 874.90625 625.953125 875.046875 626.183594 C 875.183594 626.410156 875.300781 626.652344 875.390625 626.902344 C 875.480469 627.152344 875.546875 627.410156 875.589844 627.675781 C 875.628906 627.9375 875.644531 628.203125 875.632812 628.472656 C 875.621094 628.738281 875.582031 629 875.519531 629.261719 C 875.453125 629.519531 875.367188 629.769531 875.253906 630.011719 C 875.140625 630.253906 875.003906 630.484375 874.847656 630.699219 C 869.925781 637.402344 861.410156 640.902344 852.09375 640.066406 C 844.890625 639.417969 838.625 636.292969 834.46875 631.453125 C 826.40625 639.222656 817.046875 643.878906 807.695312 644.726562 C 796.933594 645.683594 786.550781 641.148438 780.628906 633.472656 C 779.808594 634.5 778.941406 635.488281 778.023438 636.425781 C 777.105469 637.367188 776.140625 638.257812 775.128906 639.101562 C 774.117188 639.941406 773.066406 640.730469 771.976562 641.464844 C 770.886719 642.199219 769.761719 642.875 768.601562 643.492188 C 767.441406 644.109375 766.25 644.667969 765.03125 645.164062 C 763.816406 645.660156 762.574219 646.09375 761.3125 646.464844 C 760.050781 646.832031 758.773438 647.136719 757.480469 647.375 C 756.1875 647.613281 754.886719 647.785156 753.574219 647.890625 C 752.265625 647.996094 750.953125 648.03125 749.636719 648.003906 C 748.324219 647.972656 747.011719 647.878906 745.707031 647.714844 C 744.402344 647.550781 743.113281 647.320312 741.832031 647.023438 C 740.550781 646.726562 739.285156 646.363281 738.042969 645.9375 C 736.796875 645.511719 735.578125 645.023438 734.386719 644.472656 C 733.191406 643.921875 732.03125 643.3125 730.898438 642.640625 C 729.765625 641.96875 728.671875 641.246094 727.617188 640.460938 C 726.558594 639.679688 725.546875 638.84375 724.574219 637.957031 C 723.585938 639.171875 722.53125 640.316406 721.402344 641.398438 C 720.273438 642.484375 719.085938 643.492188 717.832031 644.429688 C 716.582031 645.367188 715.277344 646.222656 713.921875 647 C 712.566406 647.777344 711.167969 648.46875 709.726562 649.074219 C 708.285156 649.679688 706.8125 650.195312 705.308594 650.621094 C 703.804688 651.042969 702.28125 651.375 700.734375 651.613281 C 699.191406 651.851562 697.636719 651.996094 696.074219 652.042969 C 694.511719 652.09375 692.953125 652.046875 691.394531 651.902344 C 689.714844 651.726562 688.050781 651.433594 686.410156 651.023438 Z M 686.410156 651.023438 "/><path style=" stroke:none;fill-rule:nonzero;fill:#ffffff;fill-opacity:1;" d="M 672.859375 694.5625 C 671.355469 694.179688 669.925781 693.621094 668.558594 692.882812 C 667.195312 692.148438 665.941406 691.257812 664.796875 690.210938 C 663.652344 689.167969 662.652344 688 661.796875 686.707031 C 660.941406 685.414062 660.253906 684.039062 659.734375 682.578125 C 659.628906 682.324219 659.578125 682.058594 659.582031 681.78125 C 659.589844 681.503906 659.648438 681.238281 659.761719 680.988281 C 659.875 680.734375 660.035156 680.515625 660.238281 680.332031 C 660.445312 680.144531 660.679688 680.007812 660.941406 679.917969 C 661.203125 679.828125 661.46875 679.796875 661.746094 679.820312 C 662.019531 679.839844 662.28125 679.917969 662.523438 680.046875 C 662.769531 680.175781 662.976562 680.351562 663.148438 680.566406 C 663.324219 680.78125 663.445312 681.023438 663.515625 681.289062 C 663.964844 682.59375 664.589844 683.808594 665.386719 684.9375 C 666.183594 686.0625 667.121094 687.054688 668.203125 687.910156 C 669.28125 688.769531 670.460938 689.457031 671.738281 689.980469 C 673.015625 690.5 674.339844 690.832031 675.710938 690.972656 C 677.082031 691.117188 678.449219 691.0625 679.804688 690.816406 C 681.160156 690.566406 682.457031 690.136719 683.691406 689.515625 C 684.921875 688.898438 686.046875 688.121094 687.054688 687.183594 C 688.066406 686.242188 688.925781 685.179688 689.632812 683.996094 C 689.714844 683.859375 689.8125 683.730469 689.921875 683.613281 C 690.035156 683.496094 690.160156 683.394531 690.296875 683.308594 C 690.433594 683.222656 690.578125 683.152344 690.730469 683.101562 C 690.886719 683.050781 691.042969 683.019531 691.203125 683.007812 C 691.367188 682.992188 691.527344 683 691.6875 683.027344 C 691.84375 683.050781 692 683.097656 692.148438 683.160156 C 692.296875 683.222656 692.4375 683.304688 692.566406 683.402344 C 692.695312 683.5 692.8125 683.609375 692.914062 683.734375 C 693.304688 684.203125 693.722656 684.644531 694.167969 685.0625 C 694.613281 685.476562 695.082031 685.867188 695.574219 686.226562 C 696.070312 686.585938 696.582031 686.914062 697.113281 687.210938 C 697.648438 687.507812 698.195312 687.769531 698.761719 688 C 699.328125 688.226562 699.90625 688.421875 700.492188 688.582031 C 701.082031 688.738281 701.679688 688.863281 702.28125 688.949219 C 702.886719 689.035156 703.492188 689.082031 704.101562 689.09375 C 704.710938 689.105469 705.320312 689.082031 705.925781 689.019531 C 706.535156 688.953125 707.136719 688.855469 707.730469 688.71875 C 708.324219 688.582031 708.90625 688.410156 709.480469 688.203125 C 710.054688 687.996094 710.613281 687.753906 711.15625 687.476562 C 711.703125 687.203125 712.226562 686.894531 712.734375 686.554688 C 713.238281 686.214844 713.722656 685.84375 714.183594 685.445312 C 714.644531 685.046875 715.082031 684.621094 715.488281 684.167969 C 715.898438 683.714844 716.277344 683.238281 716.628906 682.738281 C 716.980469 682.242188 717.296875 681.722656 717.585938 681.183594 C 717.769531 680.839844 718.035156 680.570312 718.378906 680.382812 C 718.722656 680.191406 719.089844 680.109375 719.480469 680.136719 C 719.871094 680.160156 720.222656 680.289062 720.539062 680.523438 C 720.851562 680.757812 721.082031 681.054688 721.21875 681.421875 C 722.679688 685.308594 727.386719 687.917969 732.175781 687.492188 C 736.460938 687.105469 740.832031 684.605469 744.480469 680.445312 C 744.589844 680.324219 744.710938 680.214844 744.847656 680.125 C 744.980469 680.03125 745.125 679.957031 745.277344 679.898438 C 745.433594 679.84375 745.589844 679.804688 745.753906 679.785156 C 745.914062 679.769531 746.078125 679.769531 746.238281 679.792969 C 746.402344 679.8125 746.558594 679.855469 746.710938 679.914062 C 746.863281 679.976562 747.003906 680.054688 747.136719 680.148438 C 747.269531 680.246094 747.390625 680.355469 747.496094 680.480469 C 747.601562 680.605469 747.691406 680.742188 747.761719 680.890625 C 748.917969 683.265625 751.59375 684.914062 754.726562 685.203125 C 757.859375 685.488281 760.777344 684.332031 762.34375 682.199219 C 762.496094 681.96875 762.683594 681.777344 762.914062 681.621094 C 763.144531 681.46875 763.394531 681.367188 763.667969 681.316406 C 763.9375 681.265625 764.207031 681.273438 764.476562 681.332031 C 764.746094 681.394531 764.992188 681.507812 765.214844 681.671875 C 765.4375 681.835938 765.617188 682.039062 765.757812 682.277344 C 765.898438 682.515625 765.984375 682.773438 766.015625 683.046875 C 766.046875 683.320312 766.023438 683.59375 765.945312 683.855469 C 765.867188 684.121094 765.738281 684.359375 765.558594 684.570312 C 763.101562 687.851562 758.949219 689.589844 754.363281 689.179688 C 752.699219 689.066406 751.113281 688.640625 749.613281 687.910156 C 748.109375 687.175781 746.800781 686.183594 745.6875 684.941406 C 741.726562 688.761719 737.117188 691.058594 732.515625 691.503906 C 731.261719 691.628906 730.011719 691.597656 728.765625 691.414062 C 727.523438 691.230469 726.316406 690.898438 725.15625 690.414062 C 723.992188 689.929688 722.90625 689.3125 721.898438 688.558594 C 720.890625 687.808594 719.988281 686.941406 719.195312 685.964844 C 718.789062 686.472656 718.363281 686.957031 717.910156 687.421875 C 717.460938 687.882812 716.984375 688.320312 716.488281 688.734375 C 715.988281 689.148438 715.472656 689.539062 714.9375 689.898438 C 714.398438 690.257812 713.84375 690.59375 713.273438 690.894531 C 712.703125 691.199219 712.117188 691.476562 711.519531 691.71875 C 710.917969 691.964844 710.308594 692.175781 709.6875 692.359375 C 709.066406 692.539062 708.4375 692.691406 707.800781 692.808594 C 707.167969 692.925781 706.527344 693.007812 705.878906 693.058594 C 705.234375 693.113281 704.589844 693.128906 703.941406 693.117188 C 703.296875 693.101562 702.652344 693.054688 702.007812 692.972656 C 701.367188 692.890625 700.730469 692.777344 700.101562 692.632812 C 699.46875 692.488281 698.847656 692.308594 698.238281 692.097656 C 697.625 691.890625 697.023438 691.648438 696.4375 691.378906 C 695.851562 691.105469 695.277344 690.804688 694.722656 690.476562 C 694.164062 690.148438 693.625 689.789062 693.105469 689.402344 C 692.585938 689.019531 692.085938 688.609375 691.609375 688.171875 C 690.632812 689.367188 689.527344 690.425781 688.289062 691.347656 C 687.054688 692.273438 685.722656 693.03125 684.300781 693.628906 C 682.878906 694.226562 681.40625 694.644531 679.878906 694.878906 C 678.355469 695.113281 676.824219 695.160156 675.285156 695.019531 C 674.464844 694.925781 673.65625 694.773438 672.859375 694.5625 Z M 672.859375 694.5625 "/><path style=" stroke:none;fill-rule:nonzero;fill:#ffffff;fill-opacity:1;" d="M 792.980469 684.652344 C 791.480469 684.269531 790.046875 683.710938 788.683594 682.976562 C 787.316406 682.238281 786.0625 681.347656 784.917969 680.304688 C 783.773438 679.257812 782.773438 678.089844 781.917969 676.800781 C 781.0625 675.507812 780.375 674.132812 779.855469 672.671875 C 779.75 672.414062 779.699219 672.148438 779.707031 671.871094 C 779.710938 671.597656 779.769531 671.332031 779.882812 671.078125 C 779.996094 670.828125 780.15625 670.609375 780.363281 670.421875 C 780.566406 670.238281 780.800781 670.101562 781.0625 670.011719 C 781.324219 669.921875 781.589844 669.886719 781.867188 669.910156 C 782.144531 669.933594 782.402344 670.007812 782.648438 670.136719 C 782.890625 670.269531 783.097656 670.441406 783.269531 670.65625 C 783.445312 670.875 783.566406 671.117188 783.636719 671.382812 C 784.085938 672.691406 784.707031 673.910156 785.503906 675.042969 C 786.300781 676.171875 787.242188 677.171875 788.324219 678.03125 C 789.40625 678.894531 790.589844 679.585938 791.867188 680.109375 C 793.148438 680.632812 794.476562 680.964844 795.855469 681.105469 C 797.230469 681.25 798.597656 681.195312 799.960938 680.945312 C 801.320312 680.695312 802.621094 680.261719 803.855469 679.636719 C 805.089844 679.015625 806.214844 678.234375 807.226562 677.289062 C 808.238281 676.347656 809.097656 675.277344 809.804688 674.089844 C 810.152344 673.496094 810.667969 673.167969 811.351562 673.113281 C 812.042969 673.058594 812.609375 673.296875 813.050781 673.828125 C 813.441406 674.292969 813.859375 674.738281 814.304688 675.152344 C 814.75 675.570312 815.222656 675.957031 815.714844 676.316406 C 816.207031 676.675781 816.71875 677.003906 817.253906 677.300781 C 817.785156 677.597656 818.335938 677.859375 818.898438 678.089844 C 819.464844 678.320312 820.042969 678.511719 820.632812 678.671875 C 821.21875 678.832031 821.816406 678.953125 822.421875 679.039062 C 823.023438 679.125 823.628906 679.175781 824.242188 679.1875 C 824.851562 679.199219 825.457031 679.171875 826.066406 679.109375 C 826.671875 679.046875 827.273438 678.945312 827.867188 678.8125 C 828.460938 678.675781 829.046875 678.503906 829.621094 678.296875 C 830.191406 678.085938 830.75 677.847656 831.296875 677.570312 C 831.839844 677.292969 832.363281 676.984375 832.871094 676.644531 C 833.378906 676.304688 833.859375 675.9375 834.320312 675.535156 C 834.78125 675.136719 835.21875 674.710938 835.625 674.257812 C 836.035156 673.804688 836.414062 673.332031 836.765625 672.832031 C 837.117188 672.332031 837.4375 671.8125 837.722656 671.277344 C 837.910156 670.933594 838.175781 670.664062 838.519531 670.476562 C 838.859375 670.285156 839.226562 670.203125 839.617188 670.226562 C 840.007812 670.25 840.363281 670.378906 840.675781 670.613281 C 840.992188 670.847656 841.21875 671.148438 841.355469 671.511719 C 842.816406 675.402344 847.535156 678.007812 852.316406 677.582031 C 856.597656 677.199219 860.96875 674.695312 864.617188 670.539062 C 864.726562 670.414062 864.847656 670.308594 864.984375 670.214844 C 865.117188 670.121094 865.261719 670.046875 865.417969 669.992188 C 865.570312 669.933594 865.726562 669.894531 865.890625 669.878906 C 866.050781 669.859375 866.214844 669.863281 866.378906 669.882812 C 866.539062 669.90625 866.695312 669.945312 866.847656 670.007812 C 867 670.066406 867.140625 670.144531 867.273438 670.242188 C 867.40625 670.335938 867.527344 670.449219 867.632812 670.574219 C 867.738281 670.699219 867.828125 670.832031 867.898438 670.980469 C 869.0625 673.359375 871.730469 675.007812 874.863281 675.292969 C 877.996094 675.582031 880.917969 674.425781 882.484375 672.292969 C 882.636719 672.070312 882.828125 671.886719 883.054688 671.742188 C 883.285156 671.597656 883.53125 671.503906 883.796875 671.460938 C 884.066406 671.417969 884.328125 671.425781 884.589844 671.488281 C 884.855469 671.550781 885.09375 671.664062 885.3125 671.824219 C 885.53125 671.984375 885.707031 672.179688 885.84375 672.410156 C 885.984375 672.640625 886.070312 672.890625 886.109375 673.160156 C 886.144531 673.425781 886.128906 673.691406 886.058594 673.953125 C 885.988281 674.214844 885.871094 674.449219 885.707031 674.664062 C 883.246094 677.945312 879.085938 679.683594 874.503906 679.273438 C 872.835938 679.160156 871.253906 678.734375 869.753906 678 C 868.25 677.265625 866.945312 676.277344 865.832031 675.03125 C 861.863281 678.855469 857.261719 681.152344 852.660156 681.59375 C 851.40625 681.71875 850.15625 681.691406 848.914062 681.507812 C 847.667969 681.324219 846.464844 680.988281 845.300781 680.507812 C 844.140625 680.023438 843.054688 679.40625 842.042969 678.652344 C 841.035156 677.898438 840.132812 677.035156 839.339844 676.058594 C 838.9375 676.5625 838.507812 677.050781 838.058594 677.511719 C 837.605469 677.976562 837.128906 678.414062 836.632812 678.828125 C 836.132812 679.242188 835.617188 679.628906 835.082031 679.992188 C 834.542969 680.351562 833.988281 680.683594 833.417969 680.988281 C 832.847656 681.292969 832.261719 681.566406 831.660156 681.8125 C 831.0625 682.054688 830.453125 682.269531 829.832031 682.449219 C 829.210938 682.632812 828.582031 682.78125 827.945312 682.898438 C 827.308594 683.015625 826.667969 683.101562 826.023438 683.152344 C 825.378906 683.203125 824.730469 683.222656 824.085938 683.207031 C 823.4375 683.195312 822.792969 683.144531 822.148438 683.066406 C 821.507812 682.984375 820.871094 682.871094 820.242188 682.726562 C 819.609375 682.578125 818.988281 682.402344 818.375 682.191406 C 817.765625 681.980469 817.164062 681.742188 816.578125 681.46875 C 815.988281 681.199219 815.417969 680.898438 814.859375 680.570312 C 814.304688 680.238281 813.765625 679.882812 813.246094 679.496094 C 812.722656 679.109375 812.226562 678.699219 811.746094 678.265625 C 810.773438 679.460938 809.667969 680.523438 808.429688 681.445312 C 807.195312 682.371094 805.867188 683.132812 804.441406 683.730469 C 803.019531 684.328125 801.542969 684.742188 800.019531 684.976562 C 798.492188 685.210938 796.960938 685.257812 795.425781 685.113281 C 794.597656 685.019531 793.785156 684.863281 792.980469 684.652344 Z M 792.980469 684.652344 "/><path style=" stroke:none;fill-rule:nonzero;fill:#ffffff;fill-opacity:1;" d="M 662.476562 737.039062 C 662.476562 737.699219 662.449219 738.355469 662.394531 739.011719 C 662.339844 739.664062 662.257812 740.316406 662.148438 740.960938 C 662.039062 741.605469 661.902344 742.242188 661.742188 742.871094 C 661.578125 743.5 661.390625 744.121094 661.179688 744.726562 C 660.964844 745.335938 660.726562 745.929688 660.460938 746.511719 C 660.199219 747.089844 659.914062 747.652344 659.601562 748.199219 C 659.292969 748.746094 658.960938 749.277344 658.605469 749.785156 C 658.253906 750.292969 657.878906 750.78125 657.484375 751.246094 C 657.089844 751.710938 656.675781 752.152344 656.242188 752.570312 C 655.8125 752.984375 655.363281 753.378906 654.898438 753.742188 C 654.4375 754.109375 653.957031 754.445312 653.464844 754.757812 C 652.972656 755.066406 652.46875 755.347656 651.953125 755.597656 C 651.4375 755.851562 650.914062 756.070312 650.378906 756.261719 C 649.84375 756.453125 649.304688 756.613281 648.757812 756.742188 C 648.207031 756.871094 647.65625 756.96875 647.101562 757.03125 C 646.546875 757.097656 645.988281 757.128906 645.429688 757.128906 C 644.871094 757.128906 644.316406 757.097656 643.761719 757.03125 C 643.203125 756.96875 642.652344 756.871094 642.105469 756.742188 C 641.558594 756.613281 641.015625 756.453125 640.484375 756.261719 C 639.949219 756.070312 639.425781 755.851562 638.910156 755.597656 C 638.394531 755.347656 637.890625 755.066406 637.394531 754.757812 C 636.902344 754.445312 636.425781 754.109375 635.960938 753.742188 C 635.496094 753.378906 635.050781 752.984375 634.617188 752.570312 C 634.1875 752.152344 633.773438 751.710938 633.378906 751.246094 C 632.984375 750.78125 632.609375 750.292969 632.253906 749.785156 C 631.902344 749.277344 631.570312 748.746094 631.257812 748.199219 C 630.949219 747.652344 630.664062 747.089844 630.398438 746.511719 C 630.136719 745.929688 629.898438 745.335938 629.683594 744.726562 C 629.46875 744.121094 629.28125 743.5 629.121094 742.871094 C 628.957031 742.242188 628.824219 741.605469 628.714844 740.960938 C 628.605469 740.316406 628.523438 739.664062 628.46875 739.011719 C 628.414062 738.355469 628.386719 737.699219 628.386719 737.039062 C 628.386719 736.382812 628.414062 735.726562 628.46875 735.070312 C 628.523438 734.417969 628.605469 733.765625 628.714844 733.121094 C 628.824219 732.476562 628.957031 731.839844 629.121094 731.210938 C 629.28125 730.582031 629.46875 729.960938 629.683594 729.355469 C 629.898438 728.746094 630.136719 728.152344 630.398438 727.570312 C 630.664062 726.992188 630.949219 726.429688 631.257812 725.882812 C 631.570312 725.335938 631.902344 724.804688 632.253906 724.296875 C 632.609375 723.789062 632.984375 723.300781 633.378906 722.835938 C 633.773438 722.371094 634.1875 721.929688 634.617188 721.511719 C 635.050781 721.097656 635.496094 720.703125 635.960938 720.339844 C 636.425781 719.972656 636.902344 719.636719 637.394531 719.324219 C 637.890625 719.015625 638.394531 718.734375 638.910156 718.484375 C 639.425781 718.230469 639.949219 718.007812 640.484375 717.820312 C 641.015625 717.628906 641.558594 717.46875 642.105469 717.339844 C 642.652344 717.210938 643.203125 717.113281 643.761719 717.050781 C 644.316406 716.984375 644.871094 716.953125 645.429688 716.953125 C 645.988281 716.953125 646.546875 716.984375 647.101562 717.050781 C 647.65625 717.113281 648.207031 717.210938 648.757812 717.339844 C 649.304688 717.46875 649.84375 717.628906 650.378906 717.820312 C 650.914062 718.011719 651.4375 718.230469 651.953125 718.484375 C 652.46875 718.734375 652.972656 719.015625 653.464844 719.324219 C 653.957031 719.636719 654.4375 719.972656 654.898438 720.339844 C 655.363281 720.703125 655.8125 721.097656 656.242188 721.511719 C 656.675781 721.929688 657.089844 722.371094 657.484375 722.835938 C 657.878906 723.300781 658.253906 723.789062 658.605469 724.296875 C 658.960938 724.804688 659.292969 725.335938 659.601562 725.882812 C 659.914062 726.429688 660.199219 726.992188 660.460938 727.570312 C 660.726562 728.152344 660.964844 728.746094 661.179688 729.355469 C 661.390625 729.960938 661.578125 730.582031 661.742188 731.210938 C 661.902344 731.839844 662.039062 732.476562 662.148438 733.121094 C 662.257812 733.765625 662.339844 734.417969 662.394531 735.070312 C 662.449219 735.726562 662.476562 736.382812 662.476562 737.039062 Z M 662.476562 737.039062 "/></g></svg>