<svg xmlns="http://www.w3.org/2000/svg" xmlns:xlink="http://www.w3.org/1999/xlink" width="1920" zoomAndPan="magnify" viewBox="0 0 1440 809.999993" height="1080" preserveAspectRatio="xMidYMid meet" version="1.2"><defs><clipPath id="ed30b669a2"><path d="M 175.347656 275 L 1299.597656 275 L 1299.597656 650.453125 L 175.347656 650.453125 Z M 175.347656 275 "/></clipPath><clipPath id="922911ebd7"><path d="M 175.347656 265.183594 L 1299.597656 265.183594 L 1299.597656 624 L 175.347656 624 Z M 175.347656 265.183594 "/></clipPath></defs><g id="8fa44fc829"><g clip-rule="nonzero" clip-path="url(#ed30b669a2)"><path style=" stroke:none;fill-rule:nonzero;fill:#bac3c1;fill-opacity:1;" d="M 1299.734375 455.179688 C 1299.734375 554.21875 1048.050781 650.453125 737.542969 650.453125 C 427.070312 650.453125 175.347656 554.21875 175.347656 455.179688 C 175.347656 356.125 427.070312 275.816406 737.542969 275.816406 C 1048.050781 275.816406 1299.734375 356.125 1299.734375 455.179688 "/></g><g clip-rule="nonzero" clip-path="url(#922911ebd7)"><path style=" stroke:none;fill-rule:nonzero;fill:#f1f7f7;fill-opacity:1;" d="M 1299.734375 444.546875 C 1299.734375 543.597656 1048.050781 623.871094 737.542969 623.871094 C 427.070312 623.871094 175.347656 543.597656 175.347656 444.546875 C 175.347656 345.503906 427.070312 265.195312 737.542969 265.195312 C 1048.050781 265.195312 1299.734375 345.503906 1299.734375 444.546875 "/></g><path style=" stroke:none;fill-rule:nonzero;fill:#fcfdfe;fill-opacity:1;" d="M 737.542969 546.929688 C 560.292969 546.929688 416.582031 501.082031 416.582031 444.546875 C 416.582031 388.011719 560.292969 342.171875 737.542969 342.171875 C 914.828125 342.171875 1058.515625 388.011719 1058.515625 444.546875 C 1058.515625 501.082031 914.828125 546.929688 737.542969 546.929688 "/><path style=" stroke:none;fill-rule:nonzero;fill:#bac3c1;fill-opacity:1;" d="M 746.894531 595.417969 C 743.785156 595.417969 740.675781 595.480469 737.542969 595.480469 C 476.242188 595.480469 264.40625 527.898438 264.40625 444.546875 C 264.40625 361.191406 476.242188 293.625 737.542969 293.625 C 998.863281 293.625 1210.691406 361.191406 1210.691406 444.546875 C 1210.691406 445.433594 1210.539062 446.304688 1210.476562 447.21875 C 1206.058594 368.019531 1004.410156 304.257812 756.171875 304.257812 C 505.125 304.257812 301.628906 369.429688 301.628906 449.851562 C 301.628906 529.273438 500.15625 593.804688 746.894531 595.417969 "/></g></svg>