<svg xmlns="http://www.w3.org/2000/svg" xmlns:xlink="http://www.w3.org/1999/xlink" width="1920" zoomAndPan="magnify" viewBox="0 0 1440 809.999993" height="1080" preserveAspectRatio="xMidYMid meet" version="1.2"><defs><clipPath id="52a231c743"><path d="M 760 432 L 862 432 L 862 532.5 L 760 532.5 Z M 760 432 "/></clipPath><clipPath id="7ab411f9c9"><path d="M 511 432 L 612 432 L 612 532.5 L 511 532.5 Z M 511 432 "/></clipPath><clipPath id="46292ef935"><path d="M 873 419 L 915.449219 419 L 915.449219 457 L 873 457 Z M 873 419 "/></clipPath><clipPath id="1176de5d6b"><path d="M 870 480 L 915.449219 480 L 915.449219 499 L 870 499 Z M 870 480 "/></clipPath></defs><g id="a824a05f82"><path style=" stroke:none;fill-rule:nonzero;fill:#2aaae1;fill-opacity:1;" d="M 910.851562 458.234375 L 910.851562 426.460938 C 910.851562 412.867188 902.578125 400.5625 889.984375 395.417969 L 794.753906 357.121094 L 764.050781 285.671875 C 754.953125 264.367188 734.730469 250.039062 711.566406 248.296875 L 667.074219 244.988281 C 642.53125 243.152344 617.988281 243.703125 593.535156 246.734375 L 567.429688 249.855469 C 552.171875 251.695312 538.660156 260.601562 530.9375 273.917969 L 509.886719 310.011719 C 482.769531 356.664062 472.199219 411.121094 480.011719 464.480469 C 482.125 479.082031 494.628906 490.011719 509.425781 490.011719 L 870.867188 490.011719 C 879.691406 490.011719 888.238281 487.714844 895.871094 483.214844 L 896.789062 482.664062 C 905.519531 477.613281 910.851562 468.246094 910.851562 458.234375 Z M 910.851562 458.234375 "/><g clip-rule="nonzero" clip-path="url(#52a231c743)"><path style=" stroke:none;fill-rule:nonzero;fill:#384868;fill-opacity:1;" d="M 861.03125 482.296875 C 861.03125 483.933594 860.949219 485.570312 860.789062 487.203125 C 860.628906 488.832031 860.386719 490.453125 860.066406 492.0625 C 859.746094 493.667969 859.351562 495.257812 858.875 496.824219 C 858.398438 498.394531 857.84375 499.933594 857.21875 501.449219 C 856.589844 502.964844 855.886719 504.445312 855.113281 505.890625 C 854.339844 507.335938 853.5 508.738281 852.585938 510.101562 C 851.675781 511.464844 850.699219 512.78125 849.660156 514.046875 C 848.617188 515.316406 847.515625 516.527344 846.355469 517.6875 C 845.195312 518.847656 843.984375 519.945312 842.714844 520.988281 C 841.445312 522.027344 840.128906 523 838.765625 523.914062 C 837.402344 524.824219 835.996094 525.664062 834.546875 526.4375 C 833.101562 527.210938 831.621094 527.910156 830.105469 528.539062 C 828.589844 529.164062 827.046875 529.714844 825.476562 530.191406 C 823.90625 530.667969 822.316406 531.066406 820.707031 531.386719 C 819.097656 531.707031 817.476562 531.945312 815.84375 532.105469 C 814.210938 532.265625 812.574219 532.347656 810.933594 532.347656 C 809.292969 532.347656 807.65625 532.265625 806.023438 532.105469 C 804.390625 531.945312 802.769531 531.707031 801.160156 531.386719 C 799.550781 531.066406 797.960938 530.667969 796.390625 530.191406 C 794.820312 529.714844 793.277344 529.164062 791.761719 528.539062 C 790.246094 527.910156 788.765625 527.210938 787.316406 526.4375 C 785.871094 525.664062 784.464844 524.824219 783.101562 523.914062 C 781.734375 523 780.417969 522.027344 779.152344 520.988281 C 777.882812 519.945312 776.667969 518.847656 775.507812 517.6875 C 774.347656 516.527344 773.246094 515.316406 772.207031 514.046875 C 771.164062 512.78125 770.191406 511.464844 769.277344 510.101562 C 768.367188 508.738281 767.523438 507.335938 766.75 505.890625 C 765.976562 504.445312 765.277344 502.964844 764.648438 501.449219 C 764.019531 499.933594 763.46875 498.394531 762.992188 496.824219 C 762.515625 495.257812 762.117188 493.667969 761.796875 492.0625 C 761.476562 490.453125 761.238281 488.832031 761.078125 487.203125 C 760.914062 485.570312 760.835938 483.933594 760.835938 482.296875 C 760.835938 480.65625 760.914062 479.023438 761.078125 477.390625 C 761.238281 475.757812 761.476562 474.140625 761.796875 472.53125 C 762.117188 470.925781 762.515625 469.335938 762.992188 467.765625 C 763.46875 466.199219 764.019531 464.65625 764.648438 463.140625 C 765.277344 461.628906 765.976562 460.148438 766.75 458.703125 C 767.523438 457.257812 768.367188 455.851562 769.277344 454.488281 C 770.191406 453.125 771.164062 451.8125 772.207031 450.542969 C 773.246094 449.277344 774.347656 448.0625 775.507812 446.90625 C 776.667969 445.746094 777.882812 444.644531 779.152344 443.605469 C 780.417969 442.566406 781.734375 441.589844 783.101562 440.679688 C 784.464844 439.769531 785.871094 438.929688 787.316406 438.15625 C 788.765625 437.382812 790.246094 436.683594 791.761719 436.054688 C 793.277344 435.425781 794.820312 434.875 796.390625 434.398438 C 797.960938 433.925781 799.550781 433.527344 801.160156 433.207031 C 802.769531 432.886719 804.390625 432.648438 806.023438 432.484375 C 807.65625 432.324219 809.292969 432.246094 810.933594 432.246094 C 812.574219 432.246094 814.210938 432.324219 815.84375 432.484375 C 817.476562 432.648438 819.097656 432.886719 820.707031 433.207031 C 822.316406 433.527344 823.90625 433.925781 825.476562 434.398438 C 827.046875 434.875 828.589844 435.425781 830.105469 436.054688 C 831.621094 436.683594 833.101562 437.382812 834.546875 438.15625 C 835.996094 438.929688 837.402344 439.769531 838.765625 440.679688 C 840.128906 441.589844 841.445312 442.566406 842.714844 443.605469 C 843.984375 444.644531 845.195312 445.746094 846.355469 446.90625 C 847.515625 448.0625 848.617188 449.277344 849.660156 450.542969 C 850.699219 451.8125 851.675781 453.125 852.585938 454.488281 C 853.5 455.851562 854.339844 457.257812 855.113281 458.703125 C 855.886719 460.148438 856.589844 461.628906 857.21875 463.140625 C 857.84375 464.65625 858.398438 466.199219 858.875 467.765625 C 859.351562 469.335938 859.746094 470.925781 860.066406 472.53125 C 860.386719 474.140625 860.628906 475.757812 860.789062 477.390625 C 860.949219 479.023438 861.03125 480.65625 861.03125 482.296875 Z M 861.03125 482.296875 "/></g><path style=" stroke:none;fill-rule:nonzero;fill:#ffffff;fill-opacity:1;" d="M 836.855469 482.296875 C 836.855469 483.144531 836.8125 483.992188 836.730469 484.835938 C 836.648438 485.679688 836.523438 486.515625 836.355469 487.347656 C 836.191406 488.179688 835.984375 489.003906 835.738281 489.8125 C 835.492188 490.625 835.207031 491.421875 834.882812 492.207031 C 834.558594 492.992188 834.195312 493.757812 833.792969 494.503906 C 833.394531 495.253906 832.957031 495.980469 832.484375 496.683594 C 832.015625 497.390625 831.507812 498.070312 830.972656 498.726562 C 830.433594 499.382812 829.863281 500.007812 829.261719 500.609375 C 828.664062 501.207031 828.035156 501.777344 827.378906 502.316406 C 826.722656 502.855469 826.039062 503.359375 825.335938 503.828125 C 824.628906 504.300781 823.902344 504.738281 823.152344 505.136719 C 822.402344 505.535156 821.636719 505.898438 820.851562 506.222656 C 820.070312 506.546875 819.269531 506.832031 818.457031 507.078125 C 817.644531 507.324219 816.824219 507.53125 815.988281 507.695312 C 815.15625 507.863281 814.320312 507.988281 813.472656 508.070312 C 812.628906 508.152344 811.78125 508.195312 810.933594 508.195312 C 810.082031 508.195312 809.238281 508.152344 808.390625 508.070312 C 807.546875 507.988281 806.707031 507.863281 805.875 507.695312 C 805.042969 507.53125 804.21875 507.324219 803.40625 507.078125 C 802.59375 506.832031 801.796875 506.546875 801.011719 506.222656 C 800.230469 505.898438 799.460938 505.535156 798.714844 505.136719 C 797.964844 504.738281 797.238281 504.300781 796.53125 503.828125 C 795.824219 503.359375 795.144531 502.855469 794.488281 502.316406 C 793.832031 501.777344 793.203125 501.207031 792.601562 500.609375 C 792.003906 500.007812 791.433594 499.382812 790.894531 498.726562 C 790.355469 498.070312 789.851562 497.390625 789.378906 496.683594 C 788.90625 495.980469 788.472656 495.253906 788.070312 494.503906 C 787.671875 493.757812 787.308594 492.992188 786.984375 492.207031 C 786.660156 491.421875 786.375 490.625 786.128906 489.8125 C 785.878906 489.003906 785.675781 488.179688 785.507812 487.347656 C 785.34375 486.515625 785.21875 485.679688 785.136719 484.835938 C 785.050781 483.992188 785.011719 483.144531 785.011719 482.296875 C 785.011719 481.449219 785.050781 480.601562 785.136719 479.757812 C 785.21875 478.914062 785.34375 478.074219 785.507812 477.242188 C 785.675781 476.410156 785.878906 475.589844 786.128906 474.777344 C 786.375 473.964844 786.660156 473.167969 786.984375 472.386719 C 787.308594 471.601562 787.671875 470.835938 788.070312 470.089844 C 788.472656 469.339844 788.90625 468.613281 789.378906 467.90625 C 789.851562 467.203125 790.355469 466.523438 790.894531 465.867188 C 791.433594 465.210938 792.003906 464.582031 792.601562 463.984375 C 793.203125 463.382812 793.832031 462.816406 794.488281 462.277344 C 795.144531 461.738281 795.824219 461.234375 796.53125 460.761719 C 797.238281 460.292969 797.964844 459.855469 798.714844 459.457031 C 799.460938 459.054688 800.230469 458.695312 801.011719 458.371094 C 801.796875 458.046875 802.59375 457.757812 803.40625 457.511719 C 804.21875 457.265625 805.042969 457.0625 805.875 456.894531 C 806.707031 456.730469 807.546875 456.605469 808.390625 456.523438 C 809.238281 456.441406 810.082031 456.398438 810.933594 456.398438 C 811.78125 456.398438 812.628906 456.441406 813.472656 456.523438 C 814.320312 456.605469 815.15625 456.730469 815.988281 456.894531 C 816.824219 457.0625 817.644531 457.265625 818.457031 457.511719 C 819.269531 457.757812 820.070312 458.046875 820.851562 458.371094 C 821.636719 458.695312 822.402344 459.054688 823.152344 459.457031 C 823.902344 459.855469 824.628906 460.292969 825.335938 460.761719 C 826.039062 461.234375 826.722656 461.738281 827.378906 462.277344 C 828.035156 462.816406 828.664062 463.382812 829.261719 463.984375 C 829.863281 464.582031 830.433594 465.210938 830.972656 465.867188 C 831.507812 466.523438 832.015625 467.203125 832.488281 467.90625 C 832.957031 468.613281 833.394531 469.339844 833.792969 470.089844 C 834.195312 470.835938 834.558594 471.601562 834.882812 472.386719 C 835.207031 473.167969 835.492188 473.964844 835.738281 474.777344 C 835.984375 475.589844 836.191406 476.410156 836.355469 477.242188 C 836.523438 478.074219 836.648438 478.914062 836.730469 479.757812 C 836.8125 480.601562 836.855469 481.449219 836.855469 482.296875 Z M 836.855469 482.296875 "/><g clip-rule="nonzero" clip-path="url(#7ab411f9c9)"><path style=" stroke:none;fill-rule:nonzero;fill:#384868;fill-opacity:1;" d="M 611.644531 482.296875 C 611.644531 483.933594 611.566406 485.570312 611.402344 487.203125 C 611.242188 488.832031 611.003906 490.453125 610.683594 492.0625 C 610.363281 493.667969 609.964844 495.257812 609.488281 496.824219 C 609.011719 498.394531 608.460938 499.933594 607.832031 501.449219 C 607.203125 502.964844 606.503906 504.445312 605.730469 505.890625 C 604.957031 507.335938 604.113281 508.738281 603.203125 510.101562 C 602.289062 511.464844 601.3125 512.78125 600.273438 514.046875 C 599.234375 515.316406 598.132812 516.527344 596.972656 517.6875 C 595.8125 518.847656 594.597656 519.945312 593.328125 520.988281 C 592.0625 522.027344 590.746094 523 589.378906 523.914062 C 588.015625 524.824219 586.609375 525.664062 585.164062 526.4375 C 583.714844 527.210938 582.234375 527.910156 580.71875 528.539062 C 579.203125 529.164062 577.660156 529.714844 576.089844 530.191406 C 574.519531 530.667969 572.929688 531.066406 571.320312 531.386719 C 569.710938 531.707031 568.089844 531.945312 566.457031 532.105469 C 564.824219 532.265625 563.1875 532.347656 561.546875 532.347656 C 559.90625 532.347656 558.269531 532.265625 556.636719 532.105469 C 555.003906 531.945312 553.382812 531.707031 551.773438 531.386719 C 550.164062 531.066406 548.574219 530.667969 547.003906 530.191406 C 545.433594 529.714844 543.890625 529.164062 542.375 528.539062 C 540.859375 527.910156 539.378906 527.210938 537.929688 526.4375 C 536.484375 525.664062 535.078125 524.824219 533.714844 523.914062 C 532.351562 523 531.035156 522.027344 529.765625 520.988281 C 528.496094 519.945312 527.28125 518.847656 526.121094 517.6875 C 524.960938 516.527344 523.863281 515.316406 522.820312 514.046875 C 521.78125 512.78125 520.804688 511.464844 519.894531 510.101562 C 518.980469 508.738281 518.136719 507.335938 517.363281 505.890625 C 516.589844 504.445312 515.890625 502.964844 515.261719 501.449219 C 514.636719 499.933594 514.082031 498.394531 513.605469 496.824219 C 513.128906 495.257812 512.730469 493.667969 512.414062 492.0625 C 512.09375 490.453125 511.851562 488.832031 511.691406 487.203125 C 511.53125 485.570312 511.449219 483.933594 511.449219 482.296875 C 511.449219 480.65625 511.53125 479.023438 511.691406 477.390625 C 511.851562 475.757812 512.09375 474.140625 512.414062 472.53125 C 512.730469 470.925781 513.128906 469.335938 513.605469 467.765625 C 514.082031 466.199219 514.636719 464.65625 515.261719 463.140625 C 515.890625 461.628906 516.589844 460.148438 517.363281 458.703125 C 518.136719 457.257812 518.980469 455.851562 519.894531 454.488281 C 520.804688 453.125 521.78125 451.8125 522.820312 450.542969 C 523.863281 449.277344 524.960938 448.0625 526.121094 446.90625 C 527.28125 445.746094 528.496094 444.644531 529.765625 443.605469 C 531.035156 442.566406 532.351562 441.589844 533.714844 440.679688 C 535.078125 439.769531 536.484375 438.929688 537.929688 438.15625 C 539.378906 437.382812 540.859375 436.683594 542.375 436.054688 C 543.890625 435.425781 545.433594 434.875 547.003906 434.398438 C 548.574219 433.925781 550.164062 433.527344 551.773438 433.207031 C 553.382812 432.886719 555.003906 432.648438 556.636719 432.484375 C 558.269531 432.324219 559.90625 432.246094 561.546875 432.246094 C 563.1875 432.246094 564.824219 432.324219 566.457031 432.484375 C 568.089844 432.648438 569.710938 432.886719 571.320312 433.207031 C 572.929688 433.527344 574.519531 433.925781 576.089844 434.398438 C 577.660156 434.875 579.203125 435.425781 580.71875 436.054688 C 582.234375 436.683594 583.714844 437.382812 585.164062 438.15625 C 586.609375 438.929688 588.015625 439.769531 589.378906 440.679688 C 590.746094 441.589844 592.0625 442.566406 593.328125 443.605469 C 594.597656 444.644531 595.8125 445.746094 596.972656 446.90625 C 598.132812 448.0625 599.234375 449.277344 600.273438 450.542969 C 601.3125 451.8125 602.289062 453.125 603.203125 454.488281 C 604.113281 455.851562 604.957031 457.257812 605.730469 458.703125 C 606.503906 460.148438 607.203125 461.628906 607.832031 463.140625 C 608.460938 464.65625 609.011719 466.199219 609.488281 467.765625 C 609.964844 469.335938 610.363281 470.925781 610.683594 472.53125 C 611.003906 474.140625 611.242188 475.757812 611.402344 477.390625 C 611.566406 479.023438 611.644531 480.65625 611.644531 482.296875 Z M 611.644531 482.296875 "/></g><path style=" stroke:none;fill-rule:nonzero;fill:#ffffff;fill-opacity:1;" d="M 587.46875 482.296875 C 587.46875 483.144531 587.429688 483.992188 587.34375 484.835938 C 587.261719 485.679688 587.136719 486.515625 586.972656 487.347656 C 586.804688 488.179688 586.601562 489.003906 586.351562 489.8125 C 586.105469 490.625 585.820312 491.421875 585.496094 492.207031 C 585.171875 492.992188 584.808594 493.757812 584.410156 494.503906 C 584.007812 495.253906 583.574219 495.980469 583.101562 496.683594 C 582.628906 497.390625 582.125 498.070312 581.585938 498.726562 C 581.046875 499.382812 580.476562 500.007812 579.878906 500.609375 C 579.277344 501.207031 578.648438 501.777344 577.992188 502.316406 C 577.335938 502.855469 576.65625 503.359375 575.949219 503.828125 C 575.242188 504.300781 574.515625 504.738281 573.765625 505.136719 C 573.019531 505.535156 572.25 505.898438 571.46875 506.222656 C 570.683594 506.546875 569.882812 506.832031 569.070312 507.078125 C 568.257812 507.324219 567.4375 507.53125 566.605469 507.695312 C 565.773438 507.863281 564.933594 507.988281 564.089844 508.070312 C 563.242188 508.152344 562.394531 508.195312 561.546875 508.195312 C 560.699219 508.195312 559.851562 508.152344 559.007812 508.070312 C 558.160156 507.988281 557.324219 507.863281 556.488281 507.695312 C 555.65625 507.53125 554.835938 507.324219 554.023438 507.078125 C 553.210938 506.832031 552.410156 506.546875 551.628906 506.222656 C 550.84375 505.898438 550.078125 505.535156 549.328125 505.136719 C 548.578125 504.738281 547.851562 504.300781 547.144531 503.828125 C 546.441406 503.359375 545.757812 502.855469 545.101562 502.316406 C 544.445312 501.777344 543.816406 501.207031 543.21875 500.609375 C 542.617188 500.007812 542.046875 499.382812 541.507812 498.726562 C 540.972656 498.070312 540.464844 497.390625 539.992188 496.683594 C 539.523438 495.980469 539.085938 495.253906 538.6875 494.503906 C 538.285156 493.757812 537.921875 492.992188 537.597656 492.207031 C 537.273438 491.421875 536.988281 490.625 536.742188 489.8125 C 536.496094 489.003906 536.289062 488.179688 536.125 487.347656 C 535.957031 486.515625 535.832031 485.679688 535.75 484.835938 C 535.667969 483.992188 535.625 483.144531 535.625 482.296875 C 535.625 481.449219 535.667969 480.601562 535.75 479.757812 C 535.832031 478.914062 535.957031 478.074219 536.125 477.242188 C 536.289062 476.410156 536.496094 475.589844 536.742188 474.777344 C 536.988281 473.964844 537.273438 473.167969 537.597656 472.386719 C 537.921875 471.601562 538.285156 470.835938 538.6875 470.089844 C 539.085938 469.339844 539.523438 468.613281 539.992188 467.90625 C 540.464844 467.203125 540.972656 466.523438 541.507812 465.867188 C 542.046875 465.210938 542.617188 464.582031 543.21875 463.984375 C 543.816406 463.382812 544.445312 462.816406 545.101562 462.277344 C 545.757812 461.738281 546.441406 461.234375 547.144531 460.761719 C 547.851562 460.292969 548.578125 459.855469 549.328125 459.457031 C 550.078125 459.054688 550.84375 458.695312 551.628906 458.371094 C 552.410156 458.046875 553.210938 457.757812 554.023438 457.511719 C 554.835938 457.265625 555.65625 457.0625 556.488281 456.894531 C 557.324219 456.730469 558.160156 456.605469 559.007812 456.523438 C 559.851562 456.441406 560.699219 456.398438 561.546875 456.398438 C 562.394531 456.398438 563.242188 456.441406 564.089844 456.523438 C 564.933594 456.605469 565.773438 456.730469 566.605469 456.894531 C 567.4375 457.0625 568.257812 457.265625 569.070312 457.511719 C 569.882812 457.757812 570.683594 458.046875 571.46875 458.371094 C 572.25 458.695312 573.019531 459.054688 573.765625 459.457031 C 574.515625 459.855469 575.242188 460.292969 575.949219 460.761719 C 576.65625 461.234375 577.335938 461.738281 577.992188 462.277344 C 578.648438 462.816406 579.277344 463.382812 579.878906 463.984375 C 580.476562 464.582031 581.046875 465.210938 581.585938 465.867188 C 582.125 466.523438 582.628906 467.203125 583.101562 467.90625 C 583.574219 468.613281 584.007812 469.339844 584.410156 470.089844 C 584.808594 470.835938 585.171875 471.601562 585.496094 472.386719 C 585.820312 473.167969 586.105469 473.964844 586.351562 474.777344 C 586.601562 475.589844 586.804688 476.410156 586.972656 477.242188 C 587.136719 478.074219 587.261719 478.914062 587.34375 479.757812 C 587.429688 480.601562 587.46875 481.449219 587.46875 482.296875 Z M 587.46875 482.296875 "/><path style=" stroke:none;fill-rule:nonzero;fill:#d4f5ff;fill-opacity:1;" d="M 760.925781 350.511719 L 738.683594 288.0625 C 734.636719 276.582031 724.066406 268.683594 711.933594 267.949219 L 653.929688 264.367188 C 648.320312 264 643.449219 268.316406 643.175781 273.917969 C 643.175781 274.101562 643.175781 274.378906 643.175781 274.5625 L 643.175781 353.265625 C 643.175781 359.417969 648.136719 364.378906 654.296875 364.378906 L 751.183594 364.378906 C 756.972656 364.378906 761.664062 359.695312 761.664062 353.90625 C 761.570312 352.714844 761.386719 351.613281 760.925781 350.511719 Z M 760.925781 350.511719 "/><path style=" stroke:none;fill-rule:nonzero;fill:#d4f5ff;fill-opacity:1;" d="M 615.320312 275.9375 L 610.816406 352.253906 C 610.449219 358.40625 605.210938 363.089844 599.050781 362.722656 C 598.683594 362.722656 598.410156 362.632812 598.039062 362.632812 L 543.804688 354.550781 C 537.097656 353.539062 532.5 347.296875 533.511719 340.589844 C 533.695312 339.671875 533.878906 338.664062 534.246094 337.835938 L 556.125 284.203125 C 559.523438 275.847656 567.246094 269.96875 576.253906 268.867188 L 603.832031 265.378906 C 609.4375 264.640625 614.496094 268.589844 615.230469 274.195312 C 615.320312 274.652344 615.320312 275.296875 615.320312 275.9375 Z M 615.320312 275.9375 "/><g clip-rule="nonzero" clip-path="url(#46292ef935)"><path style=" stroke:none;fill-rule:nonzero;fill:#ffd664;fill-opacity:1;" d="M 905.796875 456.398438 L 891.734375 456.398438 C 881.4375 456.398438 873.164062 448.132812 873.164062 437.847656 C 873.164062 427.5625 881.4375 419.296875 891.734375 419.296875 L 905.796875 419.296875 C 911.035156 419.296875 915.355469 423.519531 915.355469 428.847656 L 915.355469 446.9375 C 915.355469 452.171875 911.128906 456.398438 905.796875 456.398438 Z M 905.796875 456.398438 "/></g><g clip-rule="nonzero" clip-path="url(#1176de5d6b)"><path style=" stroke:none;fill-rule:nonzero;fill:#384868;fill-opacity:1;" d="M 879.324219 480.734375 L 905.980469 480.734375 C 910.945312 480.644531 914.988281 484.5 915.265625 489.367188 C 915.449219 494.328125 911.496094 498.460938 906.625 498.550781 C 906.53125 498.550781 906.441406 498.550781 906.347656 498.550781 L 879.324219 498.550781 C 874.359375 498.550781 870.40625 494.511719 870.40625 489.644531 C 870.40625 484.777344 874.453125 480.734375 879.324219 480.734375 Z M 879.324219 480.734375 "/></g><path style=" stroke:none;fill-rule:nonzero;fill:#384868;fill-opacity:1;" d="M 631.683594 480.734375 L 743.277344 480.734375 C 748.242188 480.734375 752.195312 484.777344 752.195312 489.644531 C 752.195312 494.601562 748.148438 498.550781 743.277344 498.550781 L 631.683594 498.550781 C 626.71875 498.550781 622.769531 494.511719 622.769531 489.644531 C 622.769531 484.777344 626.8125 480.734375 631.683594 480.734375 Z M 631.683594 480.734375 "/><path style=" stroke:none;fill-rule:nonzero;fill:#384868;fill-opacity:1;" d="M 474.222656 490.835938 C 474.957031 495.335938 478.816406 498.644531 483.414062 498.644531 L 494.078125 498.644531 C 499.039062 498.644531 502.992188 494.695312 502.992188 489.734375 C 502.992188 484.777344 498.949219 480.828125 494.078125 480.828125 L 483.046875 480.828125 C 478.082031 480.828125 474.128906 484.867188 474.128906 489.734375 C 474.128906 490.101562 474.128906 490.46875 474.222656 490.835938 Z M 474.222656 490.835938 "/></g></svg>