<svg xmlns="http://www.w3.org/2000/svg" xmlns:xlink="http://www.w3.org/1999/xlink" width="1920" zoomAndPan="magnify" viewBox="0 0 1440 809.999993" height="1080" preserveAspectRatio="xMidYMid meet" version="1.2"><defs><clipPath id="3a7ff6b24e"><path d="M 312.328125 238 L 608 238 L 608 649 L 312.328125 649 Z M 312.328125 238 "/></clipPath><clipPath id="a009af35f8"><path d="M 949 399 L 1127.578125 399 L 1127.578125 651 L 949 651 Z M 949 399 "/></clipPath><clipPath id="0d0a66a6d9"><path d="M 859 422 L 1037.898438 422 L 1037.898438 673.101562 L 859 673.101562 Z M 859 422 "/></clipPath></defs><g id="1e239dd11c"><g clip-rule="nonzero" clip-path="url(#3a7ff6b24e)"><path style=" stroke:none;fill-rule:nonzero;fill:#4b7b07;fill-opacity:1;" d="M 547.191406 617.855469 C 547.144531 617.832031 547.105469 617.8125 547.105469 617.8125 C 547.132812 617.832031 547.164062 617.84375 547.191406 617.855469 Z M 547.8125 642.554688 C 541.464844 639.566406 530.878906 627.238281 530.878906 627.238281 C 546.960938 637.792969 582.71875 627.175781 582.71875 627.175781 C 563.652344 626.089844 550.394531 619.5625 547.648438 618.105469 C 558.175781 623.109375 607.847656 605.371094 607.847656 605.371094 C 591.90625 605.371094 575.152344 604.074219 570.105469 600.003906 C 584.378906 597.15625 591.015625 586.664062 591.015625 586.664062 C 550.828125 590.246094 517.390625 587.316406 495.910156 573.488281 C 472.96875 558.710938 468.007812 539.558594 468.007812 539.558594 C 483.378906 565.289062 507.546875 568.359375 520.453125 568.925781 C 509.6875 560.882812 507.542969 544.324219 507.542969 544.324219 C 530.03125 561.457031 547.34375 552.398438 547.34375 552.398438 C 535.101562 552.757812 526.609375 540.34375 526.609375 540.34375 C 550.558594 549.585938 572.839844 542.78125 572.839844 542.78125 C 556.207031 539.417969 544.625 527.839844 544.625 527.839844 C 570.15625 526.695312 587.125 514.605469 587.125 514.605469 C 579.769531 518.679688 532.019531 519.113281 509.90625 514.585938 C 482.898438 509.058594 464.765625 484.554688 464.1875 482.859375 C 478.339844 494.738281 494.121094 496.039062 496.5625 495.546875 C 485.582031 491.148438 483.429688 483.410156 481.757812 480.089844 C 494.511719 488.394531 519.828125 488.304688 519.828125 488.304688 C 510.070312 485.050781 495.363281 469.675781 495.363281 469.675781 C 510.171875 475.203125 517.65625 468.535156 517.65625 468.535156 C 508.542969 467.394531 504.3125 460.5625 504.3125 460.5625 C 523.183594 461.867188 533.273438 450.796875 533.273438 450.796875 C 487.390625 456.824219 468.027344 439.25 468.027344 439.25 C 504.3125 442.015625 516.351562 423.628906 516.351562 423.628906 C 464.078125 425.007812 459.390625 402.640625 456.195312 398.902344 C 472.085938 411.1875 475.675781 402.640625 475.675781 402.640625 C 471.125 401.175781 469.007812 391.253906 469.007812 391.253906 C 486.898438 405.894531 499.433594 400.527344 499.433594 400.527344 C 492.925781 400.691406 488.363281 388.8125 488.363281 388.8125 C 506.753906 396.945312 525.140625 382.464844 525.140625 382.464844 C 517.980469 384.742188 493.410156 376.285156 493.410156 376.285156 C 498.617188 375.792969 502.746094 367.828125 502.746094 367.828125 C 480.945312 372.054688 467.542969 363.425781 467.542969 363.425781 C 484.300781 364.890625 495.585938 349.605469 495.585938 349.605469 C 458.167969 349.929688 450.734375 331.113281 450.734375 331.113281 C 464.792969 343.316406 484.523438 336.910156 484.523438 336.910156 C 478.015625 334.3125 457.9375 319.664062 457.9375 319.664062 C 473.988281 324.425781 475.695312 320.273438 479.601562 317.472656 C 472.28125 318.605469 459.402344 305.503906 459.402344 305.503906 C 471.179688 312.511719 491.359375 298.84375 491.359375 298.84375 C 470.289062 299.441406 456.742188 281.039062 449.410156 266.742188 C 452.308594 268.316406 455.835938 269.785156 459.46875 270.207031 C 451.902344 261.460938 445.679688 253.644531 443.972656 238.640625 C 443.972656 238.640625 438.195312 260.683594 428.105469 268.167969 C 428.105469 268.167969 432.035156 272.722656 440.476562 264.246094 C 431.398438 288.945312 397.414062 300.785156 397.414062 300.785156 C 405.0625 308.109375 424.425781 304.371094 424.425781 304.371094 C 421.984375 314.292969 400.019531 323.242188 400.019531 323.242188 C 407.863281 327.777344 424.445312 324.910156 432.890625 320.617188 C 432.640625 321.597656 432.78125 322.871094 432.074219 323.890625 C 423.46875 336.261719 388.628906 333.332031 388.628906 333.332031 C 388.953125 338.859375 410.105469 345.535156 410.105469 345.535156 C 409.457031 350.414062 392.292969 353.828125 392.292969 353.828125 C 400.019531 362.777344 420.519531 359.039062 420.519531 359.039062 C 416.941406 372.863281 355.925781 369.125 355.925781 369.125 C 363.738281 377.257812 389.605469 378.882812 389.605469 378.882812 C 388.953125 386.042969 375.285156 393.367188 375.285156 393.367188 C 387.980469 398.894531 406.363281 383.601562 406.363281 383.601562 C 409.617188 388.15625 394.324219 397.921875 394.324219 397.921875 C 402.78125 403.289062 431.417969 385.394531 431.417969 385.394531 C 422.960938 405.40625 368.941406 413.703125 368.941406 413.703125 C 393.183594 430.628906 426.863281 413.703125 426.863281 413.703125 C 418.242188 435.023438 351.695312 440.058594 351.695312 440.058594 C 359.179688 453.402344 376.269531 449.5 376.269531 449.5 C 377.789062 453.898438 364.222656 464.308594 364.222656 464.308594 C 371.871094 465.28125 386.675781 457.472656 386.675781 457.472656 C 387.65625 460.726562 382.9375 470.484375 382.9375 470.484375 C 386.839844 470.324219 399.03125 457.523438 399.03125 457.523438 C 399.03125 457.523438 400.8125 462.925781 396.757812 470.867188 C 409.132812 467.230469 422.144531 452.914062 422.144531 452.914062 C 421.476562 462.035156 398.859375 479.199219 398.859375 479.199219 C 417.8125 475.945312 432.882812 465.613281 432.882812 465.613281 C 425.800781 472.722656 414.328125 481.433594 396.363281 488.65625 C 359.019531 503.675781 312.328125 479.574219 312.328125 479.574219 C 312.328125 479.574219 328.410156 510.363281 350.300781 508.324219 C 350.300781 508.324219 327.246094 523.335938 317.804688 519.222656 C 317.804688 519.222656 344.585938 534.738281 368.890625 518.074219 C 368.890625 518.074219 371.648438 534.449219 351.875 541.125 C 351.875 541.125 379.441406 551.601562 403.992188 526.039062 C 403.992188 526.039062 402.898438 539.496094 386.4375 545.214844 C 386.4375 545.214844 409.011719 544.566406 422.550781 528.40625 C 422.550781 528.40625 422.859375 532.242188 416.757812 540.050781 C 406.105469 553.679688 370.992188 594.15625 317.339844 590.097656 C 318.144531 594.78125 329.15625 605.28125 341.742188 606.695312 C 341.742188 606.695312 330.519531 614.503906 323.195312 614.015625 C 323.195312 614.015625 339.855469 626.898438 362.3125 622.996094 C 362.410156 622.148438 355.824219 633.636719 340.371094 638.230469 C 340.371094 638.230469 384.71875 639.402344 396.4375 628.171875 C 396.4375 628.171875 391.113281 643.199219 380.867188 648.078125 C 380.867188 648.078125 434.398438 647.050781 459.511719 623.300781 C 506.707031 642.3125 514.746094 643.039062 547.8125 642.554688 "/></g><g clip-rule="nonzero" clip-path="url(#a009af35f8)"><path style=" stroke:none;fill-rule:nonzero;fill:#4b7b07;fill-opacity:1;" d="M 955.421875 622.898438 C 1008.609375 611.796875 1010.945312 598.449219 1010.945312 598.449219 C 973.730469 601.289062 959.878906 587.105469 959.878906 587.105469 C 1023.792969 589.269531 1028.460938 556.515625 1028.460938 556.515625 C 1012.609375 577.375 1000.425781 570.367188 1000.425781 570.367188 C 1005.097656 568.863281 1007.265625 558.6875 1007.265625 558.6875 C 988.910156 573.703125 976.0625 568.195312 976.0625 568.195312 C 982.738281 568.359375 987.40625 556.183594 987.40625 556.183594 C 968.554688 564.527344 949.695312 549.671875 949.695312 549.671875 C 957.039062 552.011719 982.234375 543.328125 982.234375 543.328125 C 976.898438 542.832031 976.226562 532.484375 976.226562 532.484375 C 998.589844 536.820312 1014.367188 524.28125 1014.367188 524.28125 C 997.175781 525.78125 983.074219 510.507812 983.074219 510.507812 C 1021.457031 510.847656 1028.125 493.441406 1028.125 493.441406 C 1020.613281 500.777344 1003.769531 496.324219 1003.769531 496.324219 C 1010.441406 493.65625 1018.613281 485.261719 1018.613281 485.261719 C 1007.429688 492.9375 995.753906 481.644531 995.753906 481.644531 C 1003.265625 482.808594 1017.113281 470.746094 1017.113281 470.746094 C 1007.066406 474.683594 995.589844 465.957031 995.589844 465.957031 C 1012.0625 459.996094 1021.523438 449.035156 1026.976562 438.722656 C 1025.421875 439.601562 1024.027344 440.351562 1023.25 440.675781 C 1020.246094 441.925781 1016.117188 441.925781 1016.117188 441.925781 C 1027.296875 429.914062 1033.46875 399.875 1033.46875 399.875 C 1032.851562 413.40625 1046.652344 435.503906 1050.824219 438.589844 C 1047.523438 438.460938 1043.359375 437.261719 1040.097656 436.128906 C 1052.121094 455.914062 1078.542969 465.078125 1078.542969 465.078125 C 1070.695312 472.59375 1052.988281 469.574219 1052.988281 469.574219 C 1055.492188 479.753906 1078.019531 488.929688 1078.019531 488.929688 C 1069.96875 493.585938 1052.453125 488.859375 1044.308594 486.242188 C 1044.554688 487.253906 1044.835938 488.363281 1045.140625 489.597656 C 1048.3125 502.28125 1089.699219 499.28125 1089.699219 499.28125 C 1089.363281 504.949219 1067.667969 511.796875 1067.667969 511.796875 C 1068.339844 516.800781 1085.941406 520.304688 1085.941406 520.304688 C 1078.019531 529.484375 1056.996094 525.640625 1056.996094 525.640625 C 1060.664062 539.828125 1123.242188 535.984375 1123.242188 535.984375 C 1115.226562 544.328125 1088.695312 546 1088.695312 546 C 1089.363281 553.34375 1103.382812 560.851562 1103.382812 560.851562 C 1090.371094 566.527344 1071.511719 550.839844 1071.511719 550.839844 C 1068.171875 555.515625 1083.859375 565.527344 1083.859375 565.527344 C 1075.179688 571.03125 1045.8125 552.679688 1045.8125 552.679688 C 1054.492188 573.203125 1109.890625 581.710938 1109.890625 581.710938 C 1085.027344 599.066406 1050.484375 581.710938 1050.484375 581.710938 C 1059.324219 603.570312 1127.578125 608.742188 1127.578125 608.742188 C 1119.902344 622.429688 1102.382812 618.421875 1102.382812 618.421875 C 1101.546875 624.097656 1114.730469 633.605469 1114.730469 633.605469 C 1106.882812 634.605469 1091.699219 626.601562 1091.699219 626.601562 C 1090.699219 629.9375 1095.542969 639.949219 1095.542969 639.949219 C 1091.535156 639.785156 1079.019531 626.601562 1079.019531 626.601562 L 1081.355469 640.28125 C 1068.667969 636.613281 1055.328125 621.925781 1055.328125 621.925781 C 1054.320312 631.605469 1073.011719 650.625 1073.011719 650.625 C 1054.65625 647.625 1044.3125 633.605469 1044.3125 633.605469 L 1044.3125 647.289062 L 1037.46875 647.460938 L 1038.117188 622.90625 C 1036.863281 628.105469 1035.710938 632.726562 1033.460938 635.777344 C 1025.519531 646.5625 1001.597656 644.84375 1001.597656 644.84375 C 1013.78125 643.007812 1017.367188 627.402344 1017.367188 627.402344 C 1003.683594 638.25 993.839844 638.414062 993.839844 638.414062 C 997.589844 634.410156 995.214844 631.65625 995.214844 631.65625 C 983.074219 640.796875 973.316406 638.167969 973.316406 638.167969 C 982.660156 634.703125 985.164062 632.621094 987 629.988281 C 967.640625 631.328125 955.421875 622.898438 955.421875 622.898438 "/></g><path style=" stroke:none;fill-rule:nonzero;fill:#385c05;fill-opacity:1;" d="M 813.324219 453.359375 C 794.523438 465.464844 765.25 468.027344 730.074219 464.894531 C 730.074219 464.894531 735.882812 474.078125 748.378906 476.574219 C 743.957031 480.132812 729.289062 481.273438 715.328125 481.273438 C 715.328125 481.273438 760.410156 497.371094 768.503906 492.167969 C 768.503906 492.167969 756.136719 499.292969 737.335938 500.363281 C 737.335938 500.363281 768.636719 509.65625 782.714844 500.414062 C 782.714844 500.414062 773.445312 511.203125 767.886719 513.820312 C 796.835938 514.25 813.394531 505.382812 826 492.886719 C 826 492.886719 817.882812 508.265625 803.355469 517.667969 C 739.398438 559.050781 694.820312 552.914062 694.820312 552.914062 C 694.820312 552.914062 717.558594 573.792969 748.660156 564.882812 C 748.660156 564.882812 731.640625 581.621094 718.722656 586.601562 C 718.722656 586.601562 760.453125 601.824219 781.757812 571.558594 C 781.757812 571.558594 783.617188 589.214844 772.855469 595.085938 C 772.855469 595.085938 801.867188 586.800781 816.375 564.253906 C 816.375 564.253906 817.992188 582.359375 809.800781 586.703125 C 809.800781 586.703125 846.085938 581.167969 857.476562 548.175781 C 858.730469 544.546875 859.679688 540.355469 860.390625 535.78125 C 869.992188 552.640625 891.660156 568.730469 891.660156 568.730469 C 890.660156 558.945312 892.511719 550.464844 892.511719 550.464844 C 898.867188 576.945312 941.476562 582.613281 941.476562 582.613281 C 934.855469 571.71875 934.535156 566.808594 935.019531 558.871094 C 948.222656 573.910156 962.09375 567.015625 962.09375 567.015625 C 951.730469 557.941406 947.886719 547.355469 947.886719 547.355469 C 974.527344 575.703125 1000.660156 564.222656 1000.660156 564.222656 C 991.964844 563.042969 977.554688 546.070312 977.554688 546.070312 C 1000.722656 549.207031 1014.648438 537.75 1014.648438 537.75 C 993.640625 533.140625 962.285156 528.101562 924.117188 512.332031 C 909.964844 506.492188 891.160156 496.089844 885.058594 481.5625 C 907.039062 502.355469 938.765625 503.628906 938.765625 503.628906 C 929.789062 499.355469 924.664062 483.976562 924.664062 483.976562 C 934.917969 493.804688 958.417969 489.960938 958.417969 489.960938 C 944.898438 485.9375 945.507812 475.117188 945.597656 475.859375 C 965.253906 479.273438 974.65625 469.019531 974.65625 469.019531 C 968.246094 469.445312 958.417969 462.613281 958.417969 462.613281 C 969.4375 461.378906 979.082031 452.1875 979.78125 448.085938 C 966.960938 453.640625 931.117188 454 913.167969 446.734375 C 903.371094 442.773438 891.9375 436.023438 882.613281 424.085938 C 877.277344 417.25 877.542969 413.894531 877.542969 413.894531 C 889.398438 428.042969 909.15625 428.613281 909.15625 428.613281 C 894.753906 423.601562 893.792969 411.824219 893.792969 411.824219 C 915.289062 434.207031 939.414062 425.027344 939.414062 425.027344 C 922.109375 419.1875 924.515625 404.855469 924.515625 404.855469 C 945.796875 419.441406 969.242188 405.855469 969.242188 405.855469 C 960.980469 409.460938 940.796875 396.316406 940.796875 396.316406 C 959.960938 398.105469 974.035156 371.144531 974.035156 371.144531 C 974.035156 371.144531 933.160156 392.246094 900.472656 379.101562 C 884.742188 372.78125 874.699219 365.144531 868.5 358.921875 C 868.5 358.921875 881.691406 367.972656 898.28125 370.820312 C 898.28125 370.820312 878.488281 355.796875 877.902344 347.808594 C 877.902344 347.808594 889.296875 360.347656 900.128906 363.527344 C 896.574219 356.574219 898.128906 351.847656 898.128906 351.847656 C 898.128906 351.847656 908.804688 363.050781 912.222656 363.195312 C 912.222656 363.195312 908.097656 354.648438 908.949219 351.800781 C 908.949219 351.800781 921.910156 358.636719 928.605469 357.78125 C 928.605469 357.78125 916.726562 348.667969 918.066406 344.820312 C 918.066406 344.820312 933.019531 348.242188 939.574219 336.558594 C 939.574219 336.558594 881.316406 332.148438 873.769531 313.484375 C 873.769531 313.484375 903.25 328.300781 924.472656 313.484375 C 924.472656 313.484375 877.1875 306.222656 869.78125 288.703125 C 869.78125 288.703125 894.847656 304.371094 902.257812 299.671875 C 902.257812 299.671875 888.867188 291.121094 891.714844 287.136719 C 891.714844 287.136719 907.8125 300.523438 918.917969 295.683594 C 918.917969 295.683594 906.957031 289.277344 906.382812 283.007812 C 906.382812 283.007812 929.03125 281.582031 935.867188 274.460938 C 935.867188 274.460938 882.457031 277.734375 879.320312 265.625 C 879.320312 265.625 897.269531 268.90625 904.035156 261.074219 C 904.035156 261.074219 889.007812 258.078125 888.441406 253.804688 C 888.441406 253.804688 906.957031 247.964844 907.238281 243.125 C 907.238281 243.125 876.742188 245.691406 869.207031 234.863281 C 868.589844 233.972656 868.710938 232.855469 868.492188 232.003906 C 875.886719 235.761719 890.402344 238.265625 897.269531 234.289062 C 897.269531 234.289062 878.042969 226.460938 875.90625 217.769531 C 875.90625 217.769531 892.855469 221.046875 899.550781 214.636719 C 899.550781 214.636719 869.800781 204.265625 861.855469 182.648438 C 869.238281 190.070312 872.683594 186.089844 872.683594 186.089844 C 863.851562 179.535156 858.792969 160.234375 858.792969 160.234375 C 857.296875 173.375 851.851562 180.210938 845.226562 187.863281 C 848.40625 187.503906 851.496094 186.214844 854.035156 184.832031 C 847.617188 197.355469 835.757812 213.457031 817.3125 212.933594 C 817.3125 212.933594 834.972656 224.894531 845.285156 218.769531 C 845.285156 218.769531 834.011719 230.238281 827.605469 229.238281 C 831.019531 231.699219 832.515625 235.328125 846.566406 231.15625 C 846.566406 231.15625 828.992188 243.984375 823.292969 246.265625 C 823.292969 246.265625 840.570312 251.871094 852.871094 241.183594 C 852.871094 241.183594 846.367188 257.660156 813.609375 257.371094 C 813.609375 257.371094 823.488281 270.753906 838.15625 269.472656 C 838.15625 269.472656 826.425781 277.027344 807.34375 273.328125 C 807.34375 273.328125 810.957031 280.292969 815.515625 280.726562 C 815.515625 280.726562 794.007812 288.136719 787.738281 286.136719 C 787.738281 286.136719 803.835938 298.816406 819.929688 291.695312 C 819.929688 291.695312 815.941406 302.089844 810.25 301.949219 C 810.25 301.949219 821.210938 306.652344 836.878906 293.828125 C 836.878906 293.828125 835.023438 302.515625 831.035156 303.796875 C 831.035156 303.796875 834.261719 311.496094 848.648438 300.101562 C 845.652344 301.101562 844.234375 323.457031 795.433594 322.171875 C 795.433594 322.171875 805.972656 338.265625 837.730469 335.847656 C 837.730469 335.847656 820.78125 351.230469 780.617188 345.960938 C 780.617188 345.960938 789.445312 355.648438 805.972656 354.507812 C 805.972656 354.507812 802.269531 360.488281 794.292969 361.484375 C 794.292969 361.484375 800.839844 367.324219 813.800781 362.484375 C 813.800781 362.484375 800.929688 375.949219 792.390625 378.792969 C 792.390625 378.792969 814.554688 378.871094 825.710938 371.605469 C 824.253906 374.507812 822.367188 381.277344 812.75 385.132812 C 814.890625 385.558594 828.707031 384.417969 841.101562 374.023438 C 840.589844 375.507812 824.71875 396.953125 801.078125 401.800781 C 781.714844 405.761719 739.914062 405.386719 733.472656 401.820312 C 733.472656 401.820312 748.328125 412.398438 770.683594 413.398438 C 770.683594 413.398438 760.535156 423.53125 745.984375 426.480469 C 745.984375 426.480469 765.484375 432.4375 786.445312 424.347656 C 786.445312 424.347656 779.019531 435.210938 768.300781 434.902344 C 768.300781 434.902344 783.453125 442.832031 803.140625 427.832031 C 803.140625 427.832031 801.269531 442.328125 791.839844 449.363281 C 803.140625 448.875 824.292969 446.179688 837.75 423.660156 C 837.75 423.660156 833.40625 440.421875 813.324219 453.359375 "/><path style=" stroke:none;fill-rule:nonzero;fill:#385c05;fill-opacity:1;" d="M 522.59375 594.589844 C 522.59375 594.589844 540.695312 614.429688 573.253906 590.480469 C 573.253906 590.480469 566.15625 612.988281 557.152344 615.488281 C 557.152344 615.488281 577.75 617.601562 591.765625 598.761719 C 591.765625 598.761719 594.550781 612.210938 581.976562 621.824219 C 581.976562 621.824219 605.351562 626.550781 624.519531 591.984375 C 624.519531 591.984375 622.085938 607.804688 617.15625 616.472656 C 617.15625 616.472656 652.597656 605.933594 657.179688 582.042969 C 657.179688 582.042969 659.566406 594.066406 644.441406 609.488281 C 661.09375 608.25 678.050781 607.308594 681.902344 584.460938 C 681.902344 584.460938 684.960938 593.480469 673.902344 607.742188 C 686.992188 617.640625 714.335938 615.894531 709.914062 591.664062 C 710.570312 593.976562 709.117188 589.621094 709.914062 591.664062 C 725.371094 631.339844 759.382812 617.277344 759.382812 617.277344 C 741.632812 602.429688 732.820312 573.914062 732.820312 573.914062 C 744.175781 598.578125 801.65625 618.882812 801.65625 618.882812 C 794.070312 611.988281 791.109375 589.871094 791.109375 589.871094 C 822.636719 625.242188 851.226562 611.550781 851.226562 611.550781 C 837.546875 607.972656 834.730469 587.042969 834.730469 587.042969 C 879.289062 606.296875 894.773438 573.710938 894.773438 573.710938 C 894.773438 573.710938 820.46875 576.984375 765.347656 530.445312 C 751.902344 519.089844 741.589844 506.566406 733.671875 494.128906 C 747.582031 510.667969 774.007812 520.003906 774.007812 520.003906 C 767.363281 507.574219 764.695312 502.039062 767.085938 490.9375 C 778.136719 508.140625 789.941406 503.203125 789.941406 503.203125 C 778.222656 496.03125 778.550781 479.664062 778.550781 479.664062 C 784.324219 496.363281 815.832031 494.472656 815.832031 494.472656 C 807.234375 491.960938 800.992188 479.917969 800.992188 479.917969 C 823.921875 486.613281 837.367188 475.167969 837.367188 475.167969 C 816.851562 467.3125 799.3125 464.007812 763.148438 442.269531 C 754.019531 436.78125 745.632812 429.421875 738.195312 421.5 C 754.015625 432.644531 770.34375 431.320312 770.34375 431.320312 C 761.640625 426.105469 763.773438 412.863281 763.773438 412.863281 C 773.25 423.855469 797.523438 422.226562 797.523438 422.226562 C 781.371094 419.289062 782.808594 404.761719 785.855469 406.640625 C 805.507812 412.023438 816.0625 402.507812 816.0625 402.507812 C 809.503906 402.324219 800.171875 394.410156 800.171875 394.410156 C 810.808594 393.234375 823.3125 381.710938 823.3125 381.710938 C 809.730469 386.117188 768.289062 383.914062 750.742188 374.789062 C 744.925781 371.761719 738.269531 365 731.964844 357.3125 C 740.976562 361.507812 750.945312 360.171875 750.945312 360.171875 C 742.144531 351.992188 736.925781 339.394531 736.925781 339.394531 C 755.289062 356.777344 771.542969 350.382812 771.542969 350.382812 C 760.621094 349.523438 754.261719 337.679688 754.261719 337.679688 C 774.671875 348.183594 795.128906 344.265625 795.128906 344.265625 C 780.667969 339.679688 771.472656 328.28125 771.472656 328.28125 C 794.285156 329.707031 810.527344 320.578125 810.527344 320.578125 C 803.597656 323.496094 768.21875 322.796875 748.886719 316.976562 C 741.753906 314.828125 732.449219 308.707031 723.546875 301.84375 C 721.238281 298.644531 720.148438 293.269531 720.148438 293.269531 C 736.15625 307.050781 747.359375 302 747.359375 302 C 741.539062 302.148438 737.460938 290.976562 737.460938 290.976562 C 753.90625 298.632812 770.34375 285.007812 770.34375 285.007812 C 763.945312 287.148438 741.976562 279.1875 741.976562 279.1875 C 746.632812 278.726562 747.210938 269.238281 747.210938 269.238281 C 727.71875 273.21875 718.839844 267.089844 718.839844 267.089844 C 723.097656 267.488281 727.320312 266.046875 730.21875 264.003906 C 723.492188 261.570312 721.269531 256.90625 721.269531 256.90625 C 726.511719 259.761719 734.074219 258.25 737.117188 255.417969 C 740.046875 252.683594 740.042969 249.054688 740.042969 249.054688 C 706.578125 249.359375 701.960938 233.410156 701.960938 233.410156 C 708.507812 240.148438 722.769531 239.691406 722.769531 239.691406 C 716.945312 237.238281 710.257812 225.914062 710.257812 225.914062 C 720.003906 232.953125 729.609375 227.75 729.609375 227.75 C 723.0625 228.820312 711.566406 212.597656 711.566406 212.597656 C 726.992188 224.226562 747.792969 206.316406 747.792969 206.316406 C 727.964844 206.910156 714.910156 191.585938 706.359375 177.910156 C 711.457031 180.484375 725.773438 183.113281 725.773438 183.113281 C 717.640625 180.960938 701.671875 155.707031 701.671875 155.707031 C 706.457031 159.535156 710.125 158.253906 710.125 158.253906 C 699.277344 151.234375 697.050781 131.453125 697.050781 131.453125 C 698.414062 143.339844 683.003906 160.25 683.003906 160.25 C 689.847656 161.859375 693.777344 158.09375 693.777344 158.09375 C 693.535156 166.234375 680.132812 178.679688 680.132812 178.679688 C 686.589844 180.523438 691.449219 177.34375 694.515625 174.109375 C 686.226562 197.121094 656.128906 208.15625 656.128906 208.15625 C 662.96875 215.042969 680.285156 211.519531 680.285156 211.519531 C 678.101562 220.863281 658.457031 229.285156 658.457031 229.285156 C 665.476562 233.550781 680.746094 229.214844 687.851562 226.8125 C 687.636719 227.742188 687.394531 228.761719 687.121094 229.894531 C 684.355469 241.527344 653.734375 243.390625 653.734375 243.390625 C 655.371094 249.9375 670.3125 248.179688 670.3125 248.179688 C 669.730469 252.773438 649.03125 255.816406 649.03125 255.816406 C 655.941406 264.238281 677.296875 258.328125 677.296875 258.328125 C 663.324219 271.421875 619.027344 272.453125 619.027344 272.453125 C 626.015625 280.105469 649.148438 281.640625 649.148438 281.640625 C 645.976562 286.621094 634.957031 291.503906 634.957031 291.503906 C 646.304688 296.707031 664.132812 286.078125 664.132812 286.078125 C 661.253906 293.035156 654.464844 298.582031 654.464844 298.582031 C 659.605469 299.613281 667.578125 297.171875 674.09375 294.566406 C 668.960938 298.605469 662.273438 302.828125 653.605469 306.703125 C 624.320312 319.765625 594.023438 309.320312 594.023438 309.320312 C 594.023438 309.320312 603.746094 328.28125 621.121094 325.929688 C 621.121094 325.929688 608.429688 336.453125 600.785156 333.546875 C 600.785156 333.546875 617.511719 345.496094 636.363281 331.578125 C 636.363281 331.578125 637.503906 341.382812 621.957031 347.296875 C 621.957031 347.296875 642.046875 356.679688 660.820312 335.777344 C 660.820312 335.777344 662.113281 351.769531 650.109375 355.808594 C 650.109375 355.808594 669.070312 351.929688 679.355469 338.785156 C 679.355469 338.785156 679.375 338.800781 679.414062 338.835938 C 671.242188 348.851562 659.636719 360.890625 646.960938 367.15625 C 622.824219 379.101562 592.542969 386.015625 566.304688 379.378906 C 580.488281 398.582031 606.460938 395.53125 606.460938 395.53125 C 606.460938 395.53125 608.28125 400.902344 581.871094 408.042969 C 581.871094 408.042969 615.976562 418.933594 624.359375 406.136719 C 624.359375 406.136719 610.582031 426.421875 605.15625 429.574219 C 614.761719 431.945312 639.722656 426.703125 644.441406 417.066406 C 644.441406 417.066406 646.960938 423.753906 637.160156 431.90625 C 637.160156 431.90625 647.390625 434.066406 657.898438 429.386719 C 635.714844 453.65625 600.042969 479.910156 543.082031 504.65625 C 543.082031 504.65625 555.6875 511.265625 564.996094 507.886719 C 577.21875 503.445312 584.054688 496.976562 584.054688 496.976562 C 584.054688 496.976562 582.890625 502.113281 581.144531 505.121094 C 578.8125 509.140625 568.050781 520.109375 568.050781 520.109375 C 568.050781 520.109375 595.714844 512.171875 599.480469 500.90625 C 599.480469 500.90625 599.347656 520.023438 590.234375 528.144531 C 590.234375 528.144531 624.015625 511.972656 624.066406 492.027344 C 624.066406 492.027344 624.078125 497.808594 623.917969 500.90625 C 623.714844 504.941406 619.703125 522.144531 619.703125 522.144531 C 619.703125 522.144531 645.269531 507.03125 654.148438 486.324219 C 654.148438 486.324219 652.160156 504.6875 643.753906 514.316406 C 643.753906 514.316406 656.425781 513.757812 666.3125 502.132812 C 645.910156 532.667969 604.917969 570.03125 522.59375 594.589844 "/><path style=" stroke:none;fill-rule:nonzero;fill:#385c05;fill-opacity:1;" d="M 397.011719 617.492188 C 397.011719 617.492188 410.0625 635.84375 433.527344 613.691406 C 433.527344 613.691406 428.410156 634.503906 421.921875 636.816406 C 421.921875 636.816406 436.769531 638.773438 446.871094 621.347656 C 446.871094 621.347656 448.875 633.785156 439.820312 642.675781 C 439.820312 642.675781 456.664062 647.046875 470.480469 615.078125 C 470.480469 615.078125 468.722656 629.714844 465.175781 637.726562 C 465.175781 637.726562 490.722656 627.984375 494.019531 605.882812 C 494.019531 605.882812 495.746094 617.003906 484.835938 631.269531 C 496.84375 630.121094 509.0625 629.25 511.839844 608.125 C 511.839844 608.125 514.042969 616.46875 506.078125 629.65625 C 515.515625 638.804688 535.214844 637.191406 532.03125 614.785156 C 532.507812 616.917969 531.457031 612.894531 532.03125 614.785156 C 543.175781 651.480469 567.691406 638.472656 567.691406 638.472656 C 554.898438 624.742188 548.539062 598.367188 548.539062 598.367188 C 556.722656 621.179688 598.164062 639.957031 598.164062 639.957031 C 592.691406 633.585938 590.558594 613.125 590.558594 613.125 C 613.28125 645.84375 633.894531 633.171875 633.894531 633.171875 C 624.035156 629.867188 622 610.511719 622 610.511719 C 654.121094 628.320312 665.285156 598.179688 665.285156 598.179688 C 665.285156 598.179688 611.722656 601.207031 571.992188 558.15625 C 562.296875 547.65625 554.863281 536.074219 549.15625 524.566406 C 559.183594 539.871094 578.234375 548.5 578.234375 548.5 C 573.445312 537.003906 571.519531 531.882812 573.246094 521.617188 C 581.207031 537.527344 589.722656 532.960938 589.722656 532.960938 C 581.269531 526.332031 581.507812 511.191406 581.507812 511.191406 C 585.671875 526.636719 608.382812 524.882812 608.382812 524.882812 C 602.1875 522.566406 597.683594 511.425781 597.683594 511.425781 C 614.210938 517.625 623.90625 507.03125 623.90625 507.03125 C 609.117188 499.769531 596.472656 496.714844 570.40625 476.605469 C 563.824219 471.523438 557.78125 464.726562 552.414062 457.398438 C 563.820312 467.707031 575.597656 466.480469 575.597656 466.480469 C 569.316406 461.65625 570.859375 449.410156 570.859375 449.410156 C 577.683594 459.570312 595.179688 458.066406 595.179688 458.066406 C 583.539062 455.351562 584.578125 441.914062 586.769531 443.652344 C 600.9375 448.625 608.550781 439.824219 608.550781 439.824219 C 603.816406 439.652344 597.09375 432.339844 597.09375 432.339844 C 604.761719 431.25 613.773438 420.59375 613.773438 420.59375 C 603.984375 424.664062 574.113281 422.632812 561.464844 414.1875 C 557.273438 411.390625 552.46875 405.136719 547.929688 398.023438 C 554.425781 401.902344 561.609375 400.671875 561.609375 400.671875 C 555.257812 393.105469 551.5 381.449219 551.5 381.449219 C 564.738281 397.53125 576.457031 391.617188 576.457031 391.617188 C 568.582031 390.820312 564 379.863281 564 379.863281 C 578.710938 389.578125 593.460938 385.960938 593.460938 385.960938 C 583.035156 381.71875 576.40625 371.175781 576.40625 371.175781 C 592.851562 372.488281 604.558594 364.050781 604.558594 364.050781 C 599.5625 366.75 574.0625 366.101562 560.125 360.71875 C 554.984375 358.730469 548.277344 353.070312 541.859375 346.71875 C 540.195312 343.765625 539.414062 338.796875 539.414062 338.796875 C 550.949219 351.535156 559.023438 346.867188 559.023438 346.867188 C 554.828125 347.003906 551.890625 336.667969 551.890625 336.667969 C 563.742188 343.75 575.597656 331.148438 575.597656 331.148438 C 570.980469 333.128906 555.144531 325.765625 555.144531 325.765625 C 558.5 325.34375 558.921875 316.5625 558.921875 316.5625 C 544.863281 320.242188 538.46875 314.582031 538.46875 314.582031 C 541.535156 314.941406 544.578125 313.613281 546.675781 311.71875 C 541.820312 309.464844 540.222656 305.160156 540.222656 305.160156 C 544 307.796875 549.449219 306.402344 551.640625 303.777344 C 553.75 301.257812 553.75 297.894531 553.75 297.894531 C 529.628906 298.179688 526.300781 283.429688 526.300781 283.429688 C 531.023438 289.65625 541.296875 289.238281 541.296875 289.238281 C 537.101562 286.96875 532.28125 276.492188 532.28125 276.492188 C 539.304688 283.007812 546.226562 278.191406 546.226562 278.191406 C 541.507812 279.179688 533.222656 264.175781 533.222656 264.175781 C 544.34375 274.9375 559.335938 258.367188 559.335938 258.367188 C 545.042969 258.917969 535.636719 244.742188 529.476562 232.09375 C 533.144531 234.46875 543.46875 236.90625 543.46875 236.90625 C 537.605469 234.914062 526.09375 211.550781 526.09375 211.550781 C 529.542969 215.09375 532.191406 213.914062 532.191406 213.914062 C 524.371094 207.425781 522.765625 189.121094 522.765625 189.121094 C 523.738281 200.121094 512.636719 215.761719 512.636719 215.761719 C 517.566406 217.253906 520.402344 213.769531 520.402344 213.769531 C 520.230469 221.289062 510.566406 232.800781 510.566406 232.800781 C 515.222656 234.511719 518.726562 231.5625 520.929688 228.578125 C 514.957031 249.855469 493.269531 260.066406 493.269531 260.066406 C 498.191406 266.4375 510.675781 263.179688 510.675781 263.179688 C 509.101562 271.816406 494.945312 279.605469 494.945312 279.605469 C 500 283.554688 511.007812 279.542969 516.132812 277.328125 C 515.976562 278.179688 515.796875 279.121094 515.605469 280.175781 C 513.613281 290.929688 491.535156 292.65625 491.535156 292.65625 C 492.714844 298.714844 503.484375 297.089844 503.484375 297.089844 C 503.070312 301.332031 488.148438 304.152344 488.148438 304.152344 C 493.128906 311.9375 508.523438 306.472656 508.523438 306.472656 C 498.453125 318.585938 466.523438 319.535156 466.523438 319.535156 C 471.554688 326.617188 488.230469 328.03125 488.230469 328.03125 C 485.945312 332.636719 478 337.160156 478 337.160156 C 486.1875 341.972656 499.03125 332.140625 499.03125 332.140625 C 496.957031 338.574219 492.066406 343.707031 492.066406 343.707031 C 495.773438 344.65625 501.515625 342.402344 506.21875 339.992188 C 502.515625 343.726562 497.695312 347.636719 491.445312 351.214844 C 470.332031 363.296875 448.5 353.636719 448.5 353.636719 C 448.5 353.636719 455.507812 371.175781 468.027344 369 C 468.027344 369 458.882812 378.730469 453.371094 376.042969 C 453.371094 376.042969 465.429688 387.09375 479.015625 374.226562 C 479.015625 374.226562 479.835938 383.285156 468.632812 388.761719 C 468.632812 388.761719 483.117188 397.445312 496.652344 378.105469 C 496.652344 378.105469 497.582031 392.902344 488.925781 396.632812 C 488.925781 396.632812 502.59375 393.046875 510.007812 380.890625 C 510.007812 380.890625 510.019531 380.902344 510.046875 380.933594 C 504.160156 390.203125 495.789062 401.335938 486.65625 407.132812 C 469.257812 418.175781 447.429688 424.578125 428.519531 418.4375 C 438.742188 436.199219 457.460938 433.371094 457.460938 433.371094 C 457.460938 433.371094 458.773438 438.339844 439.742188 444.945312 C 439.742188 444.945312 464.320312 455.019531 470.367188 443.1875 C 470.367188 443.1875 460.429688 461.945312 456.519531 464.867188 C 463.449219 467.058594 481.433594 462.207031 484.835938 453.289062 C 484.835938 453.289062 486.65625 459.480469 479.59375 467.019531 C 479.59375 467.019531 486.96875 469.015625 494.542969 464.6875 C 478.550781 487.132812 452.835938 511.421875 411.777344 534.304688 C 411.777344 534.304688 420.863281 540.425781 427.570312 537.292969 C 436.386719 533.191406 441.316406 527.203125 441.316406 527.203125 C 441.316406 527.203125 440.476562 531.960938 439.214844 534.738281 C 437.53125 538.449219 429.773438 548.597656 429.773438 548.597656 C 429.773438 548.597656 449.714844 541.261719 452.429688 530.832031 C 452.429688 530.832031 452.335938 548.519531 445.769531 556.035156 C 445.769531 556.035156 470.117188 541.074219 470.15625 522.625 C 470.15625 522.625 470.160156 527.972656 470.046875 530.832031 C 469.898438 534.570312 467.007812 550.480469 467.007812 550.480469 C 467.007812 550.480469 485.433594 536.503906 491.835938 517.355469 C 491.835938 517.355469 490.402344 534.335938 484.339844 543.246094 C 484.339844 543.246094 493.480469 542.726562 500.605469 531.972656 C 485.898438 560.222656 456.351562 594.765625 397.011719 617.492188 "/><path style=" stroke:none;fill-rule:nonzero;fill:#385c05;fill-opacity:1;" d="M 819.453125 630.84375 C 819.453125 630.84375 832.5 645.140625 855.972656 627.878906 C 855.972656 627.878906 850.851562 644.101562 844.359375 645.90625 C 844.359375 645.90625 859.207031 647.429688 869.308594 633.847656 C 869.308594 633.847656 871.316406 643.542969 862.257812 650.472656 C 862.257812 650.472656 879.105469 653.875 892.917969 628.964844 C 892.917969 628.964844 891.160156 640.363281 887.613281 646.617188 C 887.613281 646.617188 913.160156 639.019531 916.460938 621.796875 C 916.460938 621.796875 918.1875 630.460938 907.277344 641.582031 C 919.289062 640.6875 931.503906 640.007812 934.28125 623.542969 C 934.28125 623.542969 936.484375 630.046875 928.515625 640.320312 C 937.957031 647.453125 957.65625 646.199219 954.472656 628.734375 C 954.949219 630.402344 953.898438 627.261719 954.472656 628.734375 C 965.617188 657.332031 990.132812 647.191406 990.132812 647.191406 C 977.335938 636.492188 970.984375 615.9375 970.984375 615.9375 C 979.171875 633.714844 1020.601562 648.351562 1020.601562 648.351562 C 1015.136719 643.382812 1012.996094 627.441406 1012.996094 627.441406 C 1035.722656 652.9375 1056.332031 643.066406 1056.332031 643.066406 C 1046.472656 640.484375 1044.441406 625.402344 1044.441406 625.402344 C 1076.566406 639.28125 1087.726562 615.792969 1087.726562 615.792969 C 1087.726562 615.792969 1034.167969 618.148438 994.429688 584.601562 C 984.738281 576.417969 977.304688 567.394531 971.597656 558.425781 C 981.621094 570.355469 1000.671875 577.082031 1000.671875 577.082031 C 995.882812 568.117188 993.960938 564.125 995.6875 556.125 C 1003.648438 568.527344 1012.164062 564.964844 1012.164062 564.964844 C 1003.710938 559.800781 1003.945312 548.003906 1003.945312 548.003906 C 1008.113281 560.035156 1030.824219 558.671875 1030.824219 558.671875 C 1024.628906 556.863281 1020.125 548.191406 1020.125 548.191406 C 1036.652344 553.011719 1046.347656 544.761719 1046.347656 544.761719 C 1031.558594 539.101562 1018.914062 536.71875 992.84375 521.042969 C 986.265625 517.089844 980.222656 511.789062 974.859375 506.078125 C 986.265625 514.113281 998.035156 513.160156 998.035156 513.160156 C 991.757812 509.402344 993.296875 499.855469 993.296875 499.855469 C 1000.125 507.769531 1017.621094 506.597656 1017.621094 506.597656 C 1005.976562 504.484375 1007.023438 494.011719 1009.214844 495.363281 C 1023.378906 499.242188 1030.988281 492.382812 1030.988281 492.382812 C 1026.257812 492.25 1019.53125 486.546875 1019.53125 486.546875 C 1027.199219 485.703125 1036.210938 477.394531 1036.210938 477.394531 C 1026.421875 480.574219 996.550781 478.988281 983.902344 472.410156 C 979.710938 470.222656 974.914062 465.351562 970.367188 459.8125 C 976.863281 462.828125 984.050781 461.875 984.050781 461.875 C 977.707031 455.976562 973.949219 446.894531 973.949219 446.894531 C 987.175781 459.421875 998.894531 454.8125 998.894531 454.8125 C 991.023438 454.191406 986.4375 445.660156 986.4375 445.660156 C 1001.152344 453.226562 1015.902344 450.402344 1015.902344 450.402344 C 1005.476562 447.105469 998.84375 438.882812 998.84375 438.882812 C 1015.289062 439.90625 1026.996094 433.332031 1026.996094 433.332031 C 1022.003906 435.4375 996.5 434.933594 982.570312 430.734375 C 977.425781 429.1875 970.71875 424.773438 964.296875 419.824219 C 962.636719 417.519531 961.851562 413.648438 961.851562 413.648438 C 973.386719 423.578125 981.464844 419.9375 981.464844 419.9375 C 977.273438 420.046875 974.328125 411.992188 974.328125 411.992188 C 986.183594 417.511719 998.035156 407.691406 998.035156 407.691406 C 993.417969 409.234375 977.585938 403.496094 977.585938 403.496094 C 980.941406 403.164062 981.363281 396.324219 981.363281 396.324219 C 967.304688 399.195312 960.910156 394.78125 960.910156 394.78125 C 963.972656 395.0625 967.019531 394.023438 969.113281 392.550781 C 964.261719 390.792969 962.660156 387.4375 962.660156 387.4375 C 966.4375 389.496094 971.890625 388.40625 974.082031 386.359375 C 976.195312 384.394531 976.191406 381.773438 976.191406 381.773438 C 952.070312 381.992188 948.746094 370.5 948.746094 370.5 C 953.464844 375.355469 963.738281 375.03125 963.738281 375.03125 C 959.546875 373.257812 954.71875 365.09375 954.71875 365.09375 C 961.75 370.171875 968.667969 366.417969 968.667969 366.417969 C 963.949219 367.191406 955.660156 355.496094 955.660156 355.496094 C 966.78125 363.882812 981.777344 350.972656 981.777344 350.972656 C 967.484375 351.402344 958.074219 340.351562 951.917969 330.496094 C 955.585938 332.351562 965.910156 334.242188 965.910156 334.242188 C 960.042969 332.695312 948.535156 314.492188 948.535156 314.492188 C 951.980469 317.25 954.628906 316.324219 954.628906 316.324219 C 946.808594 311.269531 945.203125 297.007812 945.203125 297.007812 C 946.183594 305.574219 935.078125 317.765625 935.078125 317.765625 C 940.007812 318.925781 942.839844 316.210938 942.839844 316.210938 C 942.667969 322.078125 933.007812 331.042969 933.007812 331.042969 C 937.664062 332.375 941.164062 330.082031 943.375 327.757812 C 937.402344 344.335938 915.707031 352.292969 915.707031 352.292969 C 920.632812 357.261719 933.117188 354.726562 933.117188 354.726562 C 931.542969 361.449219 917.382812 367.519531 917.382812 367.519531 C 922.441406 370.597656 933.453125 367.476562 938.574219 365.742188 C 938.414062 366.414062 938.242188 367.144531 938.046875 367.96875 C 936.050781 376.347656 913.976562 377.691406 913.976562 377.691406 C 915.152344 382.414062 925.929688 381.144531 925.929688 381.144531 C 925.511719 384.457031 910.585938 386.652344 910.585938 386.652344 C 915.574219 392.71875 930.960938 388.464844 930.960938 388.464844 C 920.894531 397.902344 888.964844 398.640625 888.964844 398.640625 C 893.996094 404.15625 910.671875 405.265625 910.671875 405.265625 C 908.382812 408.851562 900.441406 412.371094 900.441406 412.371094 C 908.625 416.125 921.472656 408.460938 921.472656 408.460938 C 919.394531 413.476562 914.503906 417.472656 914.503906 417.472656 C 918.210938 418.21875 923.957031 416.460938 928.65625 414.582031 C 924.957031 417.492188 920.136719 420.539062 913.886719 423.328125 C 892.773438 432.746094 870.941406 425.21875 870.941406 425.21875 C 870.941406 425.21875 877.945312 438.886719 890.46875 437.1875 C 890.46875 437.1875 881.320312 444.773438 875.8125 442.675781 C 875.8125 442.675781 887.867188 451.289062 901.453125 441.261719 C 901.453125 441.261719 902.28125 448.328125 891.074219 452.589844 C 891.074219 452.589844 905.554688 459.359375 919.089844 444.28125 C 919.089844 444.28125 920.019531 455.816406 911.371094 458.726562 C 911.371094 458.726562 925.03125 455.933594 932.445312 446.453125 C 932.445312 446.453125 932.464844 446.46875 932.484375 446.492188 C 926.601562 453.714844 918.238281 462.382812 909.097656 466.90625 C 891.695312 475.511719 869.871094 480.496094 850.960938 475.714844 C 861.183594 489.5625 879.90625 487.355469 879.90625 487.355469 C 879.90625 487.355469 881.214844 491.230469 862.183594 496.375 C 862.183594 496.375 886.761719 504.222656 892.804688 495 C 892.804688 495 882.875 509.625 878.957031 511.898438 C 885.886719 513.605469 903.875 509.828125 907.277344 502.878906 C 907.277344 502.878906 909.097656 507.699219 902.035156 513.574219 C 902.035156 513.574219 909.410156 515.132812 916.980469 511.757812 C 900.988281 529.253906 875.277344 548.183594 834.214844 566.015625 C 834.214844 566.015625 843.304688 570.78125 850.015625 568.347656 C 858.824219 565.144531 863.753906 560.480469 863.753906 560.480469 C 863.753906 560.480469 862.914062 564.183594 861.652344 566.355469 C 859.976562 569.246094 852.214844 577.15625 852.214844 577.15625 C 852.214844 577.15625 872.164062 571.429688 874.871094 563.308594 C 874.871094 563.308594 874.773438 577.09375 868.207031 582.945312 C 868.207031 582.945312 892.554688 571.289062 892.59375 556.914062 C 892.59375 556.914062 892.601562 561.082031 892.492188 563.308594 C 892.339844 566.21875 889.449219 578.621094 889.449219 578.621094 C 889.449219 578.621094 907.878906 567.730469 914.273438 552.800781 C 914.273438 552.800781 912.84375 566.035156 906.785156 572.984375 C 906.785156 572.984375 915.925781 572.578125 923.046875 564.203125 C 908.339844 586.207031 878.792969 613.136719 819.453125 630.84375 "/><g clip-rule="nonzero" clip-path="url(#0d0a66a6d9)"><path style=" stroke:none;fill-rule:nonzero;fill:#91ad51;fill-opacity:1;" d="M 865.507812 645.371094 C 918.695312 634.277344 921.03125 620.925781 921.03125 620.925781 C 883.824219 623.765625 869.972656 609.582031 869.972656 609.582031 C 933.878906 611.746094 938.546875 578.992188 938.546875 578.992188 C 922.695312 599.851562 910.511719 592.835938 910.511719 592.835938 C 915.1875 591.339844 917.359375 581.15625 917.359375 581.15625 C 899.003906 596.175781 886.15625 590.671875 886.15625 590.671875 C 892.824219 590.835938 897.5 578.652344 897.5 578.652344 C 878.640625 586.996094 859.789062 572.152344 859.789062 572.152344 C 867.132812 574.488281 892.328125 565.808594 892.328125 565.808594 C 886.984375 565.308594 886.320312 554.960938 886.320312 554.960938 C 908.675781 559.296875 924.453125 546.757812 924.453125 546.757812 C 907.269531 548.253906 893.167969 532.984375 893.167969 532.984375 C 931.546875 533.324219 938.21875 515.910156 938.21875 515.910156 C 930.707031 523.253906 913.863281 518.800781 913.863281 518.800781 C 920.53125 516.132812 928.703125 507.738281 928.703125 507.738281 C 917.523438 515.414062 905.847656 504.121094 905.847656 504.121094 C 913.359375 505.285156 927.203125 493.21875 927.203125 493.21875 C 917.152344 497.152344 905.683594 488.433594 905.683594 488.433594 C 922.152344 482.472656 931.617188 471.511719 937.0625 461.199219 C 935.511719 462.078125 934.113281 462.828125 933.339844 463.15625 C 930.339844 464.402344 926.203125 464.402344 926.203125 464.402344 C 937.390625 452.390625 943.5625 422.351562 943.5625 422.351562 C 942.941406 435.882812 956.746094 457.984375 960.917969 461.066406 C 957.617188 460.9375 953.445312 459.734375 950.191406 458.605469 C 962.210938 478.390625 988.628906 487.554688 988.628906 487.554688 C 980.789062 495.0625 963.074219 492.050781 963.074219 492.050781 C 965.578125 502.230469 988.105469 511.40625 988.105469 511.40625 C 980.0625 516.0625 962.546875 511.332031 954.394531 508.71875 C 954.648438 509.726562 954.921875 510.839844 955.234375 512.078125 C 958.40625 524.757812 999.789062 521.757812 999.789062 521.757812 C 999.457031 527.425781 977.761719 534.265625 977.761719 534.265625 C 978.433594 539.273438 996.035156 542.78125 996.035156 542.78125 C 988.105469 551.953125 967.082031 548.121094 967.082031 548.121094 C 970.757812 562.304688 1033.328125 558.464844 1033.328125 558.464844 C 1025.320312 566.808594 998.789062 568.476562 998.789062 568.476562 C 999.457031 575.820312 1013.476562 583.328125 1013.476562 583.328125 C 1000.457031 589.003906 981.605469 573.316406 981.605469 573.316406 C 978.265625 577.992188 993.945312 588.003906 993.945312 588.003906 C 985.273438 593.507812 955.902344 575.148438 955.902344 575.148438 C 964.578125 595.679688 1019.976562 604.1875 1019.976562 604.1875 C 995.117188 621.542969 960.574219 604.1875 960.574219 604.1875 C 969.417969 626.046875 1037.671875 631.21875 1037.671875 631.21875 C 1029.988281 644.90625 1012.46875 640.898438 1012.46875 640.898438 C 1011.632812 646.574219 1024.816406 656.082031 1024.816406 656.082031 C 1016.976562 657.082031 1001.792969 649.078125 1001.792969 649.078125 C 1000.789062 652.414062 1005.628906 662.421875 1005.628906 662.421875 C 1001.628906 662.253906 989.105469 649.078125 989.105469 649.078125 L 991.445312 662.757812 C 978.761719 659.089844 965.414062 644.402344 965.414062 644.402344 C 964.414062 654.078125 983.101562 673.101562 983.101562 673.101562 C 964.746094 670.101562 954.402344 656.082031 954.402344 656.082031 L 954.402344 669.765625 L 947.558594 669.9375 L 948.210938 645.378906 C 946.957031 650.574219 945.796875 655.203125 943.554688 658.253906 C 935.613281 669.039062 911.691406 667.320312 911.691406 667.320312 C 923.867188 665.476562 927.460938 649.878906 927.460938 649.878906 C 913.773438 660.726562 903.933594 660.890625 903.933594 660.890625 C 907.683594 656.886719 905.308594 654.132812 905.308594 654.132812 C 893.167969 663.269531 883.402344 660.644531 883.402344 660.644531 C 892.746094 657.179688 895.25 655.089844 897.085938 652.464844 C 877.730469 653.796875 865.507812 645.371094 865.507812 645.371094 "/></g><path style=" stroke:none;fill-rule:nonzero;fill:#91ad51;fill-opacity:1;" d="M 603.144531 600.855469 C 648.554688 587.421875 650.546875 571.265625 650.546875 571.265625 C 618.777344 574.699219 606.953125 557.53125 606.953125 557.53125 C 661.515625 560.15625 665.503906 520.503906 665.503906 520.503906 C 651.96875 545.75 641.566406 537.265625 641.566406 537.265625 C 645.554688 535.449219 647.410156 523.125 647.410156 523.125 C 631.742188 541.304688 620.773438 534.640625 620.773438 534.640625 C 626.464844 534.839844 630.453125 520.09375 630.453125 520.09375 C 614.359375 530.195312 598.257812 512.214844 598.257812 512.214844 C 604.53125 515.050781 626.039062 504.542969 626.039062 504.542969 C 621.480469 503.9375 620.914062 491.414062 620.914062 491.414062 C 640 496.664062 653.472656 481.480469 653.472656 481.480469 C 638.796875 483.292969 626.757812 464.816406 626.757812 464.816406 C 659.523438 465.21875 665.214844 444.148438 665.214844 444.148438 C 658.800781 453.035156 644.421875 447.644531 644.421875 447.644531 C 650.121094 444.410156 657.097656 434.25 657.097656 434.25 C 647.554688 443.539062 637.585938 429.867188 637.585938 429.867188 C 643.996094 431.28125 655.816406 416.679688 655.816406 416.679688 C 647.238281 421.441406 637.441406 410.882812 637.441406 410.882812 C 651.503906 403.667969 659.585938 390.394531 664.234375 377.914062 C 662.910156 378.980469 661.71875 379.882812 661.058594 380.277344 C 658.492188 381.792969 654.960938 381.792969 654.960938 381.792969 C 664.507812 367.246094 669.78125 330.890625 669.78125 330.890625 C 669.25 347.265625 681.039062 374.015625 684.597656 377.757812 C 681.78125 377.597656 678.222656 376.144531 675.4375 374.777344 C 685.699219 398.722656 708.257812 409.820312 708.257812 409.820312 C 701.566406 418.914062 686.445312 415.265625 686.445312 415.265625 C 688.578125 427.582031 707.8125 438.691406 707.8125 438.691406 C 700.941406 444.328125 685.992188 438.609375 679.03125 435.441406 C 679.246094 436.660156 679.484375 438.003906 679.75 439.5 C 682.457031 454.855469 717.789062 451.21875 717.789062 451.21875 C 717.5 458.085938 698.980469 466.363281 698.980469 466.363281 C 699.550781 472.429688 714.578125 476.667969 714.578125 476.667969 C 707.8125 487.777344 689.863281 483.132812 689.863281 483.132812 C 693 500.300781 746.417969 495.65625 746.417969 495.65625 C 739.582031 505.757812 716.925781 507.777344 716.925781 507.777344 C 717.5 516.660156 729.46875 525.75 729.46875 525.75 C 718.355469 532.625 702.257812 513.628906 702.257812 513.628906 C 699.40625 519.285156 712.800781 531.40625 712.800781 531.40625 C 705.394531 538.074219 680.316406 515.851562 680.316406 515.851562 C 687.726562 540.699219 735.023438 551.003906 735.023438 551.003906 C 713.792969 572.011719 684.304688 551.003906 684.304688 551.003906 C 691.859375 577.460938 750.125 583.722656 750.125 583.722656 C 743.570312 600.289062 728.613281 595.441406 728.613281 595.441406 C 727.902344 602.308594 739.15625 613.824219 739.15625 613.824219 C 732.460938 615.035156 719.496094 605.339844 719.496094 605.339844 C 718.640625 609.378906 722.769531 621.5 722.769531 621.5 C 719.355469 621.296875 708.667969 605.339844 708.667969 605.339844 L 710.660156 621.898438 C 699.832031 617.460938 688.4375 599.683594 688.4375 599.683594 C 687.585938 611.398438 703.539062 634.429688 703.539062 634.429688 C 687.863281 630.792969 679.039062 613.824219 679.039062 613.824219 L 679.039062 630.390625 L 673.195312 630.585938 L 673.746094 600.867188 C 672.679688 607.15625 671.6875 612.761719 669.777344 616.449219 C 662.992188 629.511719 642.566406 627.421875 642.566406 627.421875 C 652.96875 625.199219 656.03125 606.316406 656.03125 606.316406 C 644.351562 619.441406 635.945312 619.644531 635.945312 619.644531 C 639.152344 614.796875 637.121094 611.460938 637.121094 611.460938 C 626.757812 622.523438 618.421875 619.339844 618.421875 619.339844 C 626.402344 615.148438 628.535156 612.625 630.101562 609.441406 C 613.582031 611.058594 603.144531 600.855469 603.144531 600.855469 "/><path style=" stroke:none;fill-rule:nonzero;fill:#4b7b07;fill-opacity:1;" d="M 626.554688 631.867188 C 626.554688 631.867188 639.960938 654.242188 675.902344 637.917969 C 675.902344 637.917969 664.636719 657.875 655.523438 658.476562 C 655.523438 658.476562 674.832031 664.523438 692 649.410156 C 692 649.410156 692 662.707031 678.050781 669.363281 C 678.050781 669.363281 699.507812 678.433594 724.722656 649.410156 C 724.722656 649.410156 720.203125 660.703125 713.761719 667.957031 C 713.761719 667.957031 736.300781 668.472656 745.417969 646.703125 C 745.417969 646.703125 740.214844 663.554688 733.238281 668.394531 C 733.238281 668.394531 764.332031 662.019531 775.601562 636.625 C 775.601562 636.625 776.746094 652.535156 770.847656 658.582031 C 770.847656 658.582031 777.738281 660.664062 789.605469 653.058594 C 796.019531 648.949219 804.234375 637.261719 804.234375 637.261719 C 804.234375 637.261719 813.609375 656.273438 831.851562 672.324219 C 820.417969 646.128906 826.171875 634.777344 826.171875 634.777344 C 826.171875 634.777344 828.125 642.785156 842.894531 654.34375 C 858.386719 666.472656 875.648438 666.929688 875.648438 666.929688 C 863.871094 653.320312 856.054688 637.300781 856.054688 637.300781 C 881.042969 664.617188 923.160156 665.511719 923.160156 665.511719 C 915.535156 661.121094 908.484375 642.242188 908.484375 642.242188 C 926.117188 658.070312 953.132812 645.816406 953.132812 645.816406 C 941.230469 645.707031 927.273438 630.328125 927.273438 630.328125 C 955.78125 636.109375 971.96875 614.917969 971.96875 614.917969 C 971.96875 614.917969 923.414062 616.785156 879.882812 597.582031 C 866.78125 591.800781 847.132812 580.628906 841.738281 563.03125 C 849.636719 577.257812 872.945312 585.632812 890.925781 583.582031 L 880.78125 569.066406 C 892.339844 581.136719 916.359375 580.113281 932.410156 578.441406 C 923.238281 572.800781 912.242188 562.902344 912.242188 562.902344 C 925.34375 566.882812 949.292969 562.851562 958.605469 544.800781 C 895.167969 538.890625 862.699219 527.820312 836.347656 503.699219 C 856.789062 512.929688 881.550781 512.6875 881.550781 512.6875 C 872.570312 508.835938 872.078125 492.886719 872.078125 492.886719 C 882.347656 501.75 905.878906 498.28125 905.878906 498.28125 C 891.964844 496.648438 892.824219 484.886719 893.039062 485.566406 C 912.726562 488.648438 922.140625 479.402344 922.140625 479.402344 C 915.722656 479.789062 905.878906 473.625 905.878906 473.625 C 916.148438 471.695312 927.273438 460.523438 927.273438 460.523438 C 914.433594 465.53125 873.785156 467.070312 855.820312 460.523438 C 850.042969 458.414062 843.164062 453.289062 836.488281 447.296875 C 845.773438 452.414062 855.277344 452.695312 855.277344 452.695312 C 842.292969 448.179688 841.425781 437.554688 841.425781 437.554688 C 860.804688 457.742188 882.5625 449.46875 882.5625 449.46875 C 866.960938 444.199219 869.132812 431.277344 869.132812 431.277344 C 888.316406 444.421875 909.453125 432.175781 909.453125 432.175781 C 902.007812 435.429688 883.804688 423.578125 883.804688 423.578125 C 901.085938 425.1875 913.777344 400.882812 913.777344 400.882812 C 913.777344 400.882812 877.289062 418.957031 847.445312 408.054688 C 826.972656 400.570312 822.730469 391.457031 822.730469 391.457031 C 822.730469 391.457031 827.039062 394.933594 835.445312 399.21875 C 842.242188 402.683594 848.164062 403.527344 854.328125 402.710938 C 844.902344 401.691406 845.40625 392.15625 845.40625 392.15625 C 856.277344 400.054688 870.785156 396.621094 870.785156 396.621094 C 862.976562 394.378906 853.824219 381.519531 853.824219 381.519531 C 865.683594 385.394531 871.367188 379.882812 871.367188 379.882812 C 864.144531 379.292969 860.582031 374.042969 860.582031 374.042969 C 875.511719 374.445312 883.097656 365.382812 883.097656 365.382812 C 847.113281 371.648438 831.265625 358.433594 831.265625 358.433594 C 859.972656 359.414062 868.855469 344.515625 868.855469 344.515625 C 819.78125 348.246094 815.78125 319.898438 815.78125 319.898438 C 825.214844 329.9375 836.082031 329.304688 836.082031 329.304688 C 832.445312 328.304688 830.445312 320.546875 830.445312 320.546875 C 845.042969 331.503906 854.75 326.855469 854.75 326.855469 C 849.621094 327.199219 841.316406 317.289062 841.316406 317.289062 C 853.75 320.707031 868.441406 311.324219 868.441406 311.324219 C 862.871094 313.355469 840.207031 309.238281 840.207031 309.238281 C 847.066406 307.3125 853.53125 300.574219 853.53125 300.574219 C 836.476562 304.636719 816.699219 294.28125 816.699219 294.28125 C 829.902344 295.371094 841.054688 288.179688 844.273438 283.613281 C 814.769531 285.109375 812.300781 271.046875 812.300781 271.046875 C 818.3125 276.453125 830.871094 275.539062 830.871094 275.539062 C 825.65625 273.703125 819.351562 264.453125 819.351562 264.453125 C 828.195312 269.996094 836.484375 265.277344 836.484375 265.277344 C 830.742188 266.417969 815.351562 249.925781 815.351562 249.925781 C 829.363281 259.109375 841.277344 247.492188 841.277344 247.492188 C 814.234375 249.398438 804.992188 210.296875 804.992188 210.296875 C 807.28125 237.195312 770.996094 251.570312 770.996094 251.570312 C 777.269531 257.09375 792.414062 253.5 792.414062 253.5 C 790.816406 261.410156 773.792969 269.195312 773.792969 269.195312 C 780.128906 272.511719 793.445312 268.316406 799.625 266.039062 C 799.464844 266.824219 799.285156 267.683594 799.089844 268.644531 C 797.058594 278.5 765.140625 277.523438 765.140625 277.523438 C 765.582031 281.878906 782.484375 286.441406 782.484375 286.441406 C 782.136719 290.308594 768.707031 293.574219 768.707031 293.574219 C 775.097656 300.378906 791.140625 296.746094 791.140625 296.746094 C 788.777344 307.773438 749.554688 313.230469 749.554688 313.230469 C 755.988281 319.390625 773.179688 315.515625 773.179688 315.515625 C 772.148438 318.546875 761.691406 321.976562 761.691406 321.976562 C 771.878906 325.917969 780.789062 316.585938 780.789062 316.585938 C 778.675781 322.515625 773.140625 326.121094 773.140625 326.121094 C 785.480469 328.402344 800.613281 317.171875 800.613281 317.171875 C 794.597656 333.234375 752.277344 341.566406 752.277344 341.566406 C 771.957031 354.109375 793.585938 341.714844 793.585938 341.714844 C 787.492188 358.808594 737.714844 363.132812 737.714844 363.132812 C 740.695312 369.125 759.238281 369.554688 759.238281 369.554688 C 752.542969 375.175781 743.398438 379.992188 743.398438 379.992188 C 755.726562 382.78125 767.707031 375.496094 767.707031 375.496094 C 768.585938 378.03125 760.058594 385 760.058594 385 C 766.035156 386.0625 779.066406 376.042969 779.066406 376.042969 L 771.621094 386.0625 C 784.078125 385.671875 792.167969 378.355469 792.167969 378.355469 C 779.582031 392.480469 765.453125 397.359375 749.53125 399.671875 C 731.199219 402.335938 721.914062 402.238281 701.882812 400.832031 C 701.882812 400.832031 708.074219 411.46875 728.207031 412.773438 C 728.207031 412.773438 719.945312 419.53125 706.773438 421.933594 C 706.773438 421.933594 720.398438 428.558594 739.4375 421.632812 C 739.4375 421.632812 732.550781 431.296875 722.890625 430.832031 C 722.890625 430.832031 736.410156 436.703125 754.429688 423.53125 C 752.46875 429.046875 752.402344 433.339844 741.824219 440.925781 C 741.824219 440.925781 763.429688 440.167969 774.058594 428.695312 C 774.058594 428.695312 767.398438 439.449219 761.984375 445.519531 C 761.984375 445.519531 771.230469 445.777344 787.554688 436.523438 C 779.644531 444.351562 770.414062 451.691406 761.179688 455.046875 C 736.8125 463.898438 710.144531 466.722656 685.316406 458.671875 C 685.316406 458.671875 690.15625 471.503906 702.558594 473.808594 C 698.09375 476.515625 693.789062 478.433594 688.214844 479.320312 C 688.214844 479.320312 698.894531 489.03125 724.355469 479.808594 C 724.355469 479.808594 719.601562 487.390625 704.628906 496.503906 C 704.628906 496.503906 728.078125 497.714844 737.269531 486.847656 C 737.269531 486.847656 731.164062 501.769531 724.398438 508.578125 C 735.144531 508.199219 752.765625 502.089844 760.261719 494.089844 C 760.261719 494.089844 758.644531 500.871094 752.351562 507.039062 C 752.351562 507.039062 765.835938 508.386719 774.121094 500.683594 C 778.734375 496.390625 778.230469 496.5625 782.605469 491.253906 C 763.332031 528.226562 718.257812 555.773438 654.109375 558.667969 C 654.109375 558.667969 658.628906 566.132812 665.40625 569.519531 C 670.546875 572.085938 680.175781 570.863281 680.175781 570.863281 C 680.175781 570.863281 666.230469 580.761719 659.304688 584.671875 C 673.566406 588.078125 690.195312 586.417969 694.355469 578.984375 C 694.355469 578.984375 690.609375 590.734375 681.847656 595.84375 C 681.847656 595.84375 708.851562 592.894531 712.769531 578.546875 C 712.769531 578.546875 713.792969 581.683594 711.164062 586.792969 C 709.972656 589.105469 704.578125 597.195312 704.578125 597.195312 C 739.765625 591.609375 746.386719 587.046875 764.492188 573.308594 C 753.832031 586.921875 742.46875 596.683594 725.894531 604.003906 C 695.941406 617.238281 684.796875 626.898438 626.554688 631.867188 "/><path style=" stroke:none;fill-rule:nonzero;fill:#385c05;fill-opacity:1;" d="M 799.71875 437.765625 C 798.089844 442.539062 801.910156 455.039062 746.683594 481.511719 C 746.683594 481.511719 754.953125 485.289062 760.976562 478.808594 C 761.003906 478.445312 759.199219 485.988281 755.511719 488.835938 C 755.511719 488.835938 764.117188 485.90625 769.007812 478.160156 C 769.007812 478.160156 770.792969 482.410156 766.058594 486.898438 C 766.058594 486.898438 776.53125 487.625 782.804688 474.082031 C 782.804688 474.082031 783.3125 476.734375 781.695312 480.140625 C 781.695312 480.140625 791.25 474.613281 792 466.117188 C 792.351562 467.5625 791.382812 474.148438 790.289062 478.109375 C 792.199219 476.273438 800.335938 462.140625 800.855469 453.136719 C 801.300781 445.28125 799.71875 437.765625 799.71875 437.765625 "/><path style=" stroke:none;fill-rule:nonzero;fill:#91ad51;fill-opacity:1;" d="M 809.59375 402.5625 C 807.160156 409.660156 812.847656 428.246094 730.722656 467.613281 C 730.722656 467.613281 743.007812 473.230469 751.96875 463.601562 C 752.015625 463.058594 749.332031 474.269531 743.851562 478.503906 C 743.851562 478.503906 756.632812 474.148438 763.914062 462.632812 C 763.914062 462.632812 766.574219 468.945312 759.535156 475.625 C 759.535156 475.625 775.101562 476.707031 784.425781 456.570312 C 784.425781 456.570312 785.191406 460.511719 782.785156 465.582031 C 782.785156 465.582031 796.988281 457.351562 798.109375 444.722656 C 798.628906 446.875 797.191406 456.664062 795.5625 462.554688 C 798.394531 459.828125 810.503906 438.816406 811.265625 425.421875 C 811.9375 413.734375 809.59375 402.5625 809.59375 402.5625 "/><path style=" stroke:none;fill-rule:nonzero;fill:#91ad51;fill-opacity:1;" d="M 807.546875 485.050781 C 807.546875 485.050781 816.246094 528.988281 899.582031 555.113281 C 899.582031 555.113281 887.691406 566.355469 872.226562 552.878906 C 872.226562 552.878906 873.824219 562.773438 877.652344 565.265625 C 877.652344 565.265625 865.308594 565.144531 858.335938 552.953125 C 858.335938 552.953125 855.742188 560.792969 862.507812 567.378906 C 862.507812 567.378906 848.34375 568.632812 839.425781 546.699219 C 839.425781 546.699219 836.636719 551.476562 838.941406 556.984375 C 838.941406 556.984375 822.902344 555.1875 821.878906 540.609375 C 821.878906 540.609375 819.210938 547.730469 820.699219 552.375 C 820.699219 552.375 807.394531 541.648438 805.835938 524.523438 C 805.835938 524.523438 803.507812 525.726562 804.050781 533.03125 C 804.050781 533.03125 793.789062 527.898438 799.867188 503.132812 C 802.859375 490.910156 807.546875 485.050781 807.546875 485.050781 "/><path style=" stroke:none;fill-rule:nonzero;fill:#91ad51;fill-opacity:1;" d="M 736.8125 614.277344 C 747.21875 617.167969 765.453125 601.5 765.453125 601.5 C 762.917969 603.53125 755.429688 603.792969 752.097656 600.855469 C 771.964844 599.773438 796.59375 551.003906 796.472656 547.304688 C 795.890625 552.792969 796.980469 561.921875 796.96875 566.546875 C 796.949219 571.914062 797.726562 583.800781 794.683594 595.992188 C 794.683594 595.992188 794.820312 592.632812 792.242188 589.207031 C 790.128906 603.367188 785.636719 614.804688 782.410156 618.964844 C 784.1875 609.378906 781.375 606.632812 781.375 606.632812 C 779.835938 619.480469 760.828125 623.320312 760.828125 623.320312 C 768.535156 618.433594 767.574219 611.582031 767.574219 611.582031 C 760.574219 619.964844 741.117188 618.066406 736.8125 614.277344 "/><path style=" stroke:none;fill-rule:nonzero;fill:#385c05;fill-opacity:1;" d="M 819.738281 448.976562 C 819.738281 448.976562 820.375 466.007812 841.839844 479.445312 C 854.054688 487.097656 867.265625 488.835938 867.265625 488.835938 C 867.265625 488.835938 860.132812 494.503906 850.839844 489.585938 C 850.839844 489.585938 848.945312 492.453125 851.984375 495.632812 C 851.984375 495.632812 834.851562 493.960938 833.34375 481.910156 C 832.859375 482.59375 829.761719 483.804688 830.183594 491.597656 C 830.183594 491.597656 815.292969 467.988281 819.738281 448.976562 "/><path style=" stroke:none;fill-rule:nonzero;fill:#91ad51;fill-opacity:1;" d="M 818.625 443.359375 C 818.625 443.359375 822.972656 459.835938 846.851562 468.25 C 860.457031 473.046875 873.714844 471.84375 873.714844 471.84375 C 873.714844 471.84375 868.003906 478.9375 857.859375 476.171875 C 857.859375 476.171875 856.632812 479.382812 860.296875 481.824219 C 860.296875 481.824219 843.214844 483.945312 839.105469 472.511719 C 838.789062 473.28125 836.023438 475.148438 838.144531 482.65625 C 838.144531 482.65625 818.445312 462.878906 818.625 443.359375 "/><path style=" stroke:none;fill-rule:nonzero;fill:#91ad51;fill-opacity:1;" d="M 807.351562 289.824219 C 807.351562 289.824219 811.820312 299.566406 824.453125 304.152344 C 824.453125 304.152344 818.246094 305.289062 815.113281 301.996094 C 815.113281 301.996094 815.535156 304.039062 818 305.625 C 818 305.625 814.324219 305.546875 811.96875 301.753906 C 811.96875 301.753906 811.335938 302.855469 811.453125 304.160156 C 811.453125 304.160156 806.230469 295.484375 807.351562 289.824219 "/><path style=" stroke:none;fill-rule:nonzero;fill:#91ad51;fill-opacity:1;" d="M 798.585938 335.152344 C 800.613281 334.4375 806.128906 325.089844 806.421875 323.179688 C 806.421875 323.179688 815.089844 336.089844 821.082031 339.457031 C 827.074219 342.828125 838.628906 346.234375 841.074219 346.050781 C 841.074219 346.050781 835.214844 347.109375 827.820312 344.644531 C 827.820312 344.644531 830.164062 348.644531 834.636719 351.230469 C 834.636719 351.230469 827.691406 350.457031 821.625 345.695312 C 821.625 345.695312 823.011719 349.554688 826.539062 350.78125 C 826.539062 350.78125 820.832031 351.082031 815.839844 344.59375 C 815.839844 344.59375 815.070312 348.765625 817.472656 351.832031 C 817.472656 351.832031 810.542969 350.253906 809.816406 343.667969 C 809.816406 343.667969 806.140625 345.921875 807.402344 348.507812 C 807.402344 348.507812 804.210938 347.285156 804.472656 341.535156 C 804.472656 341.535156 803.402344 342.488281 802.320312 345.386719 C 801.765625 342.59375 801.433594 340.28125 802.335938 335.222656 C 801.011719 336.9375 798.585938 335.152344 798.585938 335.152344 "/><path style=" stroke:none;fill-rule:nonzero;fill:#91ad51;fill-opacity:1;" d="M 797.613281 386.730469 C 793.949219 393.265625 783.582031 393.984375 783.582031 393.984375 C 801.890625 381.5 805.058594 364.121094 805.058594 364.121094 C 806.007812 367.457031 806.445312 373.226562 811.386719 377.09375 C 811.386719 377.09375 808.242188 377.246094 806.667969 374.972656 C 806.664062 375.023438 806.664062 375.074219 806.664062 375.125 C 806.921875 376.308594 808.265625 381.878906 810.476562 383.570312 C 810.476562 383.570312 808.867188 383.859375 806.613281 380.101562 C 806.476562 379.878906 806.363281 379.648438 806.265625 379.398438 C 805.578125 384.578125 804.34375 388.691406 804.34375 388.691406 C 804 386.558594 802.542969 385.054688 802.542969 385.054688 C 800.320312 392.082031 794.492188 393.699219 794.492188 393.699219 C 797.769531 390.167969 797.613281 386.730469 797.613281 386.730469 "/><path style=" stroke:none;fill-rule:nonzero;fill:#385c05;fill-opacity:1;" d="M 848.03125 604.328125 C 841.722656 604.90625 835.207031 602.628906 830.640625 598.238281 C 832.304688 604.570312 837.550781 609.320312 843.050781 612.867188 C 848.550781 616.417969 854.609375 619.207031 859.460938 623.601562 C 849.0625 623.117188 838.84375 619.25 830.726562 612.734375 C 830.273438 619.175781 831.46875 625.726562 834.171875 631.59375 C 826.578125 623.652344 818.566406 614.824219 817.566406 603.882812 C 815.539062 608.988281 811.425781 613.230469 806.375 615.410156 C 810.164062 601.78125 812.558594 587.761719 813.515625 573.648438 C 813.738281 570.324219 813.746094 567.035156 813.023438 563.769531 C 818.171875 570.335938 821.515625 578.640625 827.023438 585.304688 C 830.183594 589.128906 842.597656 604.824219 848.03125 604.328125 "/><path style=" stroke:none;fill-rule:nonzero;fill:#385c05;fill-opacity:1;" d="M 778.21875 526.089844 C 776.683594 527.882812 775.148438 529.675781 773.484375 531.355469 C 768.675781 536.234375 762.855469 540.105469 756.5 542.667969 C 762.664062 543.222656 768.929688 542.488281 774.804688 540.535156 C 769.550781 546.832031 765.289062 553.960938 762.21875 561.570312 C 764.570312 560.839844 766.585938 559.328125 768.5625 557.84375 C 774.015625 553.742188 779.765625 549.253906 781.929688 542.78125 C 782.136719 545.921875 783.300781 548.992188 785.238281 551.476562 C 785.503906 541.203125 786.808594 529.222656 784.675781 519.160156 C 782.238281 520.796875 780.222656 523.75 778.21875 526.089844 "/><path style=" stroke:none;fill-rule:nonzero;fill:#385c05;fill-opacity:1;" d="M 823.183594 411.4375 C 824.101562 412.5 825.011719 413.570312 826 414.570312 C 828.863281 417.472656 832.335938 419.785156 836.121094 421.308594 C 832.449219 421.640625 828.710938 421.207031 825.214844 420.035156 C 828.347656 423.792969 830.882812 428.035156 832.710938 432.570312 C 831.316406 432.128906 830.113281 431.230469 828.933594 430.351562 C 825.6875 427.90625 822.261719 425.230469 820.972656 421.378906 C 820.851562 423.25 820.160156 425.078125 819.003906 426.558594 C 818.839844 420.4375 818.070312 413.304688 819.335938 407.308594 C 820.789062 408.277344 821.988281 410.042969 823.183594 411.4375 "/><path style=" stroke:none;fill-rule:nonzero;fill:#4b7b07;fill-opacity:1;" d="M 455.589844 610.109375 C 531.011719 592.125 534.324219 570.488281 534.324219 570.488281 C 481.554688 575.085938 461.917969 552.09375 461.917969 552.09375 C 552.546875 555.609375 559.164062 502.507812 559.164062 502.507812 C 536.6875 536.316406 519.414062 524.960938 519.414062 524.960938 C 526.039062 522.523438 529.113281 506.027344 529.113281 506.027344 C 503.082031 530.367188 484.863281 521.4375 484.863281 521.4375 C 494.324219 521.710938 500.957031 501.96875 500.957031 501.96875 C 474.210938 515.488281 447.476562 491.421875 447.476562 491.421875 C 457.886719 495.203125 493.617188 481.140625 493.617188 481.140625 C 486.046875 480.324219 485.105469 463.554688 485.105469 463.554688 C 516.808594 470.585938 539.175781 450.257812 539.175781 450.257812 C 514.804688 452.691406 494.808594 427.9375 494.808594 427.9375 C 549.234375 428.480469 558.691406 400.265625 558.691406 400.265625 C 548.042969 412.164062 524.152344 404.945312 524.152344 404.945312 C 533.617188 400.621094 545.203125 387.011719 545.203125 387.011719 C 529.351562 399.457031 512.789062 381.144531 512.789062 381.144531 C 523.4375 383.042969 543.074219 363.476562 543.074219 363.476562 C 528.828125 369.859375 512.554688 355.71875 512.554688 355.71875 C 535.910156 346.058594 549.335938 328.285156 557.0625 311.574219 C 554.859375 313 552.878906 314.21875 551.777344 314.738281 C 547.519531 316.769531 541.660156 316.769531 541.660156 316.769531 C 557.515625 297.292969 566.273438 248.609375 566.273438 248.609375 C 565.394531 270.542969 584.964844 306.359375 590.882812 311.363281 C 586.199219 311.152344 580.296875 309.203125 575.671875 307.375 C 592.714844 339.445312 630.1875 354.304688 630.1875 354.304688 C 619.058594 366.476562 593.953125 361.585938 593.953125 361.585938 C 597.5 378.085938 629.441406 392.960938 629.441406 392.960938 C 618.035156 400.5 593.195312 392.84375 581.640625 388.609375 C 602.125 408.195312 646.007812 409.730469 646.007812 409.730469 C 645.535156 418.925781 614.773438 430.015625 614.773438 430.015625 C 615.722656 438.136719 640.683594 443.8125 640.683594 443.8125 C 629.441406 458.691406 599.628906 452.46875 599.628906 452.46875 C 604.835938 475.460938 693.570312 469.238281 693.570312 469.238281 C 682.210938 482.765625 644.585938 485.464844 644.585938 485.464844 C 645.535156 497.371094 665.414062 509.542969 665.414062 509.542969 C 646.957031 518.738281 620.210938 493.3125 620.210938 493.3125 C 615.480469 500.886719 637.726562 517.113281 637.726562 517.113281 C 625.421875 526.042969 583.773438 496.285156 583.773438 496.285156 C 596.078125 529.554688 674.644531 543.347656 674.644531 543.347656 C 639.382812 571.480469 590.398438 543.347656 590.398438 543.347656 C 602.9375 578.785156 699.722656 587.167969 699.722656 587.167969 C 688.839844 609.347656 663.992188 602.855469 663.992188 602.855469 C 662.808594 612.054688 681.503906 627.472656 681.503906 627.472656 C 670.382812 629.097656 648.847656 616.109375 648.847656 616.109375 C 647.425781 621.519531 654.285156 637.746094 654.285156 637.746094 C 648.613281 637.480469 630.859375 616.109375 630.859375 616.109375 L 634.171875 638.289062 C 616.191406 632.339844 597.265625 608.539062 597.265625 608.539062 C 595.84375 624.226562 622.347656 655.058594 622.347656 655.058594 C 596.316406 650.191406 581.648438 627.472656 581.648438 627.472656 L 581.648438 649.652344 L 571.941406 649.917969 L 572.863281 610.125 C 571.085938 618.542969 569.445312 626.054688 566.265625 630.988281 C 555 648.472656 521.078125 645.683594 521.078125 645.683594 C 538.347656 642.703125 543.4375 617.417969 543.4375 617.417969 C 524.03125 634.996094 510.070312 635.261719 510.070312 635.261719 C 515.394531 628.773438 512.027344 624.3125 512.027344 624.3125 C 494.808594 639.121094 480.96875 634.863281 480.96875 634.863281 C 494.21875 629.25 497.765625 625.867188 500.371094 621.605469 C 472.917969 623.773438 455.589844 610.109375 455.589844 610.109375 "/><path style=" stroke:none;fill-rule:nonzero;fill:#385c05;fill-opacity:1;" d="M 577.839844 381.84375 C 580.320312 386.863281 582.78125 390.972656 586.320312 395.015625 C 593.582031 403.320312 600.734375 411.832031 611.835938 417.964844 C 605.984375 417.207031 595.339844 414.589844 591.976562 409.5 C 591.417969 414.539062 595.023438 419.730469 598.144531 423.730469 C 587.558594 418.925781 582.8125 411.035156 581.15625 401.84375 C 578.933594 406.78125 579.347656 412.199219 579.167969 417.664062 C 575.890625 414.226562 574.328125 409.269531 573.992188 405.78125 C 573.246094 398.183594 573.621094 394.113281 574.527344 386.53125 C 573.347656 390.316406 570.09375 393.304688 566.367188 394.03125 C 571.335938 393.0625 572.78125 367.144531 573.003906 362.984375 C 573.84375 368.121094 574.824219 375.757812 577.839844 381.84375 "/><path style=" stroke:none;fill-rule:nonzero;fill:#385c05;fill-opacity:1;" d="M 543.679688 573.21875 C 541.195312 578.246094 538.738281 582.347656 535.195312 586.398438 C 527.929688 594.703125 520.785156 603.207031 509.675781 609.347656 C 515.535156 608.582031 526.179688 605.964844 529.542969 600.882812 C 530.101562 605.917969 526.496094 611.105469 523.375 615.105469 C 533.960938 610.308594 538.707031 602.417969 540.355469 593.21875 C 542.585938 598.164062 542.171875 603.582031 542.347656 609.039062 C 545.628906 605.609375 547.183594 600.644531 547.527344 597.15625 C 548.265625 589.5625 547.898438 585.492188 546.984375 577.914062 C 548.171875 581.699219 551.417969 584.679688 555.152344 585.410156 C 550.175781 584.4375 548.738281 558.527344 548.507812 554.367188 C 547.675781 559.5 546.691406 567.132812 543.679688 573.21875 "/><path style=" stroke:none;fill-rule:nonzero;fill:#91ad51;fill-opacity:1;" d="M 529.355469 475.753906 C 522.796875 480.464844 516.234375 485.179688 509.675781 489.898438 C 518.363281 490.222656 536.210938 481.753906 542.527344 475.492188 C 543.699219 481.140625 538.777344 486.625 534.960938 490.789062 C 543.675781 488.574219 547.789062 486.183594 552.519531 481.453125 C 558.894531 475.078125 560.34375 470.792969 561.953125 464.109375 C 562.617188 470.964844 563.066406 474.785156 563.757812 480.394531 C 569.539062 470.777344 571.925781 466.613281 569.722656 455.480469 C 573.085938 459.691406 572.207031 457.988281 578.265625 463.027344 C 575.640625 453.199219 575.398438 448.289062 572.46875 442.660156 C 569.222656 436.4375 563.6875 432.417969 563.6875 432.417969 C 562.910156 440.226562 556.082031 453.3125 550.3125 458.722656 C 543.527344 465.070312 536.808594 470.421875 529.355469 475.753906 "/><path style=" stroke:none;fill-rule:nonzero;fill:#91ad51;fill-opacity:1;" d="M 558.597656 343.058594 C 553.175781 348.898438 548.847656 351.746094 541.175781 353.074219 C 548.183594 355.316406 556.03125 351.316406 559.535156 349.242188 C 559.335938 355.71875 552.449219 360.105469 547.972656 369.234375 C 549.792969 368.011719 551.609375 366.792969 553.425781 365.570312 C 556.992188 363.171875 560.617188 360.726562 563.359375 357.335938 C 566.105469 353.949219 567.875 349.414062 567.082031 345.050781 C 569.324219 346.113281 571.496094 352.195312 571.496094 352.195312 C 571.496094 352.195312 572.46875 347.769531 571.265625 340.617188 C 570.347656 335.183594 569.820312 331.179688 568.601562 324.140625 C 566.640625 332.320312 565.09375 336.0625 558.597656 343.058594 "/><path style=" stroke:none;fill-rule:nonzero;fill:#385c05;fill-opacity:1;" d="M 570.519531 527.527344 C 570.4375 534.285156 560.515625 548.757812 615.3125 604.671875 C 615.3125 604.671875 603.804688 606.207031 599.359375 595.511719 C 599.480469 595.042969 598.410156 605.402344 601.613281 610.519531 C 601.613281 610.519531 592.570312 603.332031 590.023438 591.480469 C 590.023438 591.480469 586.066406 596.195312 589.8125 603.835938 C 589.8125 603.835938 576.960938 600.582031 575.246094 580.75 C 575.246094 580.75 573.5 583.941406 573.980469 588.945312 C 573.980469 588.945312 564.910156 578.054688 567.640625 566.882812 C 566.601562 568.597656 564.941406 577.40625 564.566406 582.914062 C 563.0625 579.804688 559.355469 558.476562 562.589844 546.75 C 565.417969 536.515625 570.519531 527.527344 570.519531 527.527344 "/></g></svg>