<svg xmlns="http://www.w3.org/2000/svg" xmlns:xlink="http://www.w3.org/1999/xlink" width="1920" zoomAndPan="magnify" viewBox="0 0 1440 809.999993" height="1080" preserveAspectRatio="xMidYMid meet" version="1.2"><g id="a8344d7e73"><path style=" stroke:none;fill-rule:nonzero;fill:#8b1900;fill-opacity:1;" d="M 201.25 2.414062 C 197.386719 0.453125 192.75 0.804688 189.234375 3.359375 L 65.433594 93.394531 L 11.53125 93.394531 C 5.15625 93.394531 0 98.550781 0 104.925781 L 0 220.226562 C 0 226.601562 5.15625 231.757812 11.53125 231.757812 L 65.433594 231.757812 L 189.234375 321.792969 C 191.238281 323.257812 193.628906 324 196.015625 324 C 197.804688 324 199.59375 323.582031 201.25 322.738281 C 205.113281 320.78125 207.542969 316.804688 207.542969 312.46875 L 207.542969 12.683594 C 207.542969 8.347656 205.113281 4.375 201.25 2.414062 Z M 201.25 2.414062 "/><path style=" stroke:none;fill-rule:nonzero;fill:#8b1900;fill-opacity:1;" d="M 319.46875 119.832031 C 314.964844 115.328125 307.667969 115.328125 303.164062 119.832031 L 276.726562 146.273438 L 250.289062 119.832031 C 245.785156 115.328125 238.488281 115.328125 233.984375 119.832031 C 229.480469 124.335938 229.480469 131.632812 233.984375 136.136719 L 260.421875 162.578125 L 233.984375 189.015625 C 229.480469 193.519531 229.480469 200.816406 233.984375 205.320312 C 236.234375 207.570312 239.183594 208.699219 242.136719 208.699219 C 245.085938 208.699219 248.035156 207.570312 250.289062 205.320312 L 276.726562 178.882812 L 303.164062 205.320312 C 305.417969 207.570312 308.367188 208.699219 311.316406 208.699219 C 314.265625 208.699219 317.21875 207.570312 319.46875 205.320312 C 323.972656 200.816406 323.972656 193.519531 319.46875 189.015625 L 293.03125 162.578125 L 319.46875 136.136719 C 323.972656 131.632812 323.972656 124.335938 319.46875 119.832031 Z M 319.46875 119.832031 "/></g></svg>