<svg xmlns="http://www.w3.org/2000/svg" xmlns:xlink="http://www.w3.org/1999/xlink" width="1920" zoomAndPan="magnify" viewBox="0 0 1440 809.999993" height="1080" preserveAspectRatio="xMidYMid meet" version="1.2"><g id="840a660974"><path style=" stroke:none;fill-rule:nonzero;fill:#8b1900;fill-opacity:1;" d="M 184.585938 1.777344 C 181.308594 0.203125 177.394531 0.648438 174.535156 2.929688 L 82.171875 76.820312 L 9.527344 76.820312 C 4.285156 76.820312 0.0273438 81.074219 0.0273438 86.316406 L 0.0273438 238.277344 C 0.0273438 243.527344 4.285156 247.773438 9.527344 247.773438 L 82.171875 247.773438 L 174.546875 321.675781 C 176.253906 323.050781 178.363281 323.753906 180.472656 323.753906 C 181.867188 323.753906 183.273438 323.449219 184.585938 322.816406 C 187.878906 321.230469 189.96875 317.90625 189.96875 314.257812 L 189.96875 10.335938 C 189.96875 6.6875 187.878906 3.355469 184.585938 1.777344 Z M 184.585938 1.777344 "/><path style=" stroke:none;fill-rule:nonzero;fill:#8b1900;fill-opacity:1;" d="M 263.167969 100.496094 C 259.453125 96.78125 253.453125 96.78125 249.738281 100.496094 C 246.023438 104.210938 246.023438 110.222656 249.738281 113.925781 C 262.304688 126.492188 269.226562 143.1875 269.226562 160.9375 C 269.226562 178.691406 262.304688 195.375 249.738281 207.953125 C 246.023438 211.664062 246.023438 217.667969 249.738281 221.382812 C 251.589844 223.234375 254.019531 224.164062 256.453125 224.164062 C 258.882812 224.164062 261.316406 223.234375 263.167969 221.382812 C 279.324219 205.226562 288.222656 183.761719 288.222656 160.9375 C 288.222656 138.117188 279.332031 116.652344 263.167969 100.496094 Z M 263.167969 100.496094 "/><path style=" stroke:none;fill-rule:nonzero;fill:#8b1900;fill-opacity:1;" d="M 343.761719 19.910156 C 340.050781 16.195312 334.046875 16.195312 330.332031 19.910156 C 326.621094 23.625 326.621094 29.625 330.332031 33.339844 C 400.683594 103.695312 400.683594 218.179688 330.332031 288.546875 C 326.621094 292.261719 326.621094 298.261719 330.332031 301.976562 C 332.1875 303.828125 334.617188 304.761719 337.046875 304.761719 C 339.480469 304.761719 341.910156 303.828125 343.761719 301.976562 C 421.511719 224.210938 421.511719 97.667969 343.761719 19.910156 Z M 343.761719 19.910156 "/><path style=" stroke:none;fill-rule:nonzero;fill:#8b1900;fill-opacity:1;" d="M 303.476562 60.199219 C 299.761719 56.484375 293.757812 56.484375 290.046875 60.199219 C 286.332031 63.910156 286.332031 69.914062 290.046875 73.628906 C 313.378906 96.972656 326.242188 127.972656 326.242188 160.929688 C 326.242188 193.886719 313.378906 224.894531 290.046875 248.230469 C 286.332031 251.945312 286.332031 257.945312 290.046875 261.660156 C 291.898438 263.511719 294.328125 264.441406 296.761719 264.441406 C 299.191406 264.441406 301.621094 263.511719 303.476562 261.660156 C 330.398438 234.734375 345.226562 198.957031 345.226562 160.929688 C 345.226562 122.902344 330.398438 87.125 303.476562 60.199219 Z M 303.476562 60.199219 "/></g></svg>