<svg xmlns="http://www.w3.org/2000/svg" xmlns:xlink="http://www.w3.org/1999/xlink" width="1920" zoomAndPan="magnify" viewBox="0 0 1440 809.999993" height="1080" preserveAspectRatio="xMidYMid meet" version="1.2"><defs><clipPath id="b17ae8308f"><path d="M 646.492188 200 L 892 200 L 892 522.816406 L 646.492188 522.816406 Z M 646.492188 200 "/></clipPath></defs><g id="dbc17f5526"><g clip-rule="nonzero" clip-path="url(#b17ae8308f)"><path style=" stroke:none;fill-rule:nonzero;fill:#000000;fill-opacity:1;" d="M 891.714844 249.492188 C 890.867188 232.175781 872.1875 227.222656 871.394531 227.019531 L 870.792969 226.863281 L 817.070312 226.863281 C 814.847656 223.292969 810.183594 221.476562 805.71875 221.273438 L 792.769531 221.015625 C 791.816406 217.019531 789.835938 211.074219 785.90625 206.65625 C 778.945312 198.820312 766.21875 198.917969 757.25 203.089844 C 750.570312 206.191406 745.5625 215.269531 743.269531 220.160156 C 739.960938 220.160156 734.714844 220.199219 730.6875 220.160156 C 722.8125 220.054688 719.574219 224.960938 718.785156 228.074219 C 707.730469 228.003906 680.359375 227.835938 669.054688 227.703125 C 654.410156 227.519531 648.230469 239.558594 647.027344 245.933594 L 646.945312 246.378906 L 646.945312 246.835938 C 646.945312 256.703125 646.609375 488.632812 646.945312 501.773438 C 647.296875 515.832031 659.714844 520.140625 666.214844 520.445312 L 666.375 520.445312 C 673.5 520.550781 831.289062 522.847656 862.21875 522.847656 C 864.226562 522.847656 865.695312 522.847656 866.558594 522.847656 C 884.453125 522.421875 889.363281 501.269531 889.566406 500.367188 L 889.675781 499.871094 L 889.675781 499.363281 C 889.792969 489.722656 892.410156 263.378906 891.714844 249.492188 Z M 855.898438 254.960938 C 857.601562 255.058594 860.414062 255.839844 860.523438 259.945312 C 860.773438 269.339844 859.765625 485.382812 859.761719 487.5625 L 859.761719 487.953125 C 859.820312 488.765625 859.625 491.363281 858.492188 492.570312 C 858.285156 492.792969 857.734375 493.390625 855.988281 493.390625 C 846.9375 493.390625 687.882812 490.988281 678.710938 490.851562 C 677.738281 490.644531 676.351562 490.03125 676.253906 488.273438 C 675.992188 483.359375 676.140625 335.785156 676.253906 258.171875 C 676.460938 256.75 677.398438 255.105469 680.546875 254.980469 C 686.925781 254.726562 708.75 254.863281 718.570312 254.941406 L 718.570312 264.730469 L 818.273438 264.730469 L 818.378906 259.941406 C 818.378906 259.289062 818.425781 257.472656 818.46875 254.980469 Z M 728.394531 230.191406 C 728.699219 230.152344 730.15625 229.9375 730.558594 229.957031 C 736.988281 230.039062 746.445312 229.957031 746.542969 229.957031 L 749.863281 229.921875 L 751.066406 226.835938 C 752.636719 222.816406 757.21875 213.886719 761.382812 211.953125 C 766.878906 209.402344 775.011719 209.128906 778.566406 213.136719 C 782.011719 217.050781 783.527344 224.035156 783.796875 226.40625 L 784.296875 230.632812 L 805.273438 231.058594 C 806.445312 231.128906 807.554688 231.425781 808.605469 231.945312 C 808.863281 235.085938 808.777344 246.15625 808.605469 254.921875 L 728.394531 254.921875 Z M 879.886719 498.640625 C 879.230469 501.074219 875.527344 512.816406 866.328125 513.039062 C 852.464844 513.371094 672.199219 510.746094 666.636719 510.664062 C 664.832031 510.480469 663.117188 509.992188 661.488281 509.195312 C 658.351562 507.609375 656.839844 505.171875 656.75 501.53125 C 656.421875 488.824219 656.75 260.15625 656.75 247.390625 C 657.265625 245.328125 659.800781 237.5 668.753906 237.5 L 668.9375 237.5 C 680.21875 237.632812 707.449219 237.800781 718.613281 237.867188 L 718.613281 245.132812 C 708.6875 245.050781 686.847656 244.910156 680.199219 245.175781 C 670.011719 245.582031 666.789062 253.441406 666.507812 257.53125 L 666.507812 257.859375 C 666.507812 266.996094 666.171875 482.386719 666.507812 488.777344 C 666.953125 497.027344 673.992188 500.101562 677.652344 500.578125 L 678.207031 500.617188 C 685.082031 500.722656 846.679688 503.164062 856.035156 503.164062 C 861.003906 503.164062 864.042969 501.023438 865.714844 499.246094 C 869.695312 494.976562 869.636719 488.886719 869.597656 487.496094 C 869.648438 476.667969 870.609375 269.222656 870.363281 259.707031 C 870.082031 249.261719 861.695312 245.292969 856.125 245.195312 L 818.589844 245.195312 C 818.589844 242.21875 818.589844 239.230469 818.589844 236.710938 L 869.488281 236.710938 C 871.90625 237.476562 881.488281 241.050781 881.90625 250.027344 C 882.605469 263.238281 880.035156 485.554688 879.886719 498.640625 Z M 879.886719 498.640625 "/></g><path style=" stroke:none;fill-rule:nonzero;fill:#000000;fill-opacity:1;" d="M 737.839844 296.394531 C 737.40625 296.394531 736.988281 296.476562 736.585938 296.640625 C 736.1875 296.808594 735.832031 297.042969 735.527344 297.351562 C 735.222656 297.65625 734.984375 298.007812 734.820312 298.410156 C 734.652344 298.808594 734.570312 299.226562 734.570312 299.65625 C 734.570312 300.089844 734.652344 300.507812 734.820312 300.90625 C 734.984375 301.304688 735.222656 301.660156 735.527344 301.964844 C 735.832031 302.269531 736.1875 302.507812 736.585938 302.671875 C 736.988281 302.839844 737.40625 302.921875 737.839844 302.921875 L 845.035156 302.921875 C 845.46875 302.921875 845.882812 302.839844 846.285156 302.671875 C 846.683594 302.507812 847.039062 302.269531 847.34375 301.964844 C 847.652344 301.660156 847.886719 301.304688 848.054688 300.90625 C 848.21875 300.507812 848.300781 300.089844 848.300781 299.65625 C 848.300781 299.226562 848.21875 298.808594 848.054688 298.410156 C 847.886719 298.007812 847.652344 297.65625 847.34375 297.351562 C 847.039062 297.042969 846.683594 296.808594 846.285156 296.640625 C 845.882812 296.476562 845.46875 296.394531 845.035156 296.394531 Z M 737.839844 296.394531 "/><path style=" stroke:none;fill-rule:nonzero;fill:#000000;fill-opacity:1;" d="M 737.839844 354.542969 L 845.035156 354.542969 C 845.46875 354.542969 845.882812 354.460938 846.285156 354.292969 C 846.683594 354.128906 847.039062 353.894531 847.34375 353.585938 C 847.652344 353.28125 847.886719 352.929688 848.054688 352.527344 C 848.21875 352.128906 848.300781 351.710938 848.300781 351.28125 C 848.300781 350.847656 848.21875 350.429688 848.054688 350.03125 C 847.886719 349.628906 847.652344 349.277344 847.34375 348.972656 C 847.039062 348.664062 846.683594 348.429688 846.285156 348.265625 C 845.882812 348.097656 845.46875 348.015625 845.035156 348.015625 L 737.839844 348.015625 C 737.40625 348.015625 736.988281 348.097656 736.585938 348.265625 C 736.1875 348.429688 735.832031 348.664062 735.527344 348.972656 C 735.222656 349.277344 734.984375 349.628906 734.820312 350.03125 C 734.652344 350.429688 734.570312 350.847656 734.570312 351.28125 C 734.570312 351.710938 734.652344 352.128906 734.820312 352.527344 C 734.984375 352.929688 735.222656 353.28125 735.527344 353.585938 C 735.832031 353.894531 736.1875 354.128906 736.585938 354.292969 C 736.988281 354.460938 737.40625 354.542969 737.839844 354.542969 Z M 737.839844 354.542969 "/><path style=" stroke:none;fill-rule:nonzero;fill:#000000;fill-opacity:1;" d="M 845.054688 404.636719 C 845.488281 404.636719 845.902344 404.554688 846.304688 404.390625 C 846.703125 404.222656 847.058594 403.988281 847.363281 403.683594 C 847.671875 403.375 847.90625 403.023438 848.074219 402.621094 C 848.238281 402.222656 848.320312 401.808594 848.320312 401.375 C 848.320312 400.941406 848.238281 400.523438 848.074219 400.125 C 847.90625 399.726562 847.671875 399.371094 847.363281 399.066406 C 847.058594 398.761719 846.703125 398.523438 846.304688 398.359375 C 845.902344 398.195312 845.488281 398.109375 845.054688 398.109375 L 737.859375 398.109375 C 737.425781 398.109375 737.007812 398.195312 736.605469 398.359375 C 736.207031 398.523438 735.851562 398.761719 735.546875 399.066406 C 735.242188 399.371094 735.003906 399.726562 734.839844 400.125 C 734.671875 400.523438 734.589844 400.941406 734.589844 401.375 C 734.589844 401.808594 734.671875 402.222656 734.839844 402.621094 C 735.003906 403.023438 735.242188 403.375 735.546875 403.683594 C 735.851562 403.988281 736.207031 404.222656 736.605469 404.390625 C 737.007812 404.554688 737.425781 404.636719 737.859375 404.636719 Z M 845.054688 404.636719 "/><path style=" stroke:none;fill-rule:nonzero;fill:#000000;fill-opacity:1;" d="M 739.539062 455.332031 C 739.105469 455.332031 738.6875 455.414062 738.285156 455.582031 C 737.886719 455.746094 737.53125 455.984375 737.226562 456.289062 C 736.921875 456.59375 736.683594 456.949219 736.519531 457.347656 C 736.351562 457.746094 736.269531 458.164062 736.269531 458.597656 C 736.269531 459.027344 736.351562 459.445312 736.519531 459.84375 C 736.683594 460.246094 736.921875 460.597656 737.226562 460.902344 C 737.53125 461.210938 737.886719 461.445312 738.285156 461.609375 C 738.6875 461.777344 739.105469 461.859375 739.539062 461.859375 L 846.734375 461.859375 C 847.167969 461.859375 847.582031 461.777344 847.984375 461.609375 C 848.382812 461.445312 848.738281 461.210938 849.042969 460.902344 C 849.351562 460.597656 849.585938 460.246094 849.753906 459.84375 C 849.917969 459.445312 850 459.027344 850 458.597656 C 850 458.164062 849.917969 457.746094 849.753906 457.347656 C 849.585938 456.949219 849.351562 456.59375 849.042969 456.289062 C 848.738281 455.984375 848.382812 455.746094 847.984375 455.582031 C 847.582031 455.414062 847.167969 455.332031 846.734375 455.332031 Z M 739.539062 455.332031 "/><path style=" stroke:none;fill-rule:nonzero;fill:#000000;fill-opacity:1;" d="M 709.46875 319.722656 L 729.824219 278.203125 C 730.015625 277.8125 730.125 277.402344 730.152344 276.96875 C 730.179688 276.535156 730.121094 276.113281 729.980469 275.703125 C 729.839844 275.292969 729.625 274.925781 729.335938 274.601562 C 729.050781 274.277344 728.710938 274.019531 728.320312 273.828125 C 727.929688 273.640625 727.515625 273.53125 727.082031 273.503906 C 726.652344 273.476562 726.226562 273.535156 725.816406 273.675781 C 725.40625 273.820312 725.039062 274.035156 724.714844 274.320312 C 724.390625 274.609375 724.132812 274.949219 723.941406 275.335938 L 708.640625 306.550781 L 697.789062 289.996094 C 697.550781 289.636719 697.253906 289.332031 696.894531 289.089844 C 696.539062 288.847656 696.148438 288.679688 695.722656 288.59375 C 695.296875 288.503906 694.875 288.5 694.449219 288.582031 C 694.023438 288.660156 693.628906 288.820312 693.265625 289.058594 C 692.902344 289.292969 692.597656 289.589844 692.355469 289.949219 C 692.109375 290.304688 691.945312 290.695312 691.855469 291.121094 C 691.765625 291.542969 691.761719 291.96875 691.84375 292.394531 C 691.921875 292.820312 692.082031 293.210938 692.320312 293.574219 Z M 709.46875 319.722656 "/><path style=" stroke:none;fill-rule:nonzero;fill:#000000;fill-opacity:1;" d="M 709.46875 368.84375 L 729.824219 327.324219 C 730.015625 326.9375 730.121094 326.523438 730.148438 326.09375 C 730.171875 325.660156 730.117188 325.242188 729.972656 324.832031 C 729.832031 324.421875 729.617188 324.054688 729.332031 323.730469 C 729.042969 323.40625 728.703125 323.152344 728.316406 322.960938 C 727.925781 322.769531 727.515625 322.664062 727.082031 322.636719 C 726.648438 322.609375 726.226562 322.667969 725.816406 322.808594 C 725.40625 322.949219 725.039062 323.160156 724.714844 323.449219 C 724.390625 323.734375 724.132812 324.070312 723.941406 324.460938 L 708.640625 355.671875 L 697.777344 339.105469 C 697.539062 338.746094 697.242188 338.441406 696.882812 338.199219 C 696.523438 337.957031 696.132812 337.792969 695.710938 337.703125 C 695.285156 337.617188 694.859375 337.613281 694.4375 337.691406 C 694.011719 337.773438 693.617188 337.933594 693.253906 338.167969 C 692.890625 338.40625 692.589844 338.703125 692.34375 339.058594 C 692.101562 339.417969 691.933594 339.808594 691.84375 340.230469 C 691.757812 340.652344 691.75 341.078125 691.832031 341.503906 C 691.910156 341.925781 692.070312 342.320312 692.304688 342.683594 Z M 709.46875 368.84375 "/><path style=" stroke:none;fill-rule:nonzero;fill:#000000;fill-opacity:1;" d="M 727.921875 384.640625 C 728.113281 384.25 728.21875 383.839844 728.246094 383.40625 C 728.273438 382.972656 728.214844 382.554688 728.074219 382.144531 C 727.929688 381.734375 727.71875 381.367188 727.429688 381.042969 C 727.140625 380.71875 726.804688 380.460938 726.414062 380.273438 C 726.023438 380.082031 725.613281 379.976562 725.179688 379.949219 C 724.746094 379.921875 724.324219 379.980469 723.914062 380.121094 C 723.507812 380.261719 723.136719 380.472656 722.8125 380.761719 C 722.488281 381.046875 722.230469 381.382812 722.039062 381.773438 L 706.777344 412.972656 L 695.886719 396.386719 C 695.644531 396.039062 695.34375 395.75 694.988281 395.515625 C 694.632812 395.285156 694.246094 395.128906 693.828125 395.050781 C 693.410156 394.96875 692.992188 394.96875 692.574219 395.050781 C 692.15625 395.132812 691.769531 395.289062 691.414062 395.523438 C 691.058594 395.757812 690.761719 396.046875 690.519531 396.398438 C 690.277344 396.746094 690.109375 397.128906 690.015625 397.542969 C 689.925781 397.957031 689.914062 398.375 689.984375 398.792969 C 690.054688 399.210938 690.199219 399.601562 690.421875 399.964844 L 707.574219 426.125 Z M 727.921875 384.640625 "/><path style=" stroke:none;fill-rule:nonzero;fill:#000000;fill-opacity:1;" d="M 731.484375 429.238281 C 731.09375 429.046875 730.683594 428.9375 730.253906 428.910156 C 729.820312 428.882812 729.398438 428.941406 728.988281 429.082031 C 728.578125 429.222656 728.210938 429.433594 727.886719 429.71875 C 727.5625 430.007812 727.300781 430.34375 727.113281 430.734375 L 711.808594 461.949219 L 700.945312 445.386719 C 700.710938 445.023438 700.414062 444.71875 700.054688 444.472656 C 699.695312 444.230469 699.304688 444.0625 698.878906 443.972656 C 698.453125 443.886719 698.027344 443.878906 697.601562 443.960938 C 697.175781 444.042969 696.78125 444.199219 696.417969 444.4375 C 696.054688 444.675781 695.75 444.972656 695.507812 445.332031 C 695.261719 445.6875 695.09375 446.082031 695.007812 446.503906 C 694.917969 446.929688 694.914062 447.355469 694.996094 447.78125 C 695.078125 448.207031 695.238281 448.601562 695.476562 448.960938 L 712.660156 475.117188 L 732.980469 433.589844 C 733.171875 433.203125 733.277344 432.792969 733.304688 432.363281 C 733.328125 431.933594 733.273438 431.515625 733.132812 431.105469 C 732.992188 430.699219 732.78125 430.332031 732.496094 430.007812 C 732.207031 429.683594 731.871094 429.429688 731.484375 429.238281 Z M 731.484375 429.238281 "/><path style=" stroke:none;fill-rule:nonzero;fill:#000000;fill-opacity:1;" d="M 768.871094 235.785156 C 769.601562 235.785156 770.324219 235.714844 771.039062 235.570312 C 771.757812 235.429688 772.449219 235.21875 773.125 234.941406 C 773.800781 234.660156 774.4375 234.320312 775.046875 233.914062 C 775.652344 233.507812 776.214844 233.050781 776.730469 232.535156 C 777.246094 232.019531 777.707031 231.457031 778.113281 230.851562 C 778.515625 230.246094 778.859375 229.609375 779.136719 228.933594 C 779.417969 228.261719 779.628906 227.566406 779.769531 226.851562 C 779.914062 226.136719 779.984375 225.417969 779.984375 224.6875 C 779.984375 223.960938 779.914062 223.238281 779.769531 222.523438 C 779.628906 221.808594 779.417969 221.117188 779.136719 220.441406 C 778.859375 219.769531 778.515625 219.128906 778.113281 218.523438 C 777.707031 217.917969 777.246094 217.359375 776.730469 216.84375 C 776.214844 216.328125 775.652344 215.867188 775.046875 215.460938 C 774.4375 215.058594 773.800781 214.714844 773.125 214.4375 C 772.449219 214.160156 771.757812 213.949219 771.039062 213.804688 C 770.324219 213.664062 769.601562 213.59375 768.871094 213.59375 C 768.144531 213.59375 767.421875 213.664062 766.703125 213.804688 C 765.988281 213.949219 765.292969 214.160156 764.621094 214.4375 C 763.945312 214.714844 763.304688 215.058594 762.699219 215.460938 C 762.09375 215.867188 761.53125 216.328125 761.015625 216.84375 C 760.5 217.359375 760.039062 217.917969 759.632812 218.523438 C 759.226562 219.128906 758.886719 219.769531 758.605469 220.441406 C 758.328125 221.117188 758.117188 221.808594 757.972656 222.523438 C 757.832031 223.238281 757.761719 223.960938 757.761719 224.6875 C 757.761719 225.417969 757.832031 226.136719 757.972656 226.851562 C 758.117188 227.566406 758.328125 228.261719 758.605469 228.933594 C 758.886719 229.609375 759.226562 230.246094 759.632812 230.851562 C 760.039062 231.457031 760.5 232.019531 761.015625 232.535156 C 761.53125 233.050781 762.09375 233.507812 762.699219 233.914062 C 763.304688 234.320312 763.945312 234.660156 764.621094 234.941406 C 765.292969 235.21875 765.988281 235.429688 766.703125 235.570312 C 767.421875 235.714844 768.144531 235.785156 768.871094 235.785156 Z M 768.871094 220.121094 C 769.171875 220.121094 769.46875 220.148438 769.765625 220.207031 C 770.058594 220.265625 770.347656 220.351562 770.625 220.46875 C 770.902344 220.582031 771.164062 220.722656 771.414062 220.890625 C 771.664062 221.054688 771.894531 221.246094 772.109375 221.457031 C 772.320312 221.667969 772.511719 221.902344 772.675781 222.148438 C 772.84375 222.398438 772.984375 222.664062 773.101562 222.941406 C 773.214844 223.21875 773.300781 223.503906 773.359375 223.796875 C 773.417969 224.089844 773.449219 224.386719 773.449219 224.6875 C 773.449219 224.988281 773.417969 225.285156 773.359375 225.578125 C 773.300781 225.875 773.214844 226.160156 773.101562 226.4375 C 772.984375 226.714844 772.84375 226.976562 772.675781 227.226562 C 772.511719 227.476562 772.320312 227.707031 772.109375 227.917969 C 771.894531 228.132812 771.664062 228.320312 771.414062 228.488281 C 771.164062 228.652344 770.902344 228.792969 770.625 228.910156 C 770.347656 229.023438 770.058594 229.109375 769.765625 229.167969 C 769.46875 229.226562 769.171875 229.257812 768.871094 229.257812 C 768.570312 229.257812 768.273438 229.226562 767.980469 229.167969 C 767.683594 229.109375 767.398438 229.023438 767.121094 228.910156 C 766.84375 228.792969 766.582031 228.652344 766.332031 228.488281 C 766.082031 228.320312 765.851562 228.132812 765.636719 227.917969 C 765.425781 227.707031 765.234375 227.476562 765.066406 227.226562 C 764.902344 226.976562 764.761719 226.714844 764.644531 226.4375 C 764.53125 226.160156 764.445312 225.875 764.386719 225.578125 C 764.328125 225.285156 764.296875 224.988281 764.296875 224.6875 C 764.296875 224.386719 764.324219 224.089844 764.382812 223.796875 C 764.441406 223.5 764.527344 223.214844 764.640625 222.9375 C 764.757812 222.65625 764.898438 222.394531 765.0625 222.144531 C 765.230469 221.894531 765.421875 221.660156 765.632812 221.449219 C 765.84375 221.238281 766.078125 221.046875 766.328125 220.878906 C 766.578125 220.710938 766.839844 220.570312 767.117188 220.457031 C 767.398438 220.339844 767.683594 220.253906 767.976562 220.195312 C 768.273438 220.136719 768.570312 220.105469 768.871094 220.105469 Z M 768.871094 220.121094 "/></g></svg>